G04 DipTrace 3.0.0.2*
G04 BottomAssy.gbr*
%MOMM*%
G04 #@! TF.FileFunction,Drawing,Bot*
G04 #@! TF.Part,Single*
%ADD10C,0.25*%
%ADD66C,0.07843*%
%FSLAX35Y35*%
G04*
G71*
G90*
G75*
G01*
G04 BotAssy*
%LPD*%
X2592815Y5977400D2*
D10*
X1376815D1*
X2237383Y6062163D2*
D66*
Y6011119D1*
X2215483D1*
X2208183Y6013590D1*
X2205768Y6016005D1*
X2203353Y6020834D1*
Y6028134D1*
X2205768Y6033019D1*
X2208183Y6035434D1*
X2215483Y6037849D1*
X2208183Y6040319D1*
X2205768Y6042734D1*
X2203353Y6047563D1*
Y6052449D1*
X2205768Y6057278D1*
X2208183Y6059749D1*
X2215483Y6062163D1*
X2237383D1*
Y6037849D2*
X2215483D1*
X2173067Y6062163D2*
X2177953Y6059749D1*
X2182782Y6054863D1*
X2185253Y6050034D1*
X2187667Y6042734D1*
Y6030549D1*
X2185253Y6023305D1*
X2182782Y6018419D1*
X2177953Y6013590D1*
X2173067Y6011119D1*
X2163353D1*
X2158523Y6013590D1*
X2153638Y6018419D1*
X2151223Y6023305D1*
X2148809Y6030549D1*
Y6042734D1*
X2151223Y6050034D1*
X2153638Y6054863D1*
X2158523Y6059749D1*
X2163353Y6062163D1*
X2173067D1*
X2094208Y6011119D2*
X2113693Y6062163D1*
X2133122Y6011119D1*
X2125822Y6028134D2*
X2101508D1*
X2078521Y6037849D2*
X2056678D1*
X2049378Y6040319D1*
X2046907Y6042734D1*
X2044492Y6047563D1*
Y6052449D1*
X2046907Y6057278D1*
X2049378Y6059749D1*
X2056678Y6062163D1*
X2078521D1*
Y6011119D1*
X2061507Y6037849D2*
X2044492Y6011119D1*
X2028806Y6062163D2*
Y6011119D1*
X2011791D1*
X2004491Y6013590D1*
X1999606Y6018419D1*
X1997191Y6023305D1*
X1994777Y6030549D1*
Y6042734D1*
X1997191Y6050034D1*
X1999606Y6054863D1*
X2004491Y6059749D1*
X2011791Y6062163D1*
X2028806D1*
X1898153D2*
X1929712D1*
Y6011119D1*
X1898153D1*
X1929712Y6037849D2*
X1910283D1*
X1882467Y6062163D2*
Y6011119D1*
X1865453D1*
X1858153Y6013590D1*
X1853267Y6018419D1*
X1850853Y6023305D1*
X1848438Y6030549D1*
Y6042734D1*
X1850853Y6050034D1*
X1853267Y6054863D1*
X1858153Y6059749D1*
X1865453Y6062163D1*
X1882467D1*
X1796308Y6050034D2*
X1798722Y6054863D1*
X1803608Y6059749D1*
X1808437Y6062163D1*
X1818152D1*
X1823037Y6059749D1*
X1827866Y6054863D1*
X1830337Y6050034D1*
X1832752Y6042734D1*
Y6030549D1*
X1830337Y6023305D1*
X1827866Y6018419D1*
X1823037Y6013590D1*
X1818152Y6011119D1*
X1808437D1*
X1803608Y6013590D1*
X1798722Y6018419D1*
X1796308Y6023305D1*
Y6030549D1*
X1808437D1*
X1749063Y6062163D2*
X1780622D1*
Y6011119D1*
X1749063D1*
X1780622Y6037849D2*
X1761192D1*
M02*
