G04 DipTrace 3.0.0.2*
G04 Bottom.gbr*
%MOMM*%
G04 #@! TF.FileFunction,Copper,L2,Bot*
G04 #@! TF.Part,Single*
%AMOUTLINE0*
4,1,8,
0.75,-0.5,
1.0,-0.25,
1.0,0.25,
0.75,0.5,
-0.75,0.5,
-1.0,0.25,
-1.0,-0.25,
-0.75,-0.5,
0.75,-0.5,
0*%
G04 #@! TA.AperFunction,CopperBalancing*
%ADD13C,0.5*%
G04 #@! TA.AperFunction,Conductor*
%ADD14C,0.33*%
%ADD15C,2.5*%
%ADD16C,2.0*%
G04 #@! TA.AperFunction,CopperBalancing*
%ADD17C,0.635*%
G04 #@! TA.AperFunction,ComponentPad*
%ADD18R,1.6X1.6*%
%ADD19C,1.6*%
%ADD20R,1.5X1.5*%
%ADD21C,1.5*%
%ADD22C,2.3*%
%ADD23R,2.3X2.3*%
%ADD24R,1.7X1.7*%
%ADD25C,1.7*%
%ADD26C,1.27*%
%ADD27C,1.27*%
%ADD28C,1.778*%
%ADD29C,1.778*%
%ADD30O,2.0X1.0*%
%ADD31C,1.9*%
%ADD67OUTLINE0*%
%FSLAX35Y35*%
G04*
G71*
G90*
G75*
G01*
G04 Bottom*
%LPD*%
X4684058Y5749100D2*
D13*
X4811058Y5622100D1*
X5065058D1*
X1603815Y5825393D2*
D14*
X1349762D1*
X1254522Y5730153D1*
X4271308Y5622100D2*
X4496308D1*
X4620208Y5746000D1*
X4680958D1*
X4684058Y5749100D1*
X4112208Y4476000D2*
Y4412500D1*
X4175535Y4349173D1*
X4842055D1*
X5573058Y5080177D1*
Y5368100D1*
X2111815Y5825393D2*
Y5746000D1*
X1826208Y5460393D1*
Y5238000D1*
X4016642Y2126773D2*
D15*
X3857775D1*
X4302002Y2571000D1*
X4493208D1*
X3524568Y1428480D2*
Y1793567D1*
X3857775Y2126773D1*
X3524568Y1428480D2*
D16*
Y1666580D1*
X3286468Y1904680D1*
X2858048D1*
X2778682Y1984047D1*
X4016642Y1364773D2*
D15*
X4143915Y1237500D1*
X4945712D1*
X5183835Y1475623D1*
X1254682Y2365007D2*
D16*
Y1984047D1*
X3024568Y1428480D2*
X2349942D1*
X2207082Y1285620D1*
X2238828Y1317367D1*
Y2777460D1*
X2270522Y2809153D1*
X3096208Y4476000D2*
D14*
Y4666500D1*
X3226308Y4796600D1*
X3414058D1*
X4493208Y1809000D2*
D15*
X4747622Y2063413D1*
X5445242D1*
X5683835Y1824820D1*
Y1475623D1*
X1457082Y1465620D2*
D16*
X1730882Y1739420D1*
Y2777513D1*
X1762522Y2809153D1*
X1318208Y5238000D2*
D14*
Y5428593D1*
X1413415Y5523800D1*
X4112208Y5238000D2*
Y4764500D1*
X3985208Y4637500D1*
Y4225450D1*
X4369658Y3841000D1*
X4493208D1*
X1857815Y5825393D2*
Y5730100D1*
X1572208Y5444493D1*
Y5238000D1*
X3858208D2*
Y4796250D1*
X3731208Y4669250D1*
Y4174373D1*
X3905832Y3999750D1*
Y3507583D1*
X4016642Y3396773D1*
X5319058Y5622100D2*
Y5618650D1*
X5445708Y5492000D1*
Y5142747D1*
X5302942Y4999980D1*
X5144188D1*
X4620208Y4476000D1*
X5319058Y5368100D2*
Y5222473D1*
X5223552Y5126967D1*
X5017175D1*
X4366208Y4476000D1*
X4684058Y5495100D2*
D13*
X4938058D1*
X5065058Y5368100D1*
X4271308Y5495100D2*
D14*
X4684058D1*
X2842208Y5238000D2*
D13*
X2873842D1*
X2778522Y5333320D1*
Y5730153D1*
X2175415Y5523800D2*
D14*
X2556295D1*
X2778522Y5746027D1*
Y5730153D1*
X2365815Y5825393D2*
Y5714200D1*
X2175415Y5523800D1*
X4271308Y5749100D2*
D13*
X4146702D1*
X3937275Y5539673D1*
X2969002D1*
X2778522Y5730153D1*
X1366291Y5825717D2*
D17*
X1445120D1*
X2524422D2*
X2629916D1*
X2927126D2*
X3111995D1*
X3903562D2*
X4088928D1*
X4416523D2*
X4551907D1*
X4816251D2*
X5867424D1*
X1399405Y5762550D2*
X1458763D1*
X2524422D2*
X2629916D1*
X2927126D2*
X3111995D1*
X3933700D2*
X4023319D1*
X4444180D2*
X4531071D1*
X4837087D2*
X4916412D1*
X5213746D2*
X5289847D1*
X5348187D2*
X5543847D1*
X5602187D2*
X5797847D1*
X1399777Y5699383D2*
X1511969D1*
X2524422D2*
X2607096D1*
X2946101D2*
X3111995D1*
X4433886D2*
X4539009D1*
X4829025D2*
X4916412D1*
X1486593Y5636217D2*
X1639093D1*
X2412676D2*
X2543968D1*
X3009229D2*
X3111995D1*
X4444056D2*
X4530451D1*
X4837707D2*
X4916412D1*
X1118182Y5573050D2*
X1285874D1*
X1540916D2*
X1575983D1*
X1118182Y5509883D2*
X1274712D1*
X4044329D2*
X4097733D1*
X1118182Y5446717D2*
X1230063D1*
X2877144D2*
X4101950D1*
X1118182Y5383550D2*
X1164579D1*
X2877144D2*
X3067347D1*
X3125191D2*
X3321347D1*
X3379191D2*
X3575347D1*
X3633191D2*
X3829347D1*
X3887191D2*
X4083347D1*
X4395191D2*
X4530451D1*
X1118182Y5320383D2*
X1164579D1*
X1118182Y5257217D2*
X1164579D1*
X1118182Y5194050D2*
X1164579D1*
X1118182Y5130883D2*
X1164579D1*
X1679698D2*
X1718716D1*
X1933698D2*
X1972716D1*
X2187698D2*
X2226716D1*
X2441698D2*
X2480716D1*
X2695698D2*
X2734716D1*
X2949698D2*
X2988716D1*
X3203698D2*
X3242716D1*
X3457698D2*
X3496716D1*
X3711698D2*
X3750716D1*
X1118182Y5067717D2*
X3768079D1*
X1118182Y5004550D2*
X3768079D1*
X1118182Y4941383D2*
X3260451D1*
X3567707D2*
X3634630D1*
X3701404D2*
X3768079D1*
X1118182Y4878217D2*
X3201168D1*
X1118182Y4815050D2*
X3119932D1*
X1118182Y4751883D2*
X3056805D1*
X1118182Y4688717D2*
X3009056D1*
X1118182Y4625550D2*
X3006079D1*
X3186335D2*
X3641079D1*
X1118182Y4562383D2*
X1192608D1*
X1118182Y4499217D2*
X1166439D1*
X1118182Y4436050D2*
X1170036D1*
X1118182Y4372883D2*
X1206747D1*
X1118182Y4309717D2*
X3641079D1*
X3821335D2*
X3895079D1*
X1118182Y4246550D2*
X3641079D1*
X3821335D2*
X3895079D1*
X1118182Y4183383D2*
X3133451D1*
X3847007D2*
X3906489D1*
X1118182Y4120217D2*
X3133451D1*
X3910135D2*
X3965648D1*
X1118182Y4057050D2*
X3133451D1*
X3688878D2*
X3723679D1*
X3973263D2*
X4028776D1*
X1118182Y3993883D2*
X3133451D1*
X3651547D2*
X3786931D1*
X3995960D2*
X4092028D1*
X1118182Y3930717D2*
X3815704D1*
X3995960D2*
X4155156D1*
X1118182Y3867550D2*
X3815704D1*
X3995960D2*
X4218284D1*
X1118182Y3804383D2*
X3815704D1*
X3995960D2*
X4281536D1*
X1118182Y3741217D2*
X3133451D1*
X3633687D2*
X3815704D1*
X3995960D2*
X4385468D1*
X1118182Y3678050D2*
X3133451D1*
X3683545D2*
X3815704D1*
X3995960D2*
X4377530D1*
X1118182Y3614883D2*
X3133451D1*
X3694583D2*
X3815704D1*
X3995960D2*
X4347268D1*
X1118182Y3551717D2*
X3133451D1*
X3676971D2*
X3815704D1*
X3995960D2*
X4349005D1*
X3171518Y3769140D2*
X3434348D1*
Y3723375D1*
X3450771Y3738222D1*
X3466535Y3748895D1*
X3483543Y3757446D1*
X3501512Y3763732D1*
X3520142Y3767647D1*
X3539121Y3769127D1*
X3558132Y3768147D1*
X3576858Y3764723D1*
X3594987Y3758912D1*
X3612214Y3750812D1*
X3628253Y3740558D1*
X3642835Y3728320D1*
X3655717Y3714304D1*
X3666684Y3698744D1*
X3675552Y3681899D1*
X3682173Y3664051D1*
X3686438Y3645498D1*
X3688348Y3621850D1*
X3687118Y3602853D1*
X3683448Y3584173D1*
X3677399Y3566123D1*
X3669073Y3549004D1*
X3660713Y3536018D1*
X3822155Y3535823D1*
X3822042Y3965106D1*
X3688348Y4098100D1*
X3687118Y4079103D1*
X3683448Y4060423D1*
X3677399Y4042373D1*
X3669073Y4025254D1*
X3658609Y4009351D1*
X3646180Y3994932D1*
X3631996Y3982235D1*
X3616293Y3971474D1*
X3599332Y3962828D1*
X3581399Y3956442D1*
X3562791Y3952422D1*
X3543821Y3950836D1*
X3524804Y3951710D1*
X3506059Y3955029D1*
X3487899Y3960738D1*
X3470626Y3968741D1*
X3454530Y3978906D1*
X3439880Y3991062D1*
X3434364Y3996594D1*
X3434349Y3950810D1*
X3139769D1*
Y4245390D1*
X3434349D1*
Y4199625D1*
X3450771Y4214472D1*
X3466535Y4225145D1*
X3483543Y4233696D1*
X3501512Y4239982D1*
X3520142Y4243897D1*
X3539121Y4245377D1*
X3558132Y4244397D1*
X3576858Y4240973D1*
X3594987Y4235162D1*
X3612214Y4227062D1*
X3628253Y4216808D1*
X3642835Y4204570D1*
X3647447Y4199957D1*
X3647418Y4335232D1*
X3627250Y4330523D1*
X3604208Y4328710D1*
X3581167Y4330523D1*
X3558693Y4335919D1*
X3537340Y4344764D1*
X3517634Y4356840D1*
X3500059Y4371850D1*
X3485048Y4389425D1*
X3477277Y4401446D1*
X3462209Y4380343D1*
X3445866Y4364000D1*
X3427167Y4350415D1*
X3406574Y4339922D1*
X3384593Y4332780D1*
X3361765Y4329164D1*
X3338652D1*
X3315824Y4332780D1*
X3293843Y4339922D1*
X3273250Y4350415D1*
X3254551Y4364000D1*
X3238208Y4380343D1*
X3223277Y4401446D1*
X3208209Y4380343D1*
X3191866Y4364000D1*
X3173167Y4350415D1*
X3152574Y4339922D1*
X3130593Y4332780D1*
X3107765Y4329164D1*
X3084652D1*
X3061824Y4332780D1*
X3039843Y4339922D1*
X3019250Y4350415D1*
X3000551Y4364000D1*
X2984208Y4380343D1*
X2969277Y4401446D1*
X2955824Y4382268D1*
X2942786Y4368397D1*
X2928068Y4356323D1*
X2911915Y4346249D1*
X2894598Y4338342D1*
X2876406Y4332735D1*
X2857643Y4329521D1*
X2838621Y4328754D1*
X2819660Y4330446D1*
X2801075Y4334570D1*
X2783178Y4341057D1*
X2766266Y4349797D1*
X2750623Y4360646D1*
X2736510Y4373422D1*
X2724163Y4387911D1*
X2715238Y4401416D1*
X2700209Y4380343D1*
X2683866Y4364000D1*
X2665167Y4350415D1*
X2644574Y4339922D1*
X2622593Y4332780D1*
X2599765Y4329164D1*
X2576652D1*
X2553824Y4332780D1*
X2531843Y4339922D1*
X2511250Y4350415D1*
X2492551Y4364000D1*
X2476208Y4380343D1*
X2461277Y4401446D1*
X2446209Y4380343D1*
X2429866Y4364000D1*
X2411167Y4350415D1*
X2390574Y4339922D1*
X2368593Y4332780D1*
X2345765Y4329164D1*
X2322652D1*
X2299824Y4332780D1*
X2277843Y4339922D1*
X2257250Y4350415D1*
X2238551Y4364000D1*
X2222208Y4380343D1*
X2207277Y4401446D1*
X2192209Y4380343D1*
X2175866Y4364000D1*
X2157167Y4350415D1*
X2136574Y4339922D1*
X2114593Y4332780D1*
X2091765Y4329164D1*
X2068652D1*
X2045824Y4332780D1*
X2023843Y4339922D1*
X2003250Y4350415D1*
X1984551Y4364000D1*
X1968208Y4380343D1*
X1953277Y4401446D1*
X1938209Y4380343D1*
X1921866Y4364000D1*
X1903167Y4350415D1*
X1882574Y4339922D1*
X1860593Y4332780D1*
X1837765Y4329164D1*
X1814652D1*
X1791824Y4332780D1*
X1769843Y4339922D1*
X1749250Y4350415D1*
X1730551Y4364000D1*
X1714208Y4380343D1*
X1699277Y4401446D1*
X1684209Y4380343D1*
X1667866Y4364000D1*
X1649167Y4350415D1*
X1628574Y4339922D1*
X1606593Y4332780D1*
X1583765Y4329164D1*
X1560652D1*
X1537824Y4332780D1*
X1515843Y4339922D1*
X1495250Y4350415D1*
X1476551Y4364000D1*
X1460208Y4380343D1*
X1445277Y4401446D1*
X1430209Y4380343D1*
X1413866Y4364000D1*
X1395167Y4350415D1*
X1374574Y4339922D1*
X1352593Y4332780D1*
X1329765Y4329164D1*
X1306652D1*
X1283824Y4332780D1*
X1261843Y4339922D1*
X1241250Y4350415D1*
X1222551Y4364000D1*
X1206208Y4380343D1*
X1192623Y4399041D1*
X1182130Y4419635D1*
X1174988Y4441616D1*
X1171372Y4464444D1*
Y4487556D1*
X1174988Y4510384D1*
X1182130Y4532365D1*
X1192623Y4552959D1*
X1206208Y4571657D1*
X1222551Y4588000D1*
X1241250Y4601585D1*
X1261843Y4612078D1*
X1283824Y4619220D1*
X1306652Y4622836D1*
X1329765D1*
X1352593Y4619220D1*
X1374574Y4612078D1*
X1395167Y4601585D1*
X1413866Y4588000D1*
X1430209Y4571657D1*
X1445140Y4550554D1*
X1460208Y4571657D1*
X1476551Y4588000D1*
X1495250Y4601585D1*
X1515843Y4612078D1*
X1537824Y4619220D1*
X1560652Y4622836D1*
X1583765D1*
X1606593Y4619220D1*
X1628574Y4612078D1*
X1649167Y4601585D1*
X1667866Y4588000D1*
X1684209Y4571657D1*
X1699140Y4550554D1*
X1714208Y4571657D1*
X1730551Y4588000D1*
X1749250Y4601585D1*
X1769843Y4612078D1*
X1791824Y4619220D1*
X1814652Y4622836D1*
X1837765D1*
X1860593Y4619220D1*
X1882574Y4612078D1*
X1903167Y4601585D1*
X1921866Y4588000D1*
X1938209Y4571657D1*
X1953140Y4550554D1*
X1968208Y4571657D1*
X1984551Y4588000D1*
X2003250Y4601585D1*
X2023843Y4612078D1*
X2045824Y4619220D1*
X2068652Y4622836D1*
X2091765D1*
X2114593Y4619220D1*
X2136574Y4612078D1*
X2157167Y4601585D1*
X2175866Y4588000D1*
X2192209Y4571657D1*
X2207140Y4550554D1*
X2222208Y4571657D1*
X2238551Y4588000D1*
X2257250Y4601585D1*
X2277843Y4612078D1*
X2299824Y4619220D1*
X2322652Y4622836D1*
X2345765D1*
X2368593Y4619220D1*
X2390574Y4612078D1*
X2411167Y4601585D1*
X2429866Y4588000D1*
X2446209Y4571657D1*
X2461140Y4550554D1*
X2476208Y4571657D1*
X2492551Y4588000D1*
X2511250Y4601585D1*
X2531843Y4612078D1*
X2553824Y4619220D1*
X2576652Y4622836D1*
X2599765D1*
X2622593Y4619220D1*
X2644574Y4612078D1*
X2665167Y4601585D1*
X2683866Y4588000D1*
X2700209Y4571657D1*
X2715140Y4550554D1*
X2729119Y4570367D1*
X2742235Y4584165D1*
X2757021Y4596156D1*
X2773229Y4606139D1*
X2790590Y4613949D1*
X2808814Y4619454D1*
X2827595Y4622563D1*
X2846620Y4623224D1*
X2865572Y4621425D1*
X2884133Y4617197D1*
X2901994Y4610611D1*
X2918856Y4601776D1*
X2934438Y4590839D1*
X2948479Y4577985D1*
X2960745Y4563426D1*
X2969195Y4550558D1*
X2984208Y4571657D1*
X3000551Y4588000D1*
X3012451Y4597043D1*
X3012677Y4673074D1*
X3016519Y4692393D1*
X3024766Y4710280D1*
X3036960Y4725749D1*
X3037583Y4726324D1*
X3171891Y4860315D1*
X3188269Y4871258D1*
X3206748Y4878075D1*
X3226308Y4880390D1*
X3227156Y4880357D1*
X3266864Y4880390D1*
X3266769Y4943890D1*
X3561349D1*
Y4898125D1*
X3577771Y4912972D1*
X3593535Y4923645D1*
X3610543Y4932196D1*
X3628512Y4938482D1*
X3647142Y4942397D1*
X3666121Y4943877D1*
X3685132Y4942897D1*
X3703858Y4939473D1*
X3721987Y4933662D1*
X3739214Y4925562D1*
X3755253Y4915308D1*
X3769835Y4903070D1*
X3774447Y4898457D1*
X3774418Y5116851D1*
X3754059Y5133850D1*
X3739048Y5151425D1*
X3731277Y5163446D1*
X3716209Y5142343D1*
X3699866Y5126000D1*
X3681167Y5112415D1*
X3660574Y5101922D1*
X3638593Y5094780D1*
X3615765Y5091164D1*
X3592652D1*
X3569824Y5094780D1*
X3547843Y5101922D1*
X3527250Y5112415D1*
X3508551Y5126000D1*
X3492208Y5142343D1*
X3477277Y5163446D1*
X3462209Y5142343D1*
X3445866Y5126000D1*
X3427167Y5112415D1*
X3406574Y5101922D1*
X3384593Y5094780D1*
X3361765Y5091164D1*
X3338652D1*
X3315824Y5094780D1*
X3293843Y5101922D1*
X3273250Y5112415D1*
X3254551Y5126000D1*
X3238208Y5142343D1*
X3223277Y5163446D1*
X3209824Y5144268D1*
X3196786Y5130397D1*
X3182068Y5118323D1*
X3165915Y5108249D1*
X3148598Y5100342D1*
X3130406Y5094735D1*
X3111643Y5091521D1*
X3092621Y5090754D1*
X3073660Y5092446D1*
X3055075Y5096570D1*
X3037178Y5103057D1*
X3020266Y5111797D1*
X3004623Y5122646D1*
X2990510Y5135422D1*
X2978163Y5149911D1*
X2969238Y5163416D1*
X2954209Y5142343D1*
X2937866Y5126000D1*
X2919167Y5112415D1*
X2898574Y5101922D1*
X2876593Y5094780D1*
X2853765Y5091164D1*
X2830652D1*
X2807824Y5094780D1*
X2785843Y5101922D1*
X2765250Y5112415D1*
X2746551Y5126000D1*
X2730208Y5142343D1*
X2715277Y5163446D1*
X2700209Y5142343D1*
X2683866Y5126000D1*
X2665167Y5112415D1*
X2644574Y5101922D1*
X2622593Y5094780D1*
X2599765Y5091164D1*
X2576652D1*
X2553824Y5094780D1*
X2531843Y5101922D1*
X2511250Y5112415D1*
X2492551Y5126000D1*
X2476208Y5142343D1*
X2461277Y5163446D1*
X2446209Y5142343D1*
X2429866Y5126000D1*
X2411167Y5112415D1*
X2390574Y5101922D1*
X2368593Y5094780D1*
X2345765Y5091164D1*
X2322652D1*
X2299824Y5094780D1*
X2277843Y5101922D1*
X2257250Y5112415D1*
X2238551Y5126000D1*
X2222208Y5142343D1*
X2207277Y5163446D1*
X2192209Y5142343D1*
X2175866Y5126000D1*
X2157167Y5112415D1*
X2136574Y5101922D1*
X2114593Y5094780D1*
X2091765Y5091164D1*
X2068652D1*
X2045824Y5094780D1*
X2023843Y5101922D1*
X2003250Y5112415D1*
X1984551Y5126000D1*
X1968208Y5142343D1*
X1953277Y5163446D1*
X1938209Y5142343D1*
X1921866Y5126000D1*
X1903167Y5112415D1*
X1882574Y5101922D1*
X1860593Y5094780D1*
X1837765Y5091164D1*
X1814652D1*
X1791824Y5094780D1*
X1769843Y5101922D1*
X1749250Y5112415D1*
X1730551Y5126000D1*
X1714208Y5142343D1*
X1699277Y5163446D1*
X1684209Y5142343D1*
X1667866Y5126000D1*
X1649167Y5112415D1*
X1628574Y5101922D1*
X1606593Y5094780D1*
X1583765Y5091164D1*
X1560652D1*
X1537824Y5094780D1*
X1515843Y5101922D1*
X1495250Y5112415D1*
X1476551Y5126000D1*
X1465513Y5136604D1*
X1465499Y5090710D1*
X1170919D1*
Y5385290D1*
X1234543D1*
X1234677Y5435167D1*
X1238519Y5454486D1*
X1246766Y5472374D1*
X1258960Y5487842D1*
X1259583Y5488418D1*
X1283077Y5511959D1*
X1283028Y5534062D1*
X1286239Y5554332D1*
X1292581Y5573851D1*
X1301898Y5592138D1*
X1305308Y5597241D1*
X1287235Y5591675D1*
X1268458Y5588547D1*
X1249431Y5587954D1*
X1230496Y5589906D1*
X1211991Y5594368D1*
X1194246Y5601261D1*
X1177581Y5610460D1*
X1162293Y5621801D1*
X1148655Y5635082D1*
X1136912Y5650064D1*
X1127274Y5666479D1*
X1119913Y5684034D1*
X1114962Y5702415D1*
X1112508Y5721292D1*
X1112596Y5740327D1*
X1115224Y5759181D1*
X1120345Y5777515D1*
X1127868Y5795001D1*
X1137657Y5811327D1*
X1149538Y5826200D1*
X1163298Y5839354D1*
X1178691Y5850553D1*
X1195441Y5859598D1*
X1213248Y5866326D1*
X1231794Y5870616D1*
X1250746Y5872393D1*
X1269767Y5871624D1*
X1288514Y5868323D1*
X1306653Y5862550D1*
X1323859Y5854406D1*
X1339824Y5844039D1*
X1354262Y5831634D1*
X1366916Y5817412D1*
X1377557Y5801629D1*
X1385997Y5784566D1*
X1392083Y5766529D1*
X1395708Y5747842D1*
X1396670Y5723805D1*
X1394551Y5704888D1*
X1389925Y5686423D1*
X1382876Y5668740D1*
X1373530Y5652157D1*
X1370143Y5647232D1*
X1392955Y5652980D1*
X1413415Y5654590D1*
X1433875Y5652980D1*
X1453831Y5648189D1*
X1472793Y5640335D1*
X1490292Y5629611D1*
X1505898Y5616282D1*
X1519226Y5600676D1*
X1529950Y5583177D1*
X1537804Y5564216D1*
X1542595Y5544260D1*
X1543750Y5534500D1*
X1739132Y5729915D1*
X1730899Y5741433D1*
X1715188Y5721526D1*
X1701359Y5708442D1*
X1686005Y5697186D1*
X1669367Y5687934D1*
X1651705Y5680829D1*
X1633294Y5675984D1*
X1614423Y5673473D1*
X1595386Y5673337D1*
X1576481Y5675577D1*
X1558002Y5680158D1*
X1540240Y5687008D1*
X1523471Y5696021D1*
X1507958Y5707056D1*
X1493943Y5719940D1*
X1481645Y5734472D1*
X1471255Y5750425D1*
X1462938Y5767550D1*
X1456822Y5785578D1*
X1453003Y5804229D1*
X1451541Y5823210D1*
X1452458Y5842226D1*
X1455741Y5860978D1*
X1461338Y5879174D1*
X1465426Y5888888D1*
X1111832Y5888873D1*
X1111873Y3539332D1*
X3139778Y3536706D1*
X3139768Y3769140D1*
X3171518D1*
X3647452Y4650788D2*
X3626925Y4655170D1*
X3609028Y4661657D1*
X3592116Y4670397D1*
X3576473Y4681246D1*
X3561364Y4695094D1*
X3561349Y4649310D1*
X3266769D1*
Y4712934D1*
X3240656Y4692450D1*
X3179881Y4631676D1*
X3179999Y4597171D1*
X3200358Y4580150D1*
X3215369Y4562575D1*
X3223140Y4550554D1*
X3238208Y4571657D1*
X3254551Y4588000D1*
X3273250Y4601585D1*
X3293843Y4612078D1*
X3315824Y4619220D1*
X3338652Y4622836D1*
X3361765D1*
X3384593Y4619220D1*
X3406574Y4612078D1*
X3427167Y4601585D1*
X3445866Y4588000D1*
X3462209Y4571657D1*
X3477140Y4550554D1*
X3492208Y4571657D1*
X3508551Y4588000D1*
X3527250Y4601585D1*
X3547843Y4612078D1*
X3569824Y4619220D1*
X3592652Y4622836D1*
X3615765D1*
X3638593Y4619220D1*
X3647419Y4616731D1*
X3647418Y4650696D1*
X4568519Y5642390D2*
X4582533D1*
X4566013Y5661011D1*
X4555638Y5676972D1*
X4547407Y5694138D1*
X4541460Y5712221D1*
X4537895Y5730921D1*
X4536771Y5749925D1*
X4538107Y5768915D1*
X4541882Y5787573D1*
X4548032Y5805589D1*
X4556454Y5822662D1*
X4567007Y5838505D1*
X4579516Y5852856D1*
X4593771Y5865472D1*
X4609535Y5876145D1*
X4626543Y5884696D1*
X4637755Y5888908D1*
X2518116Y5888876D1*
X2518105Y5673103D1*
X2438854D1*
X2429530Y5659783D1*
X2377619Y5607507D1*
X2521565Y5607590D1*
X2636223Y5722225D1*
X2636232Y5872443D1*
X2920812D1*
Y5718282D1*
X3007337Y5631856D1*
X3118202Y5631963D1*
X3118305Y5882443D1*
X3422885D1*
Y5843376D1*
X3435081Y5853359D1*
X3455457Y5865845D1*
X3477535Y5874990D1*
X3500772Y5880568D1*
X3524595Y5882443D1*
X3548419Y5880568D1*
X3571655Y5874990D1*
X3593733Y5865845D1*
X3614109Y5853359D1*
X3632280Y5837839D1*
X3647800Y5819667D1*
X3651511Y5814113D1*
X3665745Y5832413D1*
X3679385Y5845694D1*
X3694576Y5857169D1*
X3711079Y5866659D1*
X3728638Y5874016D1*
X3746977Y5879125D1*
X3765810Y5881906D1*
X3784844Y5882315D1*
X3803779Y5880347D1*
X3822321Y5876031D1*
X3840180Y5869436D1*
X3857076Y5860664D1*
X3872746Y5849852D1*
X3886944Y5837170D1*
X3899450Y5822816D1*
X3910066Y5807014D1*
X3918629Y5790010D1*
X3925002Y5772071D1*
X3929088Y5753477D1*
X3930885Y5730153D1*
X3929695Y5711153D1*
X3926144Y5692450D1*
X3920287Y5674335D1*
X3912216Y5657093D1*
X3902056Y5640993D1*
X3894941Y5631920D1*
X3916917Y5649834D1*
X4086764Y5819278D1*
X4098480Y5827790D1*
X4111384Y5834365D1*
X4125157Y5838840D1*
X4139461Y5841106D1*
X4148810Y5841390D1*
X4168060Y5853606D1*
X4185064Y5860649D1*
X4202960Y5864946D1*
X4221344Y5866389D1*
X4330511Y5866028D1*
X4348689Y5863149D1*
X4366193Y5857462D1*
X4382592Y5849106D1*
X4397482Y5838288D1*
X4410496Y5825274D1*
X4421315Y5810384D1*
X4429670Y5793985D1*
X4435358Y5776481D1*
X4438237Y5758302D1*
Y5739898D1*
X4435358Y5721719D1*
X4429670Y5704215D1*
X4419896Y5685692D1*
X4430144Y5665823D1*
X4435782Y5647648D1*
X4438407Y5628801D1*
X4437912Y5609425D1*
X4434327Y5590736D1*
X4430336Y5578869D1*
X4536843Y5578890D1*
X4536769Y5642390D1*
X4568519D1*
X4785684D2*
X4831349D1*
Y5587447D1*
X4922769Y5587760D1*
Y5764390D1*
X5207349D1*
Y5710241D1*
X5218444Y5722714D1*
X5235422Y5737215D1*
X5254460Y5748881D1*
X5275088Y5757426D1*
X5296799Y5762638D1*
X5319058Y5764390D1*
X5341318Y5762638D1*
X5363028Y5757426D1*
X5383657Y5748881D1*
X5402694Y5737215D1*
X5419673Y5722714D1*
X5434173Y5705736D1*
X5446041Y5686262D1*
X5457943Y5705736D1*
X5472444Y5722714D1*
X5489422Y5737215D1*
X5508460Y5748881D1*
X5529088Y5757426D1*
X5550799Y5762638D1*
X5573058Y5764390D1*
X5595318Y5762638D1*
X5617028Y5757426D1*
X5637657Y5748881D1*
X5656694Y5737215D1*
X5673673Y5722714D1*
X5688173Y5705736D1*
X5700041Y5686262D1*
X5711943Y5705736D1*
X5726444Y5722714D1*
X5743422Y5737215D1*
X5762460Y5748881D1*
X5783088Y5757426D1*
X5804799Y5762638D1*
X5827058Y5764390D1*
X5849318Y5762638D1*
X5873854Y5756384D1*
X5873819Y5888883D1*
X4732029Y5888359D1*
X4749590Y5881009D1*
X4766056Y5871455D1*
X4781152Y5859858D1*
X4794626Y5846410D1*
X4806253Y5831336D1*
X4815839Y5814889D1*
X4823224Y5797343D1*
X4828283Y5778991D1*
X4830934Y5760140D1*
X4830801Y5736416D1*
X4827940Y5717595D1*
X4822675Y5699301D1*
X4815094Y5681839D1*
X4805324Y5665500D1*
X4793529Y5650558D1*
X4785541Y5642380D1*
X4536769Y5359344D2*
Y5411434D1*
X4407610Y5411310D1*
X4385861Y5390661D1*
X4376389Y5384928D1*
X4400593Y5381220D1*
X4422574Y5374078D1*
X4443167Y5363585D1*
X4461866Y5350000D1*
X4478209Y5333657D1*
X4493140Y5312554D1*
X4508208Y5333657D1*
X4524551Y5350000D1*
X4536751Y5359243D1*
X3994513Y3537327D2*
X4016642Y3539063D1*
X4038901Y3537312D1*
X4048018Y3535498D1*
X4360664Y3535125D1*
X4353648Y3559262D1*
X4351195Y3578139D1*
X4351283Y3597174D1*
X4353911Y3616028D1*
X4359032Y3634362D1*
X4366555Y3651848D1*
X4376344Y3668174D1*
X4388225Y3683046D1*
X4401985Y3696200D1*
X4417378Y3707400D1*
X4428610Y3714219D1*
X4409572Y3725885D1*
X4392594Y3740386D1*
X4378174Y3757261D1*
X4356551Y3758241D1*
X4337593Y3763588D1*
X4320408Y3773212D1*
X4310410Y3781751D1*
X3921494Y4171033D1*
X3910551Y4187410D1*
X3903733Y4205890D1*
X3901418Y4225450D1*
X3901451Y4226297D1*
X3901418Y4335211D1*
X3881250Y4330523D1*
X3858208Y4328710D1*
X3835167Y4330523D1*
X3814998Y4335269D1*
Y4208999D1*
X3969546Y4054167D1*
X3980489Y4037790D1*
X3987307Y4019310D1*
X3989622Y3999750D1*
X3989589Y3998903D1*
X3989622Y3542228D1*
X2870788Y5382375D2*
X2887724Y5378081D1*
X2909077Y5369236D1*
X2928783Y5357160D1*
X2946358Y5342150D1*
X2961369Y5324575D1*
X2969140Y5312554D1*
X2983119Y5332367D1*
X2996235Y5346165D1*
X3011021Y5358156D1*
X3027229Y5368139D1*
X3044590Y5375949D1*
X3062814Y5381454D1*
X3081595Y5384563D1*
X3100620Y5385224D1*
X3119572Y5383425D1*
X3138133Y5379197D1*
X3155994Y5372611D1*
X3172856Y5363776D1*
X3188438Y5352839D1*
X3202479Y5339985D1*
X3214745Y5325426D1*
X3223195Y5312558D1*
X3238208Y5333657D1*
X3254551Y5350000D1*
X3273250Y5363585D1*
X3293843Y5374078D1*
X3315824Y5381220D1*
X3338652Y5384836D1*
X3361765D1*
X3384593Y5381220D1*
X3406574Y5374078D1*
X3427167Y5363585D1*
X3445866Y5350000D1*
X3462209Y5333657D1*
X3477140Y5312554D1*
X3492208Y5333657D1*
X3508551Y5350000D1*
X3527250Y5363585D1*
X3547843Y5374078D1*
X3569824Y5381220D1*
X3592652Y5384836D1*
X3615765D1*
X3638593Y5381220D1*
X3660574Y5374078D1*
X3681167Y5363585D1*
X3699866Y5350000D1*
X3716209Y5333657D1*
X3731140Y5312554D1*
X3746208Y5333657D1*
X3762551Y5350000D1*
X3781250Y5363585D1*
X3801843Y5374078D1*
X3823824Y5381220D1*
X3846652Y5384836D1*
X3869765D1*
X3892593Y5381220D1*
X3914574Y5374078D1*
X3935167Y5363585D1*
X3953866Y5350000D1*
X3970209Y5333657D1*
X3985140Y5312554D1*
X4000208Y5333657D1*
X4016551Y5350000D1*
X4035250Y5363585D1*
X4055843Y5374078D1*
X4077824Y5381220D1*
X4100652Y5384836D1*
X4123765D1*
X4146593Y5381220D1*
X4168574Y5374078D1*
X4189167Y5363585D1*
X4207866Y5350000D1*
X4224209Y5333657D1*
X4239140Y5312554D1*
X4254208Y5333657D1*
X4270551Y5350000D1*
X4289250Y5363585D1*
X4309843Y5374078D1*
X4320058Y5377847D1*
X4191029Y5378017D1*
X4175515Y5381103D1*
X4161149Y5387726D1*
X4148153Y5398140D1*
X4116869Y5430548D1*
X4109140Y5444349D1*
X4104847Y5459573D1*
X4104018Y5470100D1*
X4104847Y5530627D1*
X4109140Y5545851D1*
X4117521Y5560479D1*
X4116869Y5559652D1*
X4117752Y5567028D1*
X4110853Y5582753D1*
X3997213Y5469495D1*
X3985497Y5460983D1*
X3972593Y5454408D1*
X3958820Y5449933D1*
X3944516Y5447668D1*
X3715025Y5447383D1*
X2961761Y5447668D1*
X2947457Y5449933D1*
X2933684Y5454408D1*
X2920780Y5460983D1*
X2909064Y5469495D1*
X2870856Y5507301D1*
X2870812Y5382516D1*
X3541058Y3769016D2*
D13*
Y3621850D1*
X3688224D1*
X3541058Y4245266D2*
Y3950934D1*
Y4098100D2*
X3688224D1*
X3668058Y4943766D2*
Y4649434D1*
X4536892Y5749100D2*
X4831224D1*
X1254522Y5872319D2*
Y5587987D1*
X1112356Y5730153D2*
X1396688D1*
X3778595Y5882319D2*
Y5730153D1*
X3930761D1*
X1603815Y5825393D2*
Y5673227D1*
X1451649Y5825393D2*
X1603815D1*
X4351042Y3587000D2*
X4493208D1*
X5065058Y5764266D2*
Y5622100D1*
X4922893D2*
X5065058D1*
X3096208Y5385166D2*
Y5090834D1*
X2842208Y4623166D2*
Y4328834D1*
X4271308Y5622100D2*
X4438474D1*
D18*
X3287058Y3621850D3*
D19*
X3541058D3*
Y4098100D3*
D18*
X3287058D3*
D19*
X3668058Y4796600D3*
D18*
X3414058D3*
X4684058Y5495100D3*
D19*
Y5749100D3*
D20*
X2778522Y5730153D3*
D21*
X1762522Y2809153D3*
X2270522D3*
X1254522Y5730153D3*
D22*
X3524568Y1428480D3*
D23*
X3024568D3*
D22*
X5683835Y1475623D3*
D23*
X5183835D3*
D24*
X3270595Y5730153D3*
D25*
X3524595D3*
X3778595D3*
D24*
X2365815Y5825393D3*
D25*
X2111815D3*
X1857815D3*
X1603815D3*
D21*
X4016642Y3396773D3*
Y3142773D3*
Y2126773D3*
Y1364773D3*
X4493208Y3841000D3*
Y3587000D3*
Y2571000D3*
Y1809000D3*
D20*
X5065058Y5622100D3*
D21*
Y5368100D3*
X5319058Y5622100D3*
Y5368100D3*
X5573058Y5622100D3*
Y5368100D3*
X5827058Y5622100D3*
Y5368100D3*
D26*
X1413415Y5523800D3*
D27*
X2175415D3*
D28*
X1254682Y1984047D3*
D29*
X2778682D3*
D28*
X1254682Y2365007D3*
D29*
X2778682D3*
D18*
X1318208Y5238000D3*
D19*
X1572208D3*
X1826208D3*
X2080208D3*
X2334208D3*
X2588208D3*
X2842208D3*
X3096208D3*
X3350208D3*
X3604208D3*
X3858208D3*
X4112208D3*
X4366208D3*
X4620208D3*
Y4476000D3*
X4366208D3*
X4112208D3*
X3858208D3*
X3604208D3*
X3350208D3*
X3096208D3*
X2842208D3*
X2588208D3*
X2334208D3*
X2080208D3*
X1826208D3*
X1572208D3*
X1318208D3*
D67*
X4271308Y5495100D3*
D30*
Y5622100D3*
Y5749100D3*
D31*
X2207082Y1285620D3*
X1457082Y1465620D3*
M02*
