G04 DipTrace 3.0.0.2*
G04 BottomMask.gbr*
%MOMM*%
G04 #@! TF.FileFunction,Soldermask,Bot*
G04 #@! TF.Part,Single*
%AMOUTLINE1*
4,1,8,
0.79142,-0.6,
1.1,-0.29142,
1.1,0.29142,
0.79142,0.6,
-0.79142,0.6,
-1.1,0.29142,
-1.1,-0.29142,
-0.79142,-0.6,
0.79142,-0.6,
0*%
%ADD24R,1.7X1.7*%
%ADD25C,1.7*%
%ADD31C,1.9*%
%ADD42C,2.1*%
%ADD43O,2.2X1.2*%
%ADD45C,1.978*%
%ADD47C,1.978*%
%ADD49C,1.47*%
%ADD51C,1.47*%
%ADD53R,1.9X1.9*%
%ADD54R,2.5X2.5*%
%ADD56C,2.5*%
%ADD59C,1.8*%
%ADD61R,1.8X1.8*%
%ADD68OUTLINE1*%
%FSLAX35Y35*%
G04*
G71*
G90*
G75*
G01*
G04 BotMask*
%LPD*%
D61*
X3287058Y3621850D3*
D59*
X3541058D3*
Y4098100D3*
D61*
X3287058D3*
D59*
X3668058Y4796600D3*
D61*
X3414058D3*
X4684058Y5495100D3*
D59*
Y5749100D3*
D24*
X2778522Y5730153D3*
D25*
X1762522Y2809153D3*
X2270522D3*
X1254522Y5730153D3*
D56*
X3524568Y1428480D3*
D54*
X3024568D3*
D56*
X5683835Y1475623D3*
D54*
X5183835D3*
D53*
X3270595Y5730153D3*
D31*
X3524595D3*
X3778595D3*
D53*
X2365815Y5825393D3*
D31*
X2111815D3*
X1857815D3*
X1603815D3*
D25*
X4016642Y3396773D3*
Y3142773D3*
Y2126773D3*
Y1364773D3*
X4493208Y3841000D3*
Y3587000D3*
Y2571000D3*
Y1809000D3*
D24*
X5065058Y5622100D3*
D25*
Y5368100D3*
X5319058Y5622100D3*
Y5368100D3*
X5573058Y5622100D3*
Y5368100D3*
X5827058Y5622100D3*
Y5368100D3*
D51*
X1413415Y5523800D3*
D49*
X2175415D3*
D47*
X1254682Y1984047D3*
D45*
X2778682D3*
D47*
X1254682Y2365007D3*
D45*
X2778682D3*
D61*
X1318208Y5238000D3*
D59*
X1572208D3*
X1826208D3*
X2080208D3*
X2334208D3*
X2588208D3*
X2842208D3*
X3096208D3*
X3350208D3*
X3604208D3*
X3858208D3*
X4112208D3*
X4366208D3*
X4620208D3*
Y4476000D3*
X4366208D3*
X4112208D3*
X3858208D3*
X3604208D3*
X3350208D3*
X3096208D3*
X2842208D3*
X2588208D3*
X2334208D3*
X2080208D3*
X1826208D3*
X1572208D3*
X1318208D3*
D68*
X4271308Y5495100D3*
D43*
Y5622100D3*
Y5749100D3*
D42*
X2207082Y1285620D3*
X1457082Y1465620D3*
M02*
