G04 DipTrace 3.0.0.2*
G04 BottomSilk.gbr*
%MOMM*%
G04 #@! TF.FileFunction,Legend,Bot*
G04 #@! TF.Part,Single*
%ADD10C,0.25*%
%ADD12C,0.076*%
%ADD63C,0.19608*%
%ADD64C,0.11765*%
%ADD65C,0.23529*%
%FSLAX35Y35*%
G04*
G71*
G90*
G75*
G01*
G04 BotSilk*
%LPD*%
X2492860Y5952406D2*
D10*
X1476770D1*
Y5698393D1*
X2492860D1*
Y5952406D1*
X4938058Y5749100D2*
X5954058D1*
X4938058Y5241100D2*
X5954058D1*
X4938058Y5749100D2*
Y5241100D1*
X5954058Y5749100D2*
Y5241100D1*
X1590834Y5447600D2*
Y5600000D1*
X1997996Y5447600D2*
X1590834D1*
X1997996D2*
Y5600000D1*
X1590834D1*
X1169208Y5117004D2*
X4769208D1*
X1169208Y4596996D2*
X4769208D1*
Y5117004D2*
Y4596996D1*
X1169208Y5117004D2*
Y4917022D1*
Y4596996D2*
Y4796978D1*
Y4917022D2*
G02X1169208Y4796978I-263J-60022D01*
G01*
X4697175Y3407850D2*
D12*
X5897975D1*
X4684301Y3400250D2*
X5910849D1*
X4673982Y3392650D2*
X5921169D1*
X4665580Y3385050D2*
X4674375D1*
X5920775D2*
X5929570D1*
X4661993Y3377450D2*
X4670338D1*
X5924813D2*
X5933157D1*
X4659175Y3369850D2*
X4666775D1*
X5928375D2*
X5935975D1*
X4697175Y3347050D2*
X5897975D1*
X4697175Y3339450D2*
X5897975D1*
X4697175Y3331850D2*
X5897975D1*
X4697175Y3324250D2*
X5897975D1*
X4697175Y3316650D2*
X5897975D1*
X4697175Y3309050D2*
X5099975D1*
X5495175D2*
X5897975D1*
X4697175Y3301450D2*
X5099975D1*
X5495175D2*
X5897975D1*
X4697175Y3293850D2*
X5008775D1*
X5229175D2*
X5381175D1*
X5586375D2*
X5897975D1*
X4697175Y3286250D2*
X5008775D1*
X5229175D2*
X5381175D1*
X5586375D2*
X5897975D1*
X4697175Y3278650D2*
X4955575D1*
X5077175D2*
X5510375D1*
X5640050D2*
X5897975D1*
X4697175Y3271050D2*
X4902375D1*
X5001175D2*
X5593975D1*
X5692775D2*
X5897975D1*
X4697175Y3263450D2*
X4902375D1*
X5001175D2*
X5593975D1*
X5692775D2*
X5897975D1*
X4697175Y3255850D2*
X4871975D1*
X4940375D2*
X5654775D1*
X5723175D2*
X5897975D1*
X4697175Y3248250D2*
X4871975D1*
X4940375D2*
X5654775D1*
X5723175D2*
X5897975D1*
X4697175Y3240650D2*
X4841575D1*
X4902375D2*
X5682088D1*
X5744728D2*
X5897975D1*
X4697175Y3233050D2*
X4841575D1*
X4902375D2*
X5704197D1*
X5760894D2*
X5897975D1*
X4697175Y3225450D2*
X4818259D1*
X4874352D2*
X5725695D1*
X5775769D2*
X5897975D1*
X4697175Y3217850D2*
X4800843D1*
X4853520D2*
X4931571D1*
X5031575D2*
X5044426D1*
X5137975D2*
X5153175D1*
X5237950D2*
X5281201D1*
X5335575D2*
X5357201D1*
X5412720D2*
X5457175D1*
X5519150D2*
X5591626D1*
X5679924D2*
X5743383D1*
X5788676D2*
X5897975D1*
X4697175Y3210250D2*
X4788529D1*
X4838678D2*
X4929419D1*
X5031575D2*
X5040658D1*
X5137975D2*
X5153175D1*
X5239835D2*
X5279316D1*
X5335575D2*
X5355316D1*
X5414337D2*
X5457175D1*
X5521034D2*
X5587855D1*
X5683693D2*
X5757028D1*
X5794546D2*
X5897975D1*
X4697175Y3202650D2*
X4779664D1*
X4811175D2*
X4926483D1*
X5031575D2*
X5036722D1*
X5137975D2*
X5153175D1*
X5241822D2*
X5277349D1*
X5335575D2*
X5353289D1*
X5415336D2*
X5457175D1*
X5523002D2*
X5583881D1*
X5687569D2*
X5783975D1*
X5821975D2*
X5897975D1*
X4697175Y3195050D2*
X4772996D1*
X4811175D2*
X4923332D1*
X5031575D2*
X5034060D1*
X5137975D2*
X5153175D1*
X5243268D2*
X5276018D1*
X5335575D2*
X5351424D1*
X5414847D2*
X5457175D1*
X5524333D2*
X5580989D1*
X5690524D2*
X5783975D1*
X5825152D2*
X5897975D1*
X4697175Y3187450D2*
X4767020D1*
X4795975D2*
X4920677D1*
X5031575D2*
X5032644D1*
X5137975D2*
X5153175D1*
X5259575D2*
X5275311D1*
X5335575D2*
X5348780D1*
X5413605D2*
X5441975D1*
X5525098D2*
X5563575D1*
X5690168D2*
X5799175D1*
X5829392D2*
X5897975D1*
X4697175Y3179850D2*
X4760902D1*
X4790430D2*
X4919029D1*
X5031575D2*
X5031972D1*
X5137975D2*
X5153175D1*
X5262233D2*
X5274988D1*
X5335575D2*
X5344814D1*
X5412602D2*
X5441975D1*
X5525956D2*
X5560977D1*
X5686291D2*
X5804720D1*
X5834743D2*
X5897975D1*
X4697175Y3172250D2*
X4754980D1*
X4784397D2*
X4918190D1*
X4963175D2*
X4978375D1*
X5031575D2*
X5084775D1*
X5137975D2*
X5153175D1*
X5168375D2*
X5198775D1*
X5265029D2*
X5274855D1*
X5335575D2*
X5340745D1*
X5412031D2*
X5441975D1*
X5528026D2*
X5558715D1*
X5616775D2*
X5631975D1*
X5681853D2*
X5810753D1*
X5840354D2*
X5897975D1*
X4697175Y3164650D2*
X4749995D1*
X4777757D2*
X4917846D1*
X4963175D2*
X4978375D1*
X5031575D2*
X5084775D1*
X5137975D2*
X5153175D1*
X5168375D2*
X5202338D1*
X5268418D2*
X5274802D1*
X5335575D2*
X5337811D1*
X5411789D2*
X5441945D1*
X5531718D2*
X5557274D1*
X5614426D2*
X5631975D1*
X5677575D2*
X5817393D1*
X5845161D2*
X5897975D1*
X4697175Y3157050D2*
X4745922D1*
X4770679D2*
X4917962D1*
X4963175D2*
X4978375D1*
X5031575D2*
X5084775D1*
X5137975D2*
X5206375D1*
X5272933D2*
X5274775D1*
X5335575D2*
D3*
X5411942D2*
X5441678D1*
X5535634D2*
X5556530D1*
X5610658D2*
X5631975D1*
X5692775D2*
X5824471D1*
X5848657D2*
X5897975D1*
X4697175Y3149450D2*
X4741947D1*
X4764785D2*
X4918872D1*
X5031575D2*
X5046775D1*
X5137975D2*
X5153175D1*
X5213975D2*
X5221575D1*
X5277805D2*
X5282375D1*
X5412836D2*
X5440710D1*
X5538321D2*
X5556194D1*
X5606722D2*
X5631975D1*
X5684700D2*
X5830365D1*
X5850680D2*
X5897975D1*
X4697175Y3141850D2*
X4737309D1*
X4761155D2*
X4920672D1*
X5031575D2*
X5046775D1*
X5137975D2*
X5150577D1*
X5213975D2*
X5221575D1*
X5282375D2*
D3*
X5414373D2*
X5438889D1*
X5540000D2*
X5556057D1*
X5604060D2*
X5631975D1*
X5677575D2*
X5833996D1*
X5851670D2*
X5897975D1*
X4697175Y3134250D2*
X4732939D1*
X4759377D2*
X4922583D1*
X5031575D2*
X5046775D1*
X5137975D2*
X5148315D1*
X5213975D2*
X5221516D1*
X5415377D2*
X5436941D1*
X5487575D2*
D3*
X5541614D2*
X5556004D1*
X5602644D2*
X5631975D1*
X5684647D2*
X5835837D1*
X5852102D2*
X5897975D1*
X4697175Y3126650D2*
X4729879D1*
X4759125D2*
X4923639D1*
X5031575D2*
X5046775D1*
X5137975D2*
X5146874D1*
X5213975D2*
X5220937D1*
X5415168D2*
X5435586D1*
X5487575D2*
D3*
X5543701D2*
X5555985D1*
X5601972D2*
X5631975D1*
X5689346D2*
X5836684D1*
X5852245D2*
X5897975D1*
X4697175Y3119050D2*
X4742775D1*
X4760043D2*
X4923375D1*
X5031575D2*
X5046775D1*
X5137975D2*
X5146130D1*
X5213975D2*
X5219556D1*
X5267175D2*
X5282375D1*
X5415080D2*
X5434614D1*
X5487575D2*
D3*
X5545752D2*
X5555978D1*
X5616775D2*
X5631975D1*
X5677575D2*
X5821975D1*
X5852043D2*
X5897975D1*
X4697175Y3111450D2*
X4744009D1*
X4765242D2*
X4921876D1*
X5031575D2*
X5046775D1*
X5137975D2*
X5145794D1*
X5213975D2*
X5213634D1*
X5267145D2*
X5279777D1*
X5416573D2*
X5433323D1*
X5487575D2*
D3*
X5547175D2*
X5555976D1*
X5617955D2*
X5631975D1*
X5682712D2*
X5820801D1*
X5851038D2*
X5897975D1*
X4697175Y3103850D2*
X4746428D1*
X4771095D2*
X4920061D1*
X4978375D2*
D3*
X5031575D2*
X5084775D1*
X5137975D2*
X5145657D1*
X5206375D2*
D3*
X5266878D2*
X5277515D1*
X5358375D2*
D3*
X5419175D2*
X5431369D1*
X5548427D2*
X5555975D1*
X5619903D2*
X5631975D1*
X5687613D2*
X5818915D1*
X5848692D2*
X5897975D1*
X4697175Y3096250D2*
X4750362D1*
X4775754D2*
X4918787D1*
X4971359D2*
X4978375D1*
X5031575D2*
X5084775D1*
X5137975D2*
X5145604D1*
X5265910D2*
X5276074D1*
X5356026D2*
X5358375D1*
X5416102D2*
X5429369D1*
X5550691D2*
X5555975D1*
X5622185D2*
X5631975D1*
X5688868D2*
X5816928D1*
X5844779D2*
X5897975D1*
X4697175Y3088650D2*
X4755601D1*
X4778690D2*
X4918101D1*
X4966162D2*
X4978375D1*
X5031575D2*
X5084775D1*
X5137975D2*
X5145585D1*
X5264089D2*
X5275330D1*
X5352258D2*
X5358375D1*
X5416069D2*
X5428025D1*
X5554466D2*
X5555975D1*
X5624375D2*
X5631975D1*
X5685797D2*
X5815482D1*
X5839547D2*
X5897975D1*
X4697175Y3081050D2*
X4761262D1*
X4803575D2*
X4917785D1*
X4964576D2*
X4978375D1*
X5031575D2*
D3*
X5137975D2*
X5145608D1*
X5262052D2*
X5275024D1*
X5348292D2*
X5358375D1*
X5416096D2*
X5427255D1*
X5558415D2*
X5563575D1*
X5682305D2*
X5791575D1*
X5833888D2*
X5897975D1*
X4697175Y3073450D2*
X4766947D1*
X4807160D2*
X4917654D1*
X4963752D2*
X4978375D1*
X5031575D2*
X5032199D1*
X5137975D2*
X5145895D1*
X5259858D2*
X5275176D1*
X5345341D2*
X5358375D1*
X5415149D2*
X5426351D1*
X5561085D2*
X5563575D1*
X5679649D2*
X5787960D1*
X5828203D2*
X5897975D1*
X4697175Y3065850D2*
X4774145D1*
X4811949D2*
X4917603D1*
X4963394D2*
X4978375D1*
X5031575D2*
X5033594D1*
X5137975D2*
X5147069D1*
X5256930D2*
X5276298D1*
X5342750D2*
X5358375D1*
X5413699D2*
X5424802D1*
X5472375D2*
X5510375D1*
X5562504D2*
X5578775D1*
X5692775D2*
X5783083D1*
X5821005D2*
X5897975D1*
X4697175Y3058250D2*
X4784533D1*
X4823827D2*
X4917584D1*
X4963250D2*
X4978375D1*
X5031575D2*
X5039517D1*
X5137975D2*
X5149667D1*
X5247824D2*
X5278876D1*
X5339480D2*
X5358375D1*
X5412520D2*
X5418852D1*
X5472375D2*
X5510375D1*
X5563177D2*
X5585900D1*
X5685650D2*
X5770102D1*
X5810617D2*
X5897975D1*
X4697175Y3050650D2*
X4796835D1*
X4838152D2*
X4917575D1*
X4963175D2*
X4978375D1*
X5031575D2*
X5046775D1*
X5137975D2*
X5153175D1*
X5236775D2*
X5282375D1*
X5335575D2*
X5358375D1*
X5411575D2*
D3*
X5472375D2*
X5510375D1*
X5563575D2*
X5593975D1*
X5677575D2*
X5753953D1*
X5798315D2*
X5897975D1*
X4697175Y3043050D2*
X4807163D1*
X4852066D2*
X5738372D1*
X5787987D2*
X5897975D1*
X4697175Y3035450D2*
X4813897D1*
X4866711D2*
X5723568D1*
X5781253D2*
X5897975D1*
X4697175Y3027850D2*
X4841575D1*
X4909975D2*
X5685175D1*
X5753575D2*
X5897975D1*
X4697175Y3020250D2*
X4841575D1*
X4909975D2*
X5685175D1*
X5753575D2*
X5897975D1*
X4697175Y3012650D2*
X4871975D1*
X4955575D2*
X5639575D1*
X5723175D2*
X5897975D1*
X4697175Y3005050D2*
X4871975D1*
X4955575D2*
X5639575D1*
X5723175D2*
X5897975D1*
X4697175Y2997450D2*
X4917575D1*
X5008775D2*
X5586375D1*
X5692775D2*
X5897975D1*
X4697175Y2989850D2*
X4917575D1*
X5008775D2*
X5586375D1*
X5692775D2*
X5897975D1*
X4697175Y2982250D2*
X4969825D1*
X5084775D2*
X5510375D1*
X5632450D2*
X5897975D1*
X4697175Y2974650D2*
X5023975D1*
X5236775D2*
X5350775D1*
X5571175D2*
X5897975D1*
X4697175Y2967050D2*
X5023975D1*
X5236775D2*
X5350775D1*
X5571175D2*
X5897975D1*
X4697175Y2959450D2*
X5107575D1*
X5487575D2*
X5897975D1*
X4697175Y2951850D2*
X5107575D1*
X5487575D2*
X5897975D1*
X4697175Y2944250D2*
X5897975D1*
X4697175Y2936650D2*
X5897975D1*
X4697175Y2929050D2*
X5897975D1*
X5335575Y2822650D2*
X5358375D1*
X5396375D2*
X5411575D1*
X5464775D2*
X5502775D1*
X5548375D2*
X5578775D1*
X5593975D2*
X5616775D1*
X5662375D2*
X5669975D1*
X5335575Y2815050D2*
X5358375D1*
X5396375D2*
X5411575D1*
X5456584D2*
X5507458D1*
X5548375D2*
X5578775D1*
X5593975D2*
X5616775D1*
X5662375D2*
X5669975D1*
X5335575Y2807450D2*
X5358375D1*
X5396375D2*
X5411575D1*
X5450334D2*
X5511525D1*
X5548375D2*
X5578775D1*
X5593975D2*
X5616775D1*
X5662375D2*
X5669975D1*
X5335575Y2799850D2*
X5358375D1*
X5396375D2*
X5411575D1*
X5446157D2*
X5514597D1*
X5548375D2*
X5578775D1*
X5593975D2*
X5616775D1*
X5662375D2*
X5669975D1*
X5335575Y2792250D2*
X5358375D1*
X5396375D2*
X5411575D1*
X5443840D2*
X5516418D1*
X5548375D2*
X5578775D1*
X5593975D2*
X5616775D1*
X5662375D2*
X5669975D1*
X5335575Y2784650D2*
X5358375D1*
X5396375D2*
X5411575D1*
X5442685D2*
X5464775D1*
X5495175D2*
X5517382D1*
X5548375D2*
X5578775D1*
X5593975D2*
X5616775D1*
X5662375D2*
X5669975D1*
X5335575Y2777050D2*
X5358375D1*
X5396375D2*
X5411575D1*
X5441975D2*
X5464775D1*
X5495175D2*
X5518314D1*
X5548375D2*
X5578775D1*
X5593975D2*
X5616775D1*
X5662375D2*
X5669975D1*
X4909975Y2769450D2*
X4932775D1*
X5335575D2*
X5411575D1*
X5510375D2*
X5520412D1*
X5548375D2*
X5578775D1*
X5593975D2*
X5669975D1*
X4907318Y2761850D2*
X4938001D1*
X5335575D2*
X5411575D1*
X5510375D2*
X5524113D1*
X5548375D2*
X5578775D1*
X5593975D2*
X5669975D1*
X4904521Y2754250D2*
X4942792D1*
X5335575D2*
X5411575D1*
X5510375D2*
X5528032D1*
X5548375D2*
X5578775D1*
X5593975D2*
X5669975D1*
X4901143Y2746650D2*
X4946642D1*
X5335575D2*
X5411575D1*
X5441975D2*
X5479975D1*
X5510375D2*
X5530691D1*
X5548375D2*
X5578775D1*
X5593975D2*
X5669975D1*
X4896758Y2739050D2*
X4949951D1*
X5335575D2*
X5411575D1*
X5441975D2*
X5479975D1*
X5510375D2*
X5532103D1*
X5548375D2*
X5578775D1*
X5593975D2*
X5669975D1*
X4892496Y2731450D2*
X4917575D1*
X4932805D2*
X4952630D1*
X5335575D2*
X5411575D1*
X5441975D2*
X5479975D1*
X5510316D2*
X5532749D1*
X5548375D2*
X5578775D1*
X5593975D2*
X5669975D1*
X4889440Y2723850D2*
X4917575D1*
X4933131D2*
X4954765D1*
X5335575D2*
X5411575D1*
X5441975D2*
X5479975D1*
X5509737D2*
X5533025D1*
X5548375D2*
X5578775D1*
X5593975D2*
X5669975D1*
X4887010Y2716250D2*
X4902375D1*
X4933933D2*
X4957512D1*
X5335575D2*
X5358375D1*
X5396375D2*
X5411575D1*
X5441975D2*
X5464775D1*
X5508356D2*
X5517975D1*
X5548375D2*
X5578775D1*
X5593975D2*
X5616775D1*
X5662375D2*
X5669975D1*
X4884466Y2708650D2*
X4901201D1*
X4938216D2*
X4961543D1*
X5335575D2*
X5358375D1*
X5396375D2*
X5411575D1*
X5441975D2*
X5464775D1*
X5502434D2*
X5517945D1*
X5548375D2*
X5578775D1*
X5593975D2*
X5616775D1*
X5662375D2*
X5669975D1*
X4881710Y2701050D2*
X4899316D1*
X4943937D2*
X4965854D1*
X5335575D2*
X5358375D1*
X5396375D2*
X5411575D1*
X5441975D2*
X5464775D1*
X5495175D2*
X5517678D1*
X5548375D2*
X5578775D1*
X5593975D2*
X5616775D1*
X5662375D2*
X5669975D1*
X4878343Y2693450D2*
X4897289D1*
X4949222D2*
X4969529D1*
X5335605D2*
X5358375D1*
X5396375D2*
X5411575D1*
X5441975D2*
X5516680D1*
X5548375D2*
X5578716D1*
X5594005D2*
X5616745D1*
X5662375D2*
X5669975D1*
X4873959Y2685850D2*
X4895424D1*
X4952853D2*
X4972779D1*
X5335872D2*
X5358375D1*
X5396375D2*
X5411575D1*
X5441975D2*
X5514593D1*
X5548375D2*
X5578181D1*
X5594272D2*
X5616478D1*
X5662375D2*
X5669975D1*
X4869697Y2678250D2*
X4892780D1*
X4955556D2*
X4975439D1*
X5336846D2*
X5358375D1*
X5396375D2*
X5411575D1*
X5441975D2*
X5511670D1*
X5548375D2*
X5576934D1*
X5595246D2*
X5615504D1*
X5662375D2*
X5669975D1*
X4866641Y2670650D2*
X4888787D1*
X4958155D2*
X4977568D1*
X5338730D2*
X5358375D1*
X5396375D2*
X5411575D1*
X5441975D2*
X5508454D1*
X5548375D2*
X5572640D1*
X5597130D2*
X5613620D1*
X5662375D2*
X5669975D1*
X4864210Y2663050D2*
X4884490D1*
X4960422D2*
X4980313D1*
X5340992D2*
X5358375D1*
X5396375D2*
X5411575D1*
X5441975D2*
D3*
X5472375D2*
X5505448D1*
X5548375D2*
X5567984D1*
X5599392D2*
X5611358D1*
X5662375D2*
X5669975D1*
X4861696Y2655450D2*
X4880819D1*
X4961874D2*
X4984343D1*
X5343175D2*
X5358375D1*
X5396375D2*
X5411575D1*
X5441975D2*
D3*
X5472375D2*
X5502775D1*
X5548375D2*
X5563575D1*
X5601575D2*
X5609175D1*
X5662375D2*
X5669975D1*
X4859207Y2647850D2*
X4877570D1*
X4962663D2*
X4988654D1*
X4856749Y2640250D2*
X4874911D1*
X4909975D2*
X4947975D1*
X4978375D2*
X4992329D1*
X4853651Y2632650D2*
X4872782D1*
X4910554D2*
X4947975D1*
X4978665D2*
X4995579D1*
X4849430Y2625050D2*
X4870037D1*
X4911816D2*
X4947975D1*
X4979639D2*
X4998209D1*
X4844326Y2617450D2*
X4866037D1*
X4915974D2*
X4947975D1*
X4981460D2*
X5000071D1*
X4839642Y2609850D2*
X4861963D1*
X4920000D2*
X4947975D1*
X4983469D2*
X5001848D1*
X4836382Y2602250D2*
X4858960D1*
X4922713D2*
X4948005D1*
X4985329D2*
X5004087D1*
X4833864Y2594650D2*
X4856294D1*
X4924398D2*
X4948272D1*
X4987970D2*
X5006717D1*
X4831286Y2587050D2*
X4852854D1*
X4926019D2*
X4949241D1*
X4991963D2*
X5010035D1*
X4828517Y2579450D2*
X4848816D1*
X4928171D2*
X4951061D1*
X4996261D2*
X5014400D1*
X4825145Y2571850D2*
X4845439D1*
X4887175D2*
X4902375D1*
X4930538D2*
X4953009D1*
X4999932D2*
X5018657D1*
X4820760Y2564250D2*
X4843371D1*
X4892371D2*
X4902375D1*
X4932775D2*
X4954335D1*
X5003180D2*
X5021711D1*
X4816497Y2556650D2*
X4842328D1*
X4896895D2*
X4955040D1*
X5005809D2*
X5024141D1*
X5191175D2*
X5259575D1*
X5312775D2*
X5350775D1*
X5419175D2*
X5434375D1*
X5472375D2*
X5555975D1*
X5601575D2*
X5616775D1*
X5669975D2*
X5707975D1*
X5745975D2*
X5768775D1*
X5806775D2*
X5837175D1*
X4813441Y2549050D2*
X4841851D1*
X4899806D2*
X4955362D1*
X5007671D2*
X5026625D1*
X5188577D2*
X5259575D1*
X5312775D2*
X5353403D1*
X5416577D2*
X5436973D1*
X5472375D2*
X5555975D1*
X5601575D2*
X5616775D1*
X5666798D2*
X5710863D1*
X5746265D2*
X5768775D1*
X5806486D2*
X5837175D1*
X4811010Y2541450D2*
X4826375D1*
X4901563D2*
X4955495D1*
X5009448D2*
X5028847D1*
X5186315D2*
X5259575D1*
X5297575D2*
X5355932D1*
X5414315D2*
X5439235D1*
X5472375D2*
X5555975D1*
X5601575D2*
X5616775D1*
X5662588D2*
X5714099D1*
X5747239D2*
X5768775D1*
X5805512D2*
X5821975D1*
X4808496Y2533850D2*
X4825201D1*
X4903202D2*
X4955548D1*
X5011687D2*
X5030283D1*
X5184868D2*
X5259575D1*
X5294977D2*
X5358341D1*
X5412874D2*
X5440735D1*
X5472375D2*
X5555975D1*
X5601575D2*
X5616775D1*
X5657504D2*
X5717420D1*
X5749060D2*
X5768775D1*
X5803690D2*
X5821975D1*
X4806007Y2526250D2*
X4823316D1*
X4905297D2*
X4916081D1*
X4955575D2*
D3*
X5014317D2*
X5031066D1*
X5184084D2*
X5259575D1*
X5292715D2*
X5360906D1*
X5412130D2*
X5442014D1*
X5472375D2*
X5555975D1*
X5601575D2*
X5616775D1*
X5652862D2*
X5720648D1*
X5751009D2*
X5768775D1*
X5801741D2*
X5821975D1*
X4803608Y2518650D2*
X4821349D1*
X4907351D2*
X4920526D1*
X5017635D2*
X5046775D1*
X5236775D2*
X5259575D1*
X5291274D2*
X5311595D1*
X5343175D2*
X5363190D1*
X5411794D2*
X5444287D1*
X5495175D2*
X5533175D1*
X5601575D2*
X5616775D1*
X5649875D2*
X5669975D1*
X5702724D2*
X5724246D1*
X5752335D2*
X5783975D1*
X5800415D2*
X5821975D1*
X4801045Y2511050D2*
X4820017D1*
X4908715D2*
X4923071D1*
X5022000D2*
X5047065D1*
X5236775D2*
X5259575D1*
X5290528D2*
X5309647D1*
X5343175D2*
X5364653D1*
X5411657D2*
X5448065D1*
X5500371D2*
X5533175D1*
X5601575D2*
X5616775D1*
X5648328D2*
X5669975D1*
X5706493D2*
X5728729D1*
X5753040D2*
X5783975D1*
X5799711D2*
X5821975D1*
X4798701Y2503450D2*
X4819310D1*
X4909435D2*
X4924306D1*
X5026257D2*
X5048039D1*
X5236775D2*
X5259575D1*
X5290179D2*
X5307365D1*
X5343175D2*
X5365411D1*
X5411604D2*
X5452015D1*
X5504895D2*
X5533175D1*
X5601575D2*
X5616775D1*
X5647630D2*
X5669975D1*
X5710428D2*
X5733001D1*
X5753421D2*
X5783975D1*
X5799388D2*
X5821945D1*
X4796704Y2495850D2*
X4818974D1*
X4909775D2*
X4924869D1*
X5029311D2*
X5049860D1*
X5236775D2*
X5259575D1*
X5289975D2*
X5305175D1*
X5343175D2*
X5365752D1*
X5411585D2*
X5454685D1*
X5507777D2*
X5533175D1*
X5601575D2*
X5616775D1*
X5647345D2*
X5669945D1*
X5713090D2*
X5735805D1*
X5754089D2*
X5783975D1*
X5799255D2*
X5821678D1*
X4794009Y2488250D2*
X4803575D1*
X4925175D2*
X4925349D1*
X5031741D2*
X5051810D1*
X5191175D2*
X5259575D1*
X5343175D2*
X5365892D1*
X5396375D2*
X5456101D1*
X5509266D2*
X5517975D1*
X5601575D2*
X5616775D1*
X5647235D2*
X5669678D1*
X5714503D2*
X5737272D1*
X5756077D2*
X5783975D1*
X5799204D2*
X5820710D1*
X4789997Y2480650D2*
X4802401D1*
X4925205D2*
X4926457D1*
X5034284D2*
X5053141D1*
X5191175D2*
X5259575D1*
X5343175D2*
X5365946D1*
X5396375D2*
X5456777D1*
X5509937D2*
X5523171D1*
X5601575D2*
X5616775D1*
X5647196D2*
X5668739D1*
X5715149D2*
X5737938D1*
X5759737D2*
X5783975D1*
X5799184D2*
X5818889D1*
X4785693Y2473050D2*
X4800516D1*
X4925472D2*
X4928840D1*
X5037040D2*
X5053885D1*
X5191175D2*
X5259575D1*
X5282375D2*
X5312775D1*
X5343175D2*
X5365965D1*
X5396375D2*
X5429569D1*
X5441975D2*
X5457312D1*
X5510212D2*
X5527695D1*
X5601575D2*
X5616775D1*
X5647182D2*
X5667186D1*
X5715415D2*
X5738212D1*
X5763640D2*
X5783975D1*
X5799175D2*
X5816941D1*
X4782020Y2465450D2*
X4798519D1*
X4926446D2*
X4932747D1*
X5040408D2*
X5069575D1*
X5191175D2*
X5259575D1*
X5282375D2*
X5312745D1*
X5343175D2*
X5365972D1*
X5396345D2*
X5419703D1*
X5441975D2*
X5458383D1*
X5510317D2*
X5530577D1*
X5601545D2*
X5616775D1*
X5647177D2*
X5666206D1*
X5715459D2*
X5738258D1*
X5766294D2*
X5815615D1*
X4778771Y2457850D2*
X4796921D1*
X4928330D2*
X4937850D1*
X5044791D2*
X5069865D1*
X5191175D2*
X5259575D1*
X5282375D2*
X5312478D1*
X5343175D2*
X5365974D1*
X5396078D2*
X5411575D1*
X5441975D2*
X5460241D1*
X5510355D2*
X5532066D1*
X5601278D2*
X5616775D1*
X5647176D2*
X5666701D1*
X5714962D2*
X5737761D1*
X5767704D2*
X5814911D1*
X4776171Y2450250D2*
X4795246D1*
X4930592D2*
X4943119D1*
X5049053D2*
X5070839D1*
X5236775D2*
X5259575D1*
X5282375D2*
X5311504D1*
X5343175D2*
X5365945D1*
X5395110D2*
X5462203D1*
X5510368D2*
X5532737D1*
X5600304D2*
X5616775D1*
X5647175D2*
X5667945D1*
X5713732D2*
X5736532D1*
X5768349D2*
X5814588D1*
X4774576Y2442650D2*
X4793043D1*
X4932775D2*
X4947975D1*
X5052109D2*
X5072690D1*
X5236775D2*
X5259575D1*
X5282375D2*
X5309620D1*
X5343175D2*
X5365678D1*
X5393289D2*
X5463592D1*
X5510373D2*
X5533012D1*
X5598420D2*
X5616775D1*
X5647235D2*
X5668953D1*
X5709439D2*
X5732345D1*
X5768645D2*
X5814396D1*
X4773766Y2435050D2*
X4790427D1*
X5054540D2*
X5074906D1*
X5236775D2*
X5259575D1*
X5282375D2*
X5307358D1*
X5343175D2*
X5364710D1*
X5391341D2*
X5464833D1*
X5510374D2*
X5533117D1*
X5563575D2*
X5578775D1*
X5596158D2*
X5616775D1*
X5647769D2*
X5669560D1*
X5704784D2*
X5728052D1*
X5769015D2*
X5813810D1*
X4773392Y2427450D2*
X4787113D1*
X5057024D2*
X5077200D1*
X5236775D2*
X5259575D1*
X5282405D2*
X5305175D1*
X5343175D2*
X5362860D1*
X5390015D2*
X5467093D1*
X5510375D2*
X5533096D1*
X5563575D2*
X5578775D1*
X5593975D2*
X5616775D1*
X5649016D2*
X5669975D1*
X5700375D2*
X5724371D1*
X5770021D2*
X5812539D1*
X4757975Y2419850D2*
X4782746D1*
X5059247D2*
X5079725D1*
X5183575D2*
X5259575D1*
X5282672D2*
X5360644D1*
X5389311D2*
X5470867D1*
X5510375D2*
X5532575D1*
X5563575D2*
X5616775D1*
X5653463D2*
X5720866D1*
X5771854D2*
X5808378D1*
X4757975Y2412250D2*
X4778482D1*
X5060683D2*
X5081967D1*
X5184755D2*
X5259575D1*
X5283646D2*
X5358344D1*
X5388988D2*
X5410395D1*
X5449575D2*
X5474816D1*
X5510375D2*
X5531334D1*
X5563575D2*
X5616775D1*
X5658470D2*
X5717296D1*
X5773808D2*
X5804350D1*
X4757975Y2404650D2*
X4775460D1*
X5061466D2*
X5083158D1*
X5186703D2*
X5259575D1*
X5285530D2*
X5355754D1*
X5388855D2*
X5408447D1*
X5449575D2*
X5477497D1*
X5510375D2*
X5527040D1*
X5563575D2*
X5616775D1*
X5663050D2*
X5713814D1*
X5775140D2*
X5801655D1*
X4757975Y2397050D2*
X5082940D1*
X5188985D2*
X5259575D1*
X5287792D2*
X5289975D1*
X5312775D2*
X5353156D1*
X5388802D2*
X5406165D1*
X5449575D2*
X5478992D1*
X5510375D2*
X5522384D1*
X5563575D2*
X5616775D1*
X5666810D2*
X5710702D1*
X5775885D2*
X5800158D1*
X4757975Y2389450D2*
X5081397D1*
X5191175D2*
X5259575D1*
X5289975D2*
D3*
X5312775D2*
X5350775D1*
X5388775D2*
X5403975D1*
X5449575D2*
X5479975D1*
X5510375D2*
X5517975D1*
X5563575D2*
X5616775D1*
X5669975D2*
X5707975D1*
X5776375D2*
X5799175D1*
X4757975Y2381850D2*
X5079280D1*
X4757975Y2374250D2*
X5077175D1*
X4659175Y2260250D2*
X4666775D1*
X4659234Y2252650D2*
X4667950D1*
X4659813Y2245050D2*
X4669835D1*
X5928375D2*
X5935975D1*
X4661194Y2237450D2*
X4671822D1*
X5924839D2*
X5934016D1*
X4667117Y2229850D2*
X4673268D1*
X5922490D2*
X5928056D1*
X4674375Y2222250D2*
X5920775D1*
X4697175Y3407850D2*
X4684301Y3400250D1*
X4673982Y3392650D1*
X4665580Y3385050D1*
X4661993Y3377450D1*
X4659175Y3369850D1*
X5897975Y3407850D2*
X5910849Y3400250D1*
X5921169Y3392650D1*
X5929570Y3385050D1*
X5933157Y3377450D1*
X5935975Y3369850D1*
X4674375Y3385050D2*
X4670338Y3377450D1*
X4666775Y3369850D1*
X5920775Y3385050D2*
X5924813Y3377450D1*
X5928375Y3369850D1*
X4697175Y3347050D2*
Y3339450D1*
Y3331850D1*
Y3324250D1*
Y3316650D1*
Y3309050D1*
Y3301450D1*
Y3293850D1*
Y3286250D1*
Y3278650D1*
Y3271050D1*
Y3263450D1*
Y3255850D1*
Y3248250D1*
Y3240650D1*
Y3233050D1*
Y3225450D1*
Y3217850D1*
Y3210250D1*
Y3202650D1*
Y3195050D1*
Y3187450D1*
Y3179850D1*
Y3172250D1*
Y3164650D1*
Y3157050D1*
Y3149450D1*
Y3141850D1*
Y3134250D1*
Y3126650D1*
Y3119050D1*
Y3111450D1*
Y3103850D1*
Y3096250D1*
Y3088650D1*
Y3081050D1*
Y3073450D1*
Y3065850D1*
Y3058250D1*
Y3050650D1*
Y3043050D1*
Y3035450D1*
Y3027850D1*
Y3020250D1*
Y3012650D1*
Y3005050D1*
Y2997450D1*
Y2989850D1*
Y2982250D1*
Y2974650D1*
Y2967050D1*
Y2959450D1*
Y2951850D1*
Y2944250D1*
Y2936650D1*
Y2929050D1*
X5897975Y3347050D2*
Y3339450D1*
Y3331850D1*
Y3324250D1*
Y3316650D1*
Y3309050D1*
Y3301450D1*
Y3293850D1*
Y3286250D1*
Y3278650D1*
Y3271050D1*
Y3263450D1*
Y3255850D1*
Y3248250D1*
Y3240650D1*
Y3233050D1*
Y3225450D1*
Y3217850D1*
Y3210250D1*
Y3202650D1*
Y3195050D1*
Y3187450D1*
Y3179850D1*
Y3172250D1*
Y3164650D1*
Y3157050D1*
Y3149450D1*
Y3141850D1*
Y3134250D1*
Y3126650D1*
Y3119050D1*
Y3111450D1*
Y3103850D1*
Y3096250D1*
Y3088650D1*
Y3081050D1*
Y3073450D1*
Y3065850D1*
Y3058250D1*
Y3050650D1*
Y3043050D1*
Y3035450D1*
Y3027850D1*
Y3020250D1*
Y3012650D1*
Y3005050D1*
Y2997450D1*
Y2989850D1*
Y2982250D1*
Y2974650D1*
Y2967050D1*
Y2959450D1*
Y2951850D1*
Y2944250D1*
Y2936650D1*
Y2929050D1*
X5099975Y3316650D2*
Y3309050D1*
Y3301450D1*
X5495175Y3316650D2*
Y3309050D1*
Y3301450D1*
X5008775D2*
Y3293850D1*
Y3286250D1*
X4955575Y3278650D1*
X4902375Y3271050D1*
Y3263450D1*
Y3255850D1*
X4871975D1*
Y3248250D1*
Y3240650D1*
X4841575D1*
Y3233050D1*
X4818259Y3225450D1*
X4800843Y3217850D1*
X4788529Y3210250D1*
X4779664Y3202650D1*
X4772996Y3195050D1*
X4767020Y3187450D1*
X4760902Y3179850D1*
X4754980Y3172250D1*
X4749995Y3164650D1*
X4745922Y3157050D1*
X4741947Y3149450D1*
X4737309Y3141850D1*
X4732939Y3134250D1*
X4729879Y3126650D1*
X4727575Y3119050D1*
X4742775D1*
X4744009Y3111450D1*
X4746428Y3103850D1*
X4750362Y3096250D1*
X4755601Y3088650D1*
X4761262Y3081050D1*
X4766947Y3073450D1*
X4774145Y3065850D1*
X4784533Y3058250D1*
X4796835Y3050650D1*
X4807163Y3043050D1*
X4813897Y3035450D1*
X4818775Y3027850D1*
X4841575D1*
Y3020250D1*
Y3012650D1*
X4871975D1*
Y3005050D1*
Y2997450D1*
X4917575D1*
Y2989850D1*
X4969825Y2982250D1*
X5023975Y2974650D1*
Y2967050D1*
Y2959450D1*
X5107575D1*
Y2951850D1*
Y2944250D1*
X5229175Y3293850D2*
Y3286250D1*
Y3278650D1*
X5381175Y3293850D2*
Y3286250D1*
Y3278650D1*
X5586375Y3301450D2*
Y3293850D1*
Y3286250D1*
X5640050Y3278650D1*
X5692775Y3271050D1*
Y3263450D1*
Y3255850D1*
X5723175D1*
Y3248250D1*
Y3240650D1*
X5744728D1*
X5760894Y3233050D1*
X5775769Y3225450D1*
X5788676Y3217850D1*
X5794546Y3210250D1*
X5799175Y3202650D1*
X5821975D1*
X5825152Y3195050D1*
X5829392Y3187450D1*
X5834743Y3179850D1*
X5840354Y3172250D1*
X5845161Y3164650D1*
X5848657Y3157050D1*
X5850680Y3149450D1*
X5851670Y3141850D1*
X5852102Y3134250D1*
X5852245Y3126650D1*
X5852043Y3119050D1*
X5851038Y3111450D1*
X5848692Y3103850D1*
X5844779Y3096250D1*
X5839547Y3088650D1*
X5833888Y3081050D1*
X5828203Y3073450D1*
X5821005Y3065850D1*
X5810617Y3058250D1*
X5798315Y3050650D1*
X5787987Y3043050D1*
X5781253Y3035450D1*
X5776375Y3027850D1*
X5753575D1*
Y3020250D1*
Y3012650D1*
X5723175D1*
Y3005050D1*
Y2997450D1*
X5692775D1*
Y2989850D1*
X5632450Y2982250D1*
X5571175Y2974650D1*
Y2967050D1*
Y2959450D1*
X5487575D1*
Y2951850D1*
Y2944250D1*
X5077175Y3278650D2*
X5001175Y3271050D1*
Y3263450D1*
Y3255850D1*
X4940375D1*
Y3248250D1*
Y3240650D1*
X4902375D1*
Y3233050D1*
X4874352Y3225450D1*
X4853520Y3217850D1*
X4838678Y3210250D1*
X4825478Y3202650D1*
X4811175D1*
Y3195050D1*
Y3187450D1*
X4795975D1*
X4790430Y3179850D1*
X4784397Y3172250D1*
X4777757Y3164650D1*
X4770679Y3157050D1*
X4764785Y3149450D1*
X4761155Y3141850D1*
X4759377Y3134250D1*
X4759125Y3126650D1*
X4760043Y3119050D1*
X4765242Y3111450D1*
X4771095Y3103850D1*
X4775754Y3096250D1*
X4778690Y3088650D1*
X4780775Y3081050D1*
X4803575D1*
X4807160Y3073450D1*
X4811949Y3065850D1*
X4823827Y3058250D1*
X4838152Y3050650D1*
X4852066Y3043050D1*
X4866711Y3035450D1*
X4884342Y3027850D1*
X4909975D1*
Y3020250D1*
Y3012650D1*
X4955575D1*
Y3005050D1*
Y2997450D1*
X5008775D1*
Y2989850D1*
X5084775Y2982250D1*
X5510375Y3278650D2*
X5593975Y3271050D1*
Y3263450D1*
Y3255850D1*
X5654775D1*
Y3248250D1*
Y3240650D1*
X5682088D1*
X5704197Y3233050D1*
X5725695Y3225450D1*
X5743383Y3217850D1*
X5757028Y3210250D1*
X5769714Y3202650D1*
X5783975D1*
Y3195050D1*
Y3187450D1*
X5799175D1*
X5804720Y3179850D1*
X5810753Y3172250D1*
X5817393Y3164650D1*
X5824471Y3157050D1*
X5830365Y3149450D1*
X5833996Y3141850D1*
X5835837Y3134250D1*
X5836684Y3126650D1*
X5837175Y3119050D1*
X5821975D1*
X5820801Y3111450D1*
X5818915Y3103850D1*
X5816928Y3096250D1*
X5815482Y3088650D1*
X5814375Y3081050D1*
X5791575D1*
X5787960Y3073450D1*
X5783083Y3065850D1*
X5770102Y3058250D1*
X5753953Y3050650D1*
X5738372Y3043050D1*
X5723568Y3035450D1*
X5707208Y3027850D1*
X5685175D1*
Y3020250D1*
Y3012650D1*
X5639575D1*
Y3005050D1*
Y2997450D1*
X5586375D1*
Y2989850D1*
X5510375Y2982250D1*
X4932775Y3225450D2*
X4931571Y3217850D1*
X4929419Y3210250D1*
X4926483Y3202650D1*
X4923332Y3195050D1*
X4920677Y3187450D1*
X4919029Y3179850D1*
X4918190Y3172250D1*
X4917846Y3164650D1*
X4917962Y3157050D1*
X4918872Y3149450D1*
X4920672Y3141850D1*
X4922583Y3134250D1*
X4923639Y3126650D1*
X4923375Y3119050D1*
X4921876Y3111450D1*
X4920061Y3103850D1*
X4918787Y3096250D1*
X4918101Y3088650D1*
X4917785Y3081050D1*
X4917654Y3073450D1*
X4917603Y3065850D1*
X4917584Y3058250D1*
X4917575Y3050650D1*
X5031575Y3225450D2*
Y3217850D1*
Y3210250D1*
Y3202650D1*
Y3195050D1*
Y3187450D1*
Y3179850D1*
Y3172250D1*
Y3164650D1*
Y3157050D1*
Y3149450D1*
Y3141850D1*
Y3134250D1*
Y3126650D1*
Y3119050D1*
Y3111450D1*
Y3103850D1*
Y3096250D1*
Y3088650D1*
Y3081050D1*
Y3073450D1*
Y3065850D1*
Y3058250D1*
Y3050650D1*
X5046775Y3225450D2*
X5044426Y3217850D1*
X5040658Y3210250D1*
X5036722Y3202650D1*
X5034060Y3195050D1*
X5032644Y3187450D1*
X5031972Y3179850D1*
X5031575Y3172250D1*
X5084775D1*
Y3164650D1*
Y3157050D1*
Y3149450D1*
X5046775D1*
Y3141850D1*
Y3134250D1*
Y3126650D1*
Y3119050D1*
Y3111450D1*
Y3103850D1*
X5084775D1*
Y3096250D1*
Y3088650D1*
Y3081050D1*
X5031575D1*
X5032199Y3073450D1*
X5033594Y3065850D1*
X5039517Y3058250D1*
X5046775Y3050650D1*
X5137975Y3225450D2*
Y3217850D1*
Y3210250D1*
Y3202650D1*
Y3195050D1*
Y3187450D1*
Y3179850D1*
Y3172250D1*
Y3164650D1*
Y3157050D1*
Y3149450D1*
Y3141850D1*
Y3134250D1*
Y3126650D1*
Y3119050D1*
Y3111450D1*
Y3103850D1*
Y3096250D1*
Y3088650D1*
Y3081050D1*
Y3073450D1*
Y3065850D1*
Y3058250D1*
Y3050650D1*
X5153175Y3225450D2*
Y3217850D1*
Y3210250D1*
Y3202650D1*
Y3195050D1*
Y3187450D1*
Y3179850D1*
Y3172250D1*
Y3164650D1*
X5236775Y3225450D2*
X5237950Y3217850D1*
X5239835Y3210250D1*
X5241822Y3202650D1*
X5243268Y3195050D1*
X5244375Y3187450D1*
X5259575D1*
X5262233Y3179850D1*
X5265029Y3172250D1*
X5268418Y3164650D1*
X5272933Y3157050D1*
X5277805Y3149450D1*
X5282375Y3141850D1*
Y3225450D2*
X5281201Y3217850D1*
X5279316Y3210250D1*
X5277349Y3202650D1*
X5276018Y3195050D1*
X5275311Y3187450D1*
X5274988Y3179850D1*
X5274855Y3172250D1*
X5274802Y3164650D1*
X5274775Y3157050D1*
X5335575Y3225450D2*
Y3217850D1*
Y3210250D1*
Y3202650D1*
Y3195050D1*
Y3187450D1*
Y3179850D1*
Y3172250D1*
Y3164650D1*
Y3157050D1*
X5358375Y3225450D2*
X5357201Y3217850D1*
X5355316Y3210250D1*
X5353289Y3202650D1*
X5351424Y3195050D1*
X5348780Y3187450D1*
X5344814Y3179850D1*
X5340745Y3172250D1*
X5337811Y3164650D1*
X5335575Y3157050D1*
X5411575Y3225450D2*
X5412720Y3217850D1*
X5414337Y3210250D1*
X5415336Y3202650D1*
X5414847Y3195050D1*
X5413605Y3187450D1*
X5412602Y3179850D1*
X5412031Y3172250D1*
X5411789Y3164650D1*
X5411942Y3157050D1*
X5412836Y3149450D1*
X5414373Y3141850D1*
X5415377Y3134250D1*
X5415168Y3126650D1*
X5415080Y3119050D1*
X5416573Y3111450D1*
X5419175Y3103850D1*
X5416102Y3096250D1*
X5416069Y3088650D1*
X5416096Y3081050D1*
X5415149Y3073450D1*
X5413699Y3065850D1*
X5412520Y3058250D1*
X5411575Y3050650D1*
X5457175Y3225450D2*
Y3217850D1*
Y3210250D1*
Y3202650D1*
Y3195050D1*
Y3187450D1*
X5441975D1*
Y3179850D1*
Y3172250D1*
X5441945Y3164650D1*
X5441678Y3157050D1*
X5440710Y3149450D1*
X5438889Y3141850D1*
X5436941Y3134250D1*
X5435586Y3126650D1*
X5434614Y3119050D1*
X5433323Y3111450D1*
X5431369Y3103850D1*
X5429369Y3096250D1*
X5428025Y3088650D1*
X5427255Y3081050D1*
X5426351Y3073450D1*
X5424802Y3065850D1*
X5418852Y3058250D1*
X5411575Y3050650D1*
X5517975Y3225450D2*
X5519150Y3217850D1*
X5521034Y3210250D1*
X5523002Y3202650D1*
X5524333Y3195050D1*
X5525098Y3187450D1*
X5525956Y3179850D1*
X5528026Y3172250D1*
X5531718Y3164650D1*
X5535634Y3157050D1*
X5538321Y3149450D1*
X5540000Y3141850D1*
X5541614Y3134250D1*
X5543701Y3126650D1*
X5545752Y3119050D1*
X5547175Y3111450D1*
X5548427Y3103850D1*
X5550691Y3096250D1*
X5554466Y3088650D1*
X5558415Y3081050D1*
X5561085Y3073450D1*
X5562504Y3065850D1*
X5563177Y3058250D1*
X5563575Y3050650D1*
X5593975Y3225450D2*
X5591626Y3217850D1*
X5587855Y3210250D1*
X5583881Y3202650D1*
X5580989Y3195050D1*
X5578775Y3187450D1*
X5563575D1*
X5560977Y3179850D1*
X5558715Y3172250D1*
X5557274Y3164650D1*
X5556530Y3157050D1*
X5556194Y3149450D1*
X5556057Y3141850D1*
X5556004Y3134250D1*
X5555985Y3126650D1*
X5555978Y3119050D1*
X5555976Y3111450D1*
X5555975Y3103850D1*
Y3096250D1*
Y3088650D1*
X5677575Y3225450D2*
X5679924Y3217850D1*
X5683693Y3210250D1*
X5687569Y3202650D1*
X5690524Y3195050D1*
X5690168Y3187450D1*
X5686291Y3179850D1*
X5681853Y3172250D1*
X5677575Y3164650D1*
X5692775Y3157050D1*
X5684700Y3149450D1*
X5677575Y3141850D1*
X5684647Y3134250D1*
X5689346Y3126650D1*
X5692775Y3119050D1*
X5677575D1*
X5682712Y3111450D1*
X5687613Y3103850D1*
X5688868Y3096250D1*
X5685797Y3088650D1*
X5682305Y3081050D1*
X5679649Y3073450D1*
X5677575Y3065850D1*
X5692775D1*
X5685650Y3058250D1*
X5677575Y3050650D1*
X4963175Y3172250D2*
Y3164650D1*
Y3157050D1*
X4978375Y3172250D2*
Y3164650D1*
Y3157050D1*
X5168375Y3172250D2*
Y3164650D1*
X5198775Y3172250D2*
X5202338Y3164650D1*
X5206375Y3157050D1*
X5153175Y3149450D1*
X5150577Y3141850D1*
X5148315Y3134250D1*
X5146874Y3126650D1*
X5146130Y3119050D1*
X5145794Y3111450D1*
X5145657Y3103850D1*
X5145604Y3096250D1*
X5145585Y3088650D1*
X5145608Y3081050D1*
X5145895Y3073450D1*
X5147069Y3065850D1*
X5149667Y3058250D1*
X5153175Y3050650D1*
X5616775Y3172250D2*
X5614426Y3164650D1*
X5610658Y3157050D1*
X5606722Y3149450D1*
X5604060Y3141850D1*
X5602644Y3134250D1*
X5601972Y3126650D1*
X5601575Y3119050D1*
X5616775D1*
X5617955Y3111450D1*
X5619903Y3103850D1*
X5622185Y3096250D1*
X5624375Y3088650D1*
X5631975Y3172250D2*
Y3164650D1*
Y3157050D1*
Y3149450D1*
Y3141850D1*
Y3134250D1*
Y3126650D1*
Y3119050D1*
Y3111450D1*
Y3103850D1*
Y3096250D1*
Y3088650D1*
X5213975Y3149450D2*
Y3141850D1*
Y3134250D1*
Y3126650D1*
Y3119050D1*
Y3111450D1*
X5221575Y3149450D2*
Y3141850D1*
X5221516Y3134250D1*
X5220937Y3126650D1*
X5219556Y3119050D1*
X5213634Y3111450D1*
X5206375Y3103850D1*
X5487575Y3134250D2*
Y3126650D1*
Y3119050D1*
Y3111450D1*
X5267175Y3119050D2*
X5267145Y3111450D1*
X5266878Y3103850D1*
X5265910Y3096250D1*
X5264089Y3088650D1*
X5262052Y3081050D1*
X5259858Y3073450D1*
X5256930Y3065850D1*
X5247824Y3058250D1*
X5236775Y3050650D1*
X5282375Y3119050D2*
X5279777Y3111450D1*
X5277515Y3103850D1*
X5276074Y3096250D1*
X5275330Y3088650D1*
X5275024Y3081050D1*
X5275176Y3073450D1*
X5276298Y3065850D1*
X5278876Y3058250D1*
X5282375Y3050650D1*
X4978375Y3103850D2*
X4971359Y3096250D1*
X4966162Y3088650D1*
X4964576Y3081050D1*
X4963752Y3073450D1*
X4963394Y3065850D1*
X4963250Y3058250D1*
X4963175Y3050650D1*
X5358375Y3103850D2*
X5356026Y3096250D1*
X5352258Y3088650D1*
X5348292Y3081050D1*
X5345341Y3073450D1*
X5342750Y3065850D1*
X5339480Y3058250D1*
X5335575Y3050650D1*
X4978375Y3096250D2*
Y3088650D1*
Y3081050D1*
Y3073450D1*
Y3065850D1*
Y3058250D1*
Y3050650D1*
X5358375Y3081050D2*
Y3073450D1*
Y3065850D1*
Y3058250D1*
Y3050650D1*
X5472375Y3065850D2*
Y3058250D1*
Y3050650D1*
X5510375Y3065850D2*
Y3058250D1*
Y3050650D1*
X5578775Y3065850D2*
X5585900Y3058250D1*
X5593975Y3050650D1*
X5236775Y2982250D2*
Y2974650D1*
Y2967050D1*
X5350775Y2982250D2*
Y2974650D1*
Y2967050D1*
X5335575Y2822650D2*
Y2815050D1*
Y2807450D1*
Y2799850D1*
Y2792250D1*
Y2784650D1*
Y2777050D1*
Y2769450D1*
Y2761850D1*
Y2754250D1*
Y2746650D1*
Y2739050D1*
Y2731450D1*
Y2723850D1*
Y2716250D1*
Y2708650D1*
Y2701050D1*
X5335605Y2693450D1*
X5335872Y2685850D1*
X5336846Y2678250D1*
X5338730Y2670650D1*
X5340992Y2663050D1*
X5343175Y2655450D1*
X5358375Y2822650D2*
Y2815050D1*
Y2807450D1*
Y2799850D1*
Y2792250D1*
Y2784650D1*
Y2777050D1*
X5396375Y2822650D2*
Y2815050D1*
Y2807450D1*
Y2799850D1*
Y2792250D1*
Y2784650D1*
Y2777050D1*
X5411575Y2822650D2*
Y2815050D1*
Y2807450D1*
Y2799850D1*
Y2792250D1*
Y2784650D1*
Y2777050D1*
Y2769450D1*
Y2761850D1*
Y2754250D1*
Y2746650D1*
Y2739050D1*
Y2731450D1*
Y2723850D1*
Y2716250D1*
Y2708650D1*
Y2701050D1*
Y2693450D1*
Y2685850D1*
Y2678250D1*
Y2670650D1*
Y2663050D1*
Y2655450D1*
X5464775Y2822650D2*
X5456584Y2815050D1*
X5450334Y2807450D1*
X5446157Y2799850D1*
X5443840Y2792250D1*
X5442685Y2784650D1*
X5441975Y2777050D1*
X5502775Y2822650D2*
X5507458Y2815050D1*
X5511525Y2807450D1*
X5514597Y2799850D1*
X5516418Y2792250D1*
X5517382Y2784650D1*
X5518314Y2777050D1*
X5520412Y2769450D1*
X5524113Y2761850D1*
X5528032Y2754250D1*
X5530691Y2746650D1*
X5532103Y2739050D1*
X5532749Y2731450D1*
X5533025Y2723850D1*
X5533175Y2716250D1*
X5517975D1*
X5517945Y2708650D1*
X5517678Y2701050D1*
X5516680Y2693450D1*
X5514593Y2685850D1*
X5511670Y2678250D1*
X5508454Y2670650D1*
X5505448Y2663050D1*
X5502775Y2655450D1*
X5548375Y2822650D2*
Y2815050D1*
Y2807450D1*
Y2799850D1*
Y2792250D1*
Y2784650D1*
Y2777050D1*
Y2769450D1*
Y2761850D1*
Y2754250D1*
Y2746650D1*
Y2739050D1*
Y2731450D1*
Y2723850D1*
Y2716250D1*
Y2708650D1*
Y2701050D1*
Y2693450D1*
Y2685850D1*
Y2678250D1*
Y2670650D1*
Y2663050D1*
Y2655450D1*
X5578775Y2822650D2*
Y2815050D1*
Y2807450D1*
Y2799850D1*
Y2792250D1*
Y2784650D1*
Y2777050D1*
Y2769450D1*
Y2761850D1*
Y2754250D1*
Y2746650D1*
Y2739050D1*
Y2731450D1*
Y2723850D1*
Y2716250D1*
Y2708650D1*
Y2701050D1*
X5578716Y2693450D1*
X5578181Y2685850D1*
X5576934Y2678250D1*
X5572640Y2670650D1*
X5567984Y2663050D1*
X5563575Y2655450D1*
X5593975Y2822650D2*
Y2815050D1*
Y2807450D1*
Y2799850D1*
Y2792250D1*
Y2784650D1*
Y2777050D1*
Y2769450D1*
Y2761850D1*
Y2754250D1*
Y2746650D1*
Y2739050D1*
Y2731450D1*
Y2723850D1*
Y2716250D1*
Y2708650D1*
Y2701050D1*
X5594005Y2693450D1*
X5594272Y2685850D1*
X5595246Y2678250D1*
X5597130Y2670650D1*
X5599392Y2663050D1*
X5601575Y2655450D1*
X5616775Y2822650D2*
Y2815050D1*
Y2807450D1*
Y2799850D1*
Y2792250D1*
Y2784650D1*
Y2777050D1*
X5662375Y2822650D2*
Y2815050D1*
Y2807450D1*
Y2799850D1*
Y2792250D1*
Y2784650D1*
Y2777050D1*
X5669975Y2822650D2*
Y2815050D1*
Y2807450D1*
Y2799850D1*
Y2792250D1*
Y2784650D1*
Y2777050D1*
Y2769450D1*
Y2761850D1*
Y2754250D1*
Y2746650D1*
Y2739050D1*
Y2731450D1*
Y2723850D1*
Y2716250D1*
Y2708650D1*
Y2701050D1*
Y2693450D1*
Y2685850D1*
Y2678250D1*
Y2670650D1*
Y2663050D1*
Y2655450D1*
X5464775Y2792250D2*
Y2784650D1*
Y2777050D1*
X5495175Y2792250D2*
Y2784650D1*
Y2777050D1*
Y2769450D1*
X5510375D1*
Y2761850D1*
Y2754250D1*
Y2746650D1*
Y2739050D1*
X5510316Y2731450D1*
X5509737Y2723850D1*
X5508356Y2716250D1*
X5502434Y2708650D1*
X5495175Y2701050D1*
X4909975Y2769450D2*
X4907318Y2761850D1*
X4904521Y2754250D1*
X4901143Y2746650D1*
X4896758Y2739050D1*
X4892496Y2731450D1*
X4889440Y2723850D1*
X4887010Y2716250D1*
X4884466Y2708650D1*
X4881710Y2701050D1*
X4878343Y2693450D1*
X4873959Y2685850D1*
X4869697Y2678250D1*
X4866641Y2670650D1*
X4864210Y2663050D1*
X4861696Y2655450D1*
X4859207Y2647850D1*
X4856749Y2640250D1*
X4853651Y2632650D1*
X4849430Y2625050D1*
X4844326Y2617450D1*
X4839642Y2609850D1*
X4836382Y2602250D1*
X4833864Y2594650D1*
X4831286Y2587050D1*
X4828517Y2579450D1*
X4825145Y2571850D1*
X4820760Y2564250D1*
X4816497Y2556650D1*
X4813441Y2549050D1*
X4811010Y2541450D1*
X4808496Y2533850D1*
X4806007Y2526250D1*
X4803608Y2518650D1*
X4801045Y2511050D1*
X4798701Y2503450D1*
X4796704Y2495850D1*
X4794009Y2488250D1*
X4789997Y2480650D1*
X4785693Y2473050D1*
X4782020Y2465450D1*
X4778771Y2457850D1*
X4776171Y2450250D1*
X4774576Y2442650D1*
X4773766Y2435050D1*
X4773392Y2427450D1*
X4773175Y2419850D1*
X4757975D1*
Y2412250D1*
Y2404650D1*
Y2397050D1*
Y2389450D1*
Y2381850D1*
Y2374250D1*
X4932775Y2769450D2*
X4938001Y2761850D1*
X4942792Y2754250D1*
X4946642Y2746650D1*
X4949951Y2739050D1*
X4952630Y2731450D1*
X4954765Y2723850D1*
X4957512Y2716250D1*
X4961543Y2708650D1*
X4965854Y2701050D1*
X4969529Y2693450D1*
X4972779Y2685850D1*
X4975439Y2678250D1*
X4977568Y2670650D1*
X4980313Y2663050D1*
X4984343Y2655450D1*
X4988654Y2647850D1*
X4992329Y2640250D1*
X4995579Y2632650D1*
X4998209Y2625050D1*
X5000071Y2617450D1*
X5001848Y2609850D1*
X5004087Y2602250D1*
X5006717Y2594650D1*
X5010035Y2587050D1*
X5014400Y2579450D1*
X5018657Y2571850D1*
X5021711Y2564250D1*
X5024141Y2556650D1*
X5026625Y2549050D1*
X5028847Y2541450D1*
X5030283Y2533850D1*
X5031066Y2526250D1*
X5031575Y2518650D1*
X5046775D1*
X5047065Y2511050D1*
X5048039Y2503450D1*
X5049860Y2495850D1*
X5051810Y2488250D1*
X5053141Y2480650D1*
X5053885Y2473050D1*
X5054375Y2465450D1*
X5069575D1*
X5069865Y2457850D1*
X5070839Y2450250D1*
X5072690Y2442650D1*
X5074906Y2435050D1*
X5077200Y2427450D1*
X5079725Y2419850D1*
X5081967Y2412250D1*
X5083158Y2404650D1*
X5082940Y2397050D1*
X5081397Y2389450D1*
X5079280Y2381850D1*
X5077175Y2374250D1*
X5441975Y2746650D2*
Y2739050D1*
Y2731450D1*
Y2723850D1*
Y2716250D1*
Y2708650D1*
Y2701050D1*
Y2693450D1*
Y2685850D1*
Y2678250D1*
Y2670650D1*
Y2663050D1*
Y2655450D1*
X5479975Y2746650D2*
Y2739050D1*
Y2731450D1*
Y2723850D1*
Y2716250D1*
X5464775D1*
Y2708650D1*
Y2701050D1*
X4917575Y2739050D2*
Y2731450D1*
Y2723850D1*
Y2716250D1*
X4902375D1*
X4901201Y2708650D1*
X4899316Y2701050D1*
X4897289Y2693450D1*
X4895424Y2685850D1*
X4892780Y2678250D1*
X4888787Y2670650D1*
X4884490Y2663050D1*
X4880819Y2655450D1*
X4877570Y2647850D1*
X4874911Y2640250D1*
X4872782Y2632650D1*
X4870037Y2625050D1*
X4866037Y2617450D1*
X4861963Y2609850D1*
X4858960Y2602250D1*
X4856294Y2594650D1*
X4852854Y2587050D1*
X4848816Y2579450D1*
X4845439Y2571850D1*
X4843371Y2564250D1*
X4842328Y2556650D1*
X4841851Y2549050D1*
X4841575Y2541450D1*
X4826375D1*
X4825201Y2533850D1*
X4823316Y2526250D1*
X4821349Y2518650D1*
X4820017Y2511050D1*
X4819310Y2503450D1*
X4818974Y2495850D1*
X4818775Y2488250D1*
X4803575D1*
X4802401Y2480650D1*
X4800516Y2473050D1*
X4798519Y2465450D1*
X4796921Y2457850D1*
X4795246Y2450250D1*
X4793043Y2442650D1*
X4790427Y2435050D1*
X4787113Y2427450D1*
X4782746Y2419850D1*
X4778482Y2412250D1*
X4775460Y2404650D1*
X4773175Y2397050D1*
X4932775Y2739050D2*
X4932805Y2731450D1*
X4933131Y2723850D1*
X4933933Y2716250D1*
X4938216Y2708650D1*
X4943937Y2701050D1*
X4949222Y2693450D1*
X4952853Y2685850D1*
X4955556Y2678250D1*
X4958155Y2670650D1*
X4960422Y2663050D1*
X4961874Y2655450D1*
X4962663Y2647850D1*
X4963175Y2640250D1*
X4978375D1*
X4978665Y2632650D1*
X4979639Y2625050D1*
X4981460Y2617450D1*
X4983469Y2609850D1*
X4985329Y2602250D1*
X4987970Y2594650D1*
X4991963Y2587050D1*
X4996261Y2579450D1*
X4999932Y2571850D1*
X5003180Y2564250D1*
X5005809Y2556650D1*
X5007671Y2549050D1*
X5009448Y2541450D1*
X5011687Y2533850D1*
X5014317Y2526250D1*
X5017635Y2518650D1*
X5022000Y2511050D1*
X5026257Y2503450D1*
X5029311Y2495850D1*
X5031741Y2488250D1*
X5034284Y2480650D1*
X5037040Y2473050D1*
X5040408Y2465450D1*
X5044791Y2457850D1*
X5049053Y2450250D1*
X5052109Y2442650D1*
X5054540Y2435050D1*
X5057024Y2427450D1*
X5059247Y2419850D1*
X5060683Y2412250D1*
X5061466Y2404650D1*
X5061975Y2397050D1*
X5358375Y2723850D2*
Y2716250D1*
Y2708650D1*
Y2701050D1*
Y2693450D1*
Y2685850D1*
Y2678250D1*
Y2670650D1*
Y2663050D1*
Y2655450D1*
X5396375Y2723850D2*
Y2716250D1*
Y2708650D1*
Y2701050D1*
Y2693450D1*
Y2685850D1*
Y2678250D1*
Y2670650D1*
Y2663050D1*
Y2655450D1*
X5616775Y2723850D2*
Y2716250D1*
Y2708650D1*
Y2701050D1*
X5616745Y2693450D1*
X5616478Y2685850D1*
X5615504Y2678250D1*
X5613620Y2670650D1*
X5611358Y2663050D1*
X5609175Y2655450D1*
X5662375Y2723850D2*
Y2716250D1*
Y2708650D1*
Y2701050D1*
Y2693450D1*
Y2685850D1*
Y2678250D1*
Y2670650D1*
Y2663050D1*
Y2655450D1*
X5472375Y2670650D2*
Y2663050D1*
Y2655450D1*
X4909975Y2640250D2*
X4910554Y2632650D1*
X4911816Y2625050D1*
X4915974Y2617450D1*
X4920000Y2609850D1*
X4922713Y2602250D1*
X4924398Y2594650D1*
X4926019Y2587050D1*
X4928171Y2579450D1*
X4930538Y2571850D1*
X4932775Y2564250D1*
X4947975Y2640250D2*
Y2632650D1*
Y2625050D1*
Y2617450D1*
Y2609850D1*
X4948005Y2602250D1*
X4948272Y2594650D1*
X4949241Y2587050D1*
X4951061Y2579450D1*
X4953009Y2571850D1*
X4954335Y2564250D1*
X4955040Y2556650D1*
X4955362Y2549050D1*
X4955495Y2541450D1*
X4955548Y2533850D1*
X4955575Y2526250D1*
X4887175Y2571850D2*
X4892371Y2564250D1*
X4896895Y2556650D1*
X4899806Y2549050D1*
X4901563Y2541450D1*
X4903202Y2533850D1*
X4905297Y2526250D1*
X4907351Y2518650D1*
X4908715Y2511050D1*
X4909435Y2503450D1*
X4909775Y2495850D1*
X4909975Y2488250D1*
X4925175D1*
X4925205Y2480650D1*
X4925472Y2473050D1*
X4926446Y2465450D1*
X4928330Y2457850D1*
X4930592Y2450250D1*
X4932775Y2442650D1*
X4902375Y2571850D2*
Y2564250D1*
X5191175Y2556650D2*
X5188577Y2549050D1*
X5186315Y2541450D1*
X5184868Y2533850D1*
X5184084Y2526250D1*
X5183575Y2518650D1*
X5236775D1*
Y2511050D1*
Y2503450D1*
Y2495850D1*
Y2488250D1*
X5191175D1*
Y2480650D1*
Y2473050D1*
Y2465450D1*
Y2457850D1*
Y2450250D1*
X5236775D1*
Y2442650D1*
Y2435050D1*
Y2427450D1*
Y2419850D1*
X5183575D1*
X5184755Y2412250D1*
X5186703Y2404650D1*
X5188985Y2397050D1*
X5191175Y2389450D1*
X5259575Y2556650D2*
Y2549050D1*
Y2541450D1*
Y2533850D1*
Y2526250D1*
Y2518650D1*
Y2511050D1*
Y2503450D1*
Y2495850D1*
Y2488250D1*
Y2480650D1*
Y2473050D1*
Y2465450D1*
Y2457850D1*
Y2450250D1*
Y2442650D1*
Y2435050D1*
Y2427450D1*
Y2419850D1*
Y2412250D1*
Y2404650D1*
Y2397050D1*
Y2389450D1*
X5312775Y2556650D2*
Y2549050D1*
Y2541450D1*
X5297575D1*
X5294977Y2533850D1*
X5292715Y2526250D1*
X5291274Y2518650D1*
X5290528Y2511050D1*
X5290179Y2503450D1*
X5289975Y2495850D1*
X5350775Y2556650D2*
X5353403Y2549050D1*
X5355932Y2541450D1*
X5358341Y2533850D1*
X5360906Y2526250D1*
X5363190Y2518650D1*
X5364653Y2511050D1*
X5365411Y2503450D1*
X5365752Y2495850D1*
X5365892Y2488250D1*
X5365946Y2480650D1*
X5365965Y2473050D1*
X5365972Y2465450D1*
X5365974Y2457850D1*
X5365945Y2450250D1*
X5365678Y2442650D1*
X5364710Y2435050D1*
X5362860Y2427450D1*
X5360644Y2419850D1*
X5358344Y2412250D1*
X5355754Y2404650D1*
X5353156Y2397050D1*
X5350775Y2389450D1*
X5419175Y2556650D2*
X5416577Y2549050D1*
X5414315Y2541450D1*
X5412874Y2533850D1*
X5412130Y2526250D1*
X5411794Y2518650D1*
X5411657Y2511050D1*
X5411604Y2503450D1*
X5411585Y2495850D1*
X5411575Y2488250D1*
X5396375D1*
Y2480650D1*
Y2473050D1*
X5396345Y2465450D1*
X5396078Y2457850D1*
X5395110Y2450250D1*
X5393289Y2442650D1*
X5391341Y2435050D1*
X5390015Y2427450D1*
X5389311Y2419850D1*
X5388988Y2412250D1*
X5388855Y2404650D1*
X5388802Y2397050D1*
X5388775Y2389450D1*
X5434375Y2556650D2*
X5436973Y2549050D1*
X5439235Y2541450D1*
X5440735Y2533850D1*
X5442014Y2526250D1*
X5444287Y2518650D1*
X5448065Y2511050D1*
X5452015Y2503450D1*
X5454685Y2495850D1*
X5456101Y2488250D1*
X5456777Y2480650D1*
X5457312Y2473050D1*
X5458383Y2465450D1*
X5460241Y2457850D1*
X5462203Y2450250D1*
X5463592Y2442650D1*
X5464833Y2435050D1*
X5467093Y2427450D1*
X5470867Y2419850D1*
X5474816Y2412250D1*
X5477497Y2404650D1*
X5478992Y2397050D1*
X5479975Y2389450D1*
X5472375Y2556650D2*
Y2549050D1*
Y2541450D1*
Y2533850D1*
Y2526250D1*
Y2518650D1*
X5495175D1*
X5500371Y2511050D1*
X5504895Y2503450D1*
X5507777Y2495850D1*
X5509266Y2488250D1*
X5509937Y2480650D1*
X5510212Y2473050D1*
X5510317Y2465450D1*
X5510355Y2457850D1*
X5510368Y2450250D1*
X5510373Y2442650D1*
X5510374Y2435050D1*
X5510375Y2427450D1*
Y2419850D1*
Y2412250D1*
Y2404650D1*
Y2397050D1*
Y2389450D1*
X5555975Y2556650D2*
Y2549050D1*
Y2541450D1*
Y2533850D1*
Y2526250D1*
Y2518650D1*
X5533175D1*
Y2511050D1*
Y2503450D1*
Y2495850D1*
Y2488250D1*
X5517975D1*
X5523171Y2480650D1*
X5527695Y2473050D1*
X5530577Y2465450D1*
X5532066Y2457850D1*
X5532737Y2450250D1*
X5533012Y2442650D1*
X5533117Y2435050D1*
X5533096Y2427450D1*
X5532575Y2419850D1*
X5531334Y2412250D1*
X5527040Y2404650D1*
X5522384Y2397050D1*
X5517975Y2389450D1*
X5601575Y2556650D2*
Y2549050D1*
Y2541450D1*
Y2533850D1*
Y2526250D1*
Y2518650D1*
Y2511050D1*
Y2503450D1*
Y2495850D1*
Y2488250D1*
Y2480650D1*
Y2473050D1*
X5601545Y2465450D1*
X5601278Y2457850D1*
X5600304Y2450250D1*
X5598420Y2442650D1*
X5596158Y2435050D1*
X5593975Y2427450D1*
X5616775Y2556650D2*
Y2549050D1*
Y2541450D1*
Y2533850D1*
Y2526250D1*
Y2518650D1*
Y2511050D1*
Y2503450D1*
Y2495850D1*
Y2488250D1*
Y2480650D1*
Y2473050D1*
Y2465450D1*
Y2457850D1*
Y2450250D1*
Y2442650D1*
Y2435050D1*
Y2427450D1*
Y2419850D1*
Y2412250D1*
Y2404650D1*
Y2397050D1*
Y2389450D1*
X5669975Y2556650D2*
X5666798Y2549050D1*
X5662588Y2541450D1*
X5657504Y2533850D1*
X5652862Y2526250D1*
X5649875Y2518650D1*
X5648328Y2511050D1*
X5647630Y2503450D1*
X5647345Y2495850D1*
X5647235Y2488250D1*
X5647196Y2480650D1*
X5647182Y2473050D1*
X5647177Y2465450D1*
X5647176Y2457850D1*
X5647175Y2450250D1*
X5647235Y2442650D1*
X5647769Y2435050D1*
X5649016Y2427450D1*
X5653463Y2419850D1*
X5658470Y2412250D1*
X5663050Y2404650D1*
X5666810Y2397050D1*
X5669975Y2389450D1*
X5707975Y2556650D2*
X5710863Y2549050D1*
X5714099Y2541450D1*
X5717420Y2533850D1*
X5720648Y2526250D1*
X5724246Y2518650D1*
X5728729Y2511050D1*
X5733001Y2503450D1*
X5735805Y2495850D1*
X5737272Y2488250D1*
X5737938Y2480650D1*
X5738212Y2473050D1*
X5738258Y2465450D1*
X5737761Y2457850D1*
X5736532Y2450250D1*
X5732345Y2442650D1*
X5728052Y2435050D1*
X5724371Y2427450D1*
X5720866Y2419850D1*
X5717296Y2412250D1*
X5713814Y2404650D1*
X5710702Y2397050D1*
X5707975Y2389450D1*
X5745975Y2556650D2*
X5746265Y2549050D1*
X5747239Y2541450D1*
X5749060Y2533850D1*
X5751009Y2526250D1*
X5752335Y2518650D1*
X5753040Y2511050D1*
X5753421Y2503450D1*
X5754089Y2495850D1*
X5756077Y2488250D1*
X5759737Y2480650D1*
X5763640Y2473050D1*
X5766294Y2465450D1*
X5767704Y2457850D1*
X5768349Y2450250D1*
X5768645Y2442650D1*
X5769015Y2435050D1*
X5770021Y2427450D1*
X5771854Y2419850D1*
X5773808Y2412250D1*
X5775140Y2404650D1*
X5775885Y2397050D1*
X5776375Y2389450D1*
X5768775Y2556650D2*
Y2549050D1*
Y2541450D1*
Y2533850D1*
Y2526250D1*
Y2518650D1*
X5783975D1*
Y2511050D1*
Y2503450D1*
Y2495850D1*
Y2488250D1*
Y2480650D1*
Y2473050D1*
X5806775Y2556650D2*
X5806486Y2549050D1*
X5805512Y2541450D1*
X5803690Y2533850D1*
X5801741Y2526250D1*
X5800415Y2518650D1*
X5799711Y2511050D1*
X5799388Y2503450D1*
X5799255Y2495850D1*
X5799204Y2488250D1*
X5799184Y2480650D1*
X5799175Y2473050D1*
X5837175Y2556650D2*
Y2549050D1*
Y2541450D1*
X5821975D1*
Y2533850D1*
Y2526250D1*
Y2518650D1*
Y2511050D1*
X5821945Y2503450D1*
X5821678Y2495850D1*
X5820710Y2488250D1*
X5818889Y2480650D1*
X5816941Y2473050D1*
X5815615Y2465450D1*
X5814911Y2457850D1*
X5814588Y2450250D1*
X5814396Y2442650D1*
X5813810Y2435050D1*
X5812539Y2427450D1*
X5808378Y2419850D1*
X5804350Y2412250D1*
X5801655Y2404650D1*
X5800158Y2397050D1*
X5799175Y2389450D1*
X4909975Y2533850D2*
X4916081Y2526250D1*
X4920526Y2518650D1*
X4923071Y2511050D1*
X4924306Y2503450D1*
X4924869Y2495850D1*
X4925349Y2488250D1*
X4926457Y2480650D1*
X4928840Y2473050D1*
X4932747Y2465450D1*
X4937850Y2457850D1*
X4943119Y2450250D1*
X4947975Y2442650D1*
X5312775Y2526250D2*
X5311595Y2518650D1*
X5309647Y2511050D1*
X5307365Y2503450D1*
X5305175Y2495850D1*
X5343175Y2526250D2*
Y2518650D1*
Y2511050D1*
Y2503450D1*
Y2495850D1*
Y2488250D1*
Y2480650D1*
Y2473050D1*
Y2465450D1*
Y2457850D1*
Y2450250D1*
Y2442650D1*
Y2435050D1*
Y2427450D1*
X5669975Y2526250D2*
Y2518650D1*
Y2511050D1*
Y2503450D1*
X5669945Y2495850D1*
X5669678Y2488250D1*
X5668739Y2480650D1*
X5667186Y2473050D1*
X5666206Y2465450D1*
X5666701Y2457850D1*
X5667945Y2450250D1*
X5668953Y2442650D1*
X5669560Y2435050D1*
X5669975Y2427450D1*
X5700375Y2526250D2*
X5702724Y2518650D1*
X5706493Y2511050D1*
X5710428Y2503450D1*
X5713090Y2495850D1*
X5714503Y2488250D1*
X5715149Y2480650D1*
X5715415Y2473050D1*
X5715459Y2465450D1*
X5714962Y2457850D1*
X5713732Y2450250D1*
X5709439Y2442650D1*
X5704784Y2435050D1*
X5700375Y2427450D1*
X5282375Y2473050D2*
Y2465450D1*
Y2457850D1*
Y2450250D1*
Y2442650D1*
Y2435050D1*
X5282405Y2427450D1*
X5282672Y2419850D1*
X5283646Y2412250D1*
X5285530Y2404650D1*
X5287792Y2397050D1*
X5289975Y2389450D1*
X5312775Y2473050D2*
X5312745Y2465450D1*
X5312478Y2457850D1*
X5311504Y2450250D1*
X5309620Y2442650D1*
X5307358Y2435050D1*
X5305175Y2427450D1*
X5441975Y2480650D2*
X5429569Y2473050D1*
X5419703Y2465450D1*
X5411575Y2457850D1*
X5441975Y2480650D2*
Y2473050D1*
Y2465450D1*
Y2457850D1*
X5563575Y2435050D2*
Y2427450D1*
Y2419850D1*
Y2412250D1*
Y2404650D1*
Y2397050D1*
Y2389450D1*
X5578775Y2435050D2*
Y2427450D1*
X5411575Y2419850D2*
X5410395Y2412250D1*
X5408447Y2404650D1*
X5406165Y2397050D1*
X5403975Y2389450D1*
X5449575Y2419850D2*
Y2412250D1*
Y2404650D1*
Y2397050D1*
Y2389450D1*
X5312775Y2404650D2*
Y2397050D1*
Y2389450D1*
X4659175Y2260250D2*
X4659234Y2252650D1*
X4659813Y2245050D1*
X4661194Y2237450D1*
X4667117Y2229850D1*
X4674375Y2222250D1*
X4666775Y2260250D2*
X4667950Y2252650D1*
X4669835Y2245050D1*
X4671822Y2237450D1*
X4673268Y2229850D1*
X4674375Y2222250D1*
X5928375Y2245050D2*
X5924839Y2237450D1*
X5922490Y2229850D1*
X5920775Y2222250D1*
X5935975Y2245050D2*
X5934016Y2237450D1*
X5928056Y2229850D1*
X5920775Y2222250D1*
X2416458Y5646257D2*
D63*
Y5549110D1*
X2422494Y5530860D1*
X2428671Y5524824D1*
X2440744Y5518647D1*
X2452958D1*
X2465031Y5524824D1*
X2471067Y5530860D1*
X2477244Y5549110D1*
Y5561184D1*
X2316456Y5518647D2*
Y5646116D1*
X2377242Y5561184D1*
X2286133D1*
X5143792Y5173087D2*
Y5045477D1*
X5228865Y5173087D1*
Y5045477D1*
X5104577Y5112300D2*
X5049967D1*
X5031717Y5118477D1*
X5025540Y5124514D1*
X5019504Y5136587D1*
Y5148800D1*
X5025540Y5160873D1*
X5031717Y5167050D1*
X5049967Y5173087D1*
X5104577D1*
Y5045477D1*
X5062040Y5112300D2*
X5019504Y5045477D1*
X4901251Y5173087D2*
X4980288D1*
Y5045477D1*
Y5112300D2*
X4931715D1*
X1883223Y5518827D2*
X1828613D1*
X1810363Y5525004D1*
X1804186Y5531040D1*
X1798150Y5543113D1*
Y5555327D1*
X1804186Y5567400D1*
X1810363Y5573577D1*
X1828613Y5579613D1*
X1883223D1*
Y5452004D1*
X1840686Y5518827D2*
X1798150Y5452004D1*
X1746720Y5579473D2*
X1680038D1*
X1716397Y5530900D1*
X1698147D1*
X1686074Y5524863D1*
X1680038Y5518827D1*
X1673861Y5500577D1*
Y5488504D1*
X1680038Y5470254D1*
X1692111Y5458040D1*
X1710361Y5452004D1*
X1728611D1*
X1746720Y5458040D1*
X1752757Y5464217D1*
X1758934Y5476290D1*
X2946889Y4868987D2*
Y4777877D1*
X2940853Y4759627D1*
X2928639Y4747554D1*
X2910389Y4741377D1*
X2898316D1*
X2880066Y4747554D1*
X2867853Y4759627D1*
X2861816Y4777877D1*
Y4868987D1*
X2816424Y4838523D2*
Y4844560D1*
X2810387Y4856773D1*
X2804351Y4862810D1*
X2792137Y4868846D1*
X2767851D1*
X2755778Y4862810D1*
X2749741Y4856773D1*
X2743564Y4844560D1*
Y4832487D1*
X2749741Y4820273D1*
X2761814Y4802164D1*
X2822601Y4741377D1*
X2737528D1*
X2467022Y3298112D2*
D64*
Y3221546D1*
X2441500D1*
X2430550Y3225252D1*
X2423222Y3232496D1*
X2419600Y3239824D1*
X2415978Y3250690D1*
Y3268968D1*
X2419600Y3279918D1*
X2423222Y3287162D1*
X2430550Y3294490D1*
X2441500Y3298112D1*
X2467022D1*
X2392449Y3272590D2*
Y3236118D1*
X2388827Y3225252D1*
X2381499Y3221546D1*
X2370549D1*
X2363305Y3225252D1*
X2352355Y3236118D1*
Y3272590D2*
Y3221546D1*
X2285110Y3272590D2*
Y3221546D1*
Y3261640D2*
X2292354Y3268968D1*
X2299682Y3272590D1*
X2310548D1*
X2317876Y3268968D1*
X2325120Y3261640D1*
X2328826Y3250690D1*
Y3243446D1*
X2325120Y3232496D1*
X2317876Y3225252D1*
X2310548Y3221546D1*
X2299682D1*
X2292354Y3225252D1*
X2285110Y3232496D1*
X2261580Y3298112D2*
Y3221546D1*
X2163983Y3261640D2*
X2131217D1*
X2120267Y3265346D1*
X2116561Y3268968D1*
X2112939Y3276212D1*
Y3283540D1*
X2116561Y3290784D1*
X2120267Y3294490D1*
X2131217Y3298112D1*
X2163983D1*
Y3221546D1*
X2138461Y3261640D2*
X2112939Y3221546D1*
X2089410Y3250690D2*
X2045694D1*
Y3258018D1*
X2049316Y3265346D1*
X2052938Y3268968D1*
X2060266Y3272590D1*
X2071216D1*
X2078460Y3268968D1*
X2085788Y3261640D1*
X2089410Y3250690D1*
Y3243446D1*
X2085788Y3232496D1*
X2078460Y3225252D1*
X2071216Y3221546D1*
X2060266D1*
X2052938Y3225252D1*
X2045694Y3232496D1*
X2022165Y3298112D2*
Y3221546D1*
X1954920Y3272590D2*
Y3221546D1*
Y3261640D2*
X1962163Y3268968D1*
X1969492Y3272590D1*
X1980357D1*
X1987685Y3268968D1*
X1994929Y3261640D1*
X1998635Y3250690D1*
Y3243446D1*
X1994929Y3232496D1*
X1987685Y3225252D1*
X1980357Y3221546D1*
X1969492D1*
X1962163Y3225252D1*
X1954920Y3232496D1*
X1927684Y3272590D2*
X1905868Y3221546D1*
X1913112Y3206974D1*
X1920440Y3199646D1*
X1927684Y3196024D1*
X1931390D1*
X1883968Y3272590D2*
X1905868Y3221546D1*
X1735327Y3298112D2*
Y3221546D1*
X1786371Y3298112D1*
Y3221546D1*
X1693604Y3272590D2*
X1700848Y3268968D1*
X1708176Y3261640D1*
X1711798Y3250690D1*
Y3243446D1*
X1708176Y3232496D1*
X1700848Y3225252D1*
X1693604Y3221546D1*
X1682654D1*
X1675326Y3225252D1*
X1668082Y3232496D1*
X1664376Y3243446D1*
Y3250690D1*
X1668082Y3261640D1*
X1675326Y3268968D1*
X1682654Y3272590D1*
X1693604D1*
X1597131Y3298112D2*
Y3221546D1*
Y3261640D2*
X1604374Y3268968D1*
X1611703Y3272590D1*
X1622653D1*
X1629896Y3268968D1*
X1637224Y3261640D1*
X1640846Y3250690D1*
Y3243446D1*
X1637224Y3232496D1*
X1629896Y3225252D1*
X1622653Y3221546D1*
X1611703D1*
X1604374Y3225252D1*
X1597131Y3232496D1*
X1573601Y3250690D2*
X1529885D1*
Y3258018D1*
X1533507Y3265346D1*
X1537129Y3268968D1*
X1544457Y3272590D1*
X1555407D1*
X1562651Y3268968D1*
X1569979Y3261640D1*
X1573601Y3250690D1*
Y3243446D1*
X1569979Y3232496D1*
X1562651Y3225252D1*
X1555407Y3221546D1*
X1544457D1*
X1537129Y3225252D1*
X1529885Y3232496D1*
X1432288Y3272590D2*
X1410388Y3221546D1*
X1388572Y3272590D1*
X1365043Y3283455D2*
X1357715Y3287162D1*
X1346765Y3298027D1*
Y3221546D1*
X1319614Y3228874D2*
X1323235Y3225168D1*
X1319614Y3221546D1*
X1315907Y3225168D1*
X1319614Y3228874D1*
X1270478Y3298027D2*
X1281428Y3294405D1*
X1288756Y3283455D1*
X1292378Y3265262D1*
Y3254312D1*
X1288756Y3236118D1*
X1281428Y3225168D1*
X1270478Y3221546D1*
X1263234D1*
X1252284Y3225168D1*
X1245040Y3236118D1*
X1241334Y3254312D1*
Y3265262D1*
X1245040Y3283455D1*
X1252284Y3294405D1*
X1263234Y3298027D1*
X1270478D1*
X1245040Y3283455D2*
X1288756Y3236118D1*
X3572851Y1256140D2*
D65*
Y1103008D1*
X3485420D1*
X2977420Y1256137D2*
Y1103005D1*
X3079508Y1256137D1*
Y1103005D1*
X5308451Y1183193D2*
X5242919D1*
X5221019Y1190605D1*
X5213607Y1197849D1*
X5206363Y1212337D1*
Y1226993D1*
X5213607Y1241480D1*
X5221019Y1248893D1*
X5242919Y1256137D1*
X5308451D1*
Y1103005D1*
X5257407Y1183193D2*
X5206363Y1103005D1*
X5151892Y1219580D2*
Y1226824D1*
X5144648Y1241480D1*
X5137404Y1248724D1*
X5122748Y1255968D1*
X5093604D1*
X5079116Y1248724D1*
X5071873Y1241480D1*
X5064460Y1226824D1*
Y1212337D1*
X5071873Y1197680D1*
X5086360Y1175949D1*
X5159304Y1103005D1*
X5057216D1*
X5782669Y1199066D2*
X5717138D1*
X5695238Y1206478D1*
X5687825Y1213722D1*
X5680581Y1228210D1*
Y1242866D1*
X5687825Y1257354D1*
X5695238Y1264766D1*
X5717138Y1272010D1*
X5782669D1*
Y1118878D1*
X5731625Y1199066D2*
X5680581Y1118878D1*
X5633523Y1242698D2*
X5618866Y1250110D1*
X5596966Y1271841D1*
Y1118878D1*
X2823642Y3107612D2*
D64*
Y3031046D1*
X2798120D1*
X2787170Y3034752D1*
X2779842Y3041996D1*
X2776220Y3049324D1*
X2772598Y3060190D1*
Y3078468D1*
X2776220Y3089418D1*
X2779842Y3096662D1*
X2787170Y3103990D1*
X2798120Y3107612D1*
X2823642D1*
X2749069Y3060190D2*
X2705353D1*
Y3067518D1*
X2708975Y3074846D1*
X2712597Y3078468D1*
X2719925Y3082090D1*
X2730875D1*
X2738119Y3078468D1*
X2745447Y3071140D1*
X2749069Y3060190D1*
Y3052946D1*
X2745447Y3041996D1*
X2738119Y3034752D1*
X2730875Y3031046D1*
X2719925D1*
X2712597Y3034752D1*
X2705353Y3041996D1*
X2641730Y3071140D2*
X2645352Y3078468D1*
X2656302Y3082090D1*
X2667252D1*
X2678202Y3078468D1*
X2681823Y3071140D1*
X2678202Y3063896D1*
X2670873Y3060190D1*
X2652680Y3056568D1*
X2645352Y3052946D1*
X2641730Y3045618D1*
Y3041996D1*
X2645352Y3034752D1*
X2656302Y3031046D1*
X2667252D1*
X2678202Y3034752D1*
X2681823Y3041996D1*
X2618200Y3107612D2*
X2614578Y3103990D1*
X2610872Y3107612D1*
X2614578Y3111318D1*
X2618200Y3107612D1*
X2614578Y3082090D2*
Y3031046D1*
X2543627Y3078468D2*
Y3020096D1*
X2547249Y3009230D1*
X2550871Y3005524D1*
X2558199Y3001902D1*
X2569149D1*
X2576393Y3005524D1*
X2543627Y3067518D2*
X2550871Y3074762D1*
X2558199Y3078468D1*
X2569149D1*
X2576393Y3074762D1*
X2583721Y3067518D1*
X2587343Y3056568D1*
Y3049240D1*
X2583721Y3038374D1*
X2576393Y3031046D1*
X2569149Y3027424D1*
X2558199D1*
X2550871Y3031046D1*
X2543627Y3038374D1*
X2520098Y3082090D2*
Y3031046D1*
Y3067518D2*
X2509148Y3078468D1*
X2501819Y3082090D1*
X2490954D1*
X2483626Y3078468D1*
X2480004Y3067518D1*
Y3031046D1*
X2382406Y3107612D2*
Y3031046D1*
Y3071140D2*
X2375078Y3078468D1*
X2367835Y3082090D1*
X2356885D1*
X2349641Y3078468D1*
X2342313Y3071140D1*
X2338691Y3060190D1*
Y3052946D1*
X2342313Y3041996D1*
X2349641Y3034752D1*
X2356885Y3031046D1*
X2367835D1*
X2375078Y3034752D1*
X2382406Y3041996D1*
X2311455Y3082090D2*
X2289639Y3031046D1*
X2296883Y3016474D1*
X2304211Y3009146D1*
X2311455Y3005524D1*
X2315161D1*
X2267739Y3082090D2*
X2289639Y3031046D1*
X2170142Y3107612D2*
Y3031046D1*
X2144620D1*
X2133670Y3034752D1*
X2126342Y3041996D1*
X2122720Y3049324D1*
X2119098Y3060190D1*
Y3078468D1*
X2122720Y3089418D1*
X2126342Y3096662D1*
X2133670Y3103990D1*
X2144620Y3107612D1*
X2170142D1*
X2095569Y3067518D2*
X2062719D1*
X2051853Y3071140D1*
X2048147Y3074846D1*
X2044525Y3082090D1*
Y3093040D1*
X2048147Y3100284D1*
X2051853Y3103990D1*
X2062719Y3107612D1*
X2095569D1*
Y3031046D1*
X2020996Y3071140D2*
X1988230D1*
X1977280Y3074846D1*
X1973574Y3078468D1*
X1969952Y3085712D1*
Y3093040D1*
X1973574Y3100284D1*
X1977280Y3103990D1*
X1988230Y3107612D1*
X2020996D1*
Y3031046D1*
X1995474Y3071140D2*
X1969952Y3031046D1*
X1899085Y3107612D2*
X1946422D1*
Y3031046D1*
X1899085D1*
X1946422Y3071140D2*
X1917278D1*
X1824511Y3096662D2*
X1831755Y3103990D1*
X1842705Y3107612D1*
X1857277D1*
X1868227Y3103990D1*
X1875555Y3096662D1*
Y3089418D1*
X1871849Y3082090D1*
X1868227Y3078468D1*
X1860983Y3074846D1*
X1839083Y3067518D1*
X1831755Y3063896D1*
X1828133Y3060190D1*
X1824511Y3052946D1*
Y3041996D1*
X1831755Y3034752D1*
X1842705Y3031046D1*
X1857277D1*
X1868227Y3034752D1*
X1875555Y3041996D1*
X1749938Y3096662D2*
X1757182Y3103990D1*
X1768132Y3107612D1*
X1782704D1*
X1793654Y3103990D1*
X1800982Y3096662D1*
Y3089418D1*
X1797276Y3082090D1*
X1793654Y3078468D1*
X1786410Y3074846D1*
X1764510Y3067518D1*
X1757182Y3063896D1*
X1753560Y3060190D1*
X1749938Y3052946D1*
Y3041996D1*
X1757182Y3034752D1*
X1768132Y3031046D1*
X1782704D1*
X1793654Y3034752D1*
X1800982Y3041996D1*
X1726409Y3107612D2*
Y3031046D1*
X1682693D1*
X1611826Y3107612D2*
X1659163D1*
Y3031046D1*
X1611826D1*
X1659163Y3071140D2*
X1630020D1*
X1488707Y3127574D2*
X1496035Y3120330D1*
X1503278Y3109380D1*
X1510607Y3094809D1*
X1514228Y3076530D1*
Y3061959D1*
X1510607Y3043765D1*
X1503278Y3029193D1*
X1496035Y3018243D1*
X1488707Y3010999D1*
X1461471Y3089334D2*
Y3092955D1*
X1457849Y3100284D1*
X1454227Y3103905D1*
X1446899Y3107527D1*
X1432327D1*
X1425083Y3103905D1*
X1421461Y3100284D1*
X1417755Y3092955D1*
Y3085712D1*
X1421461Y3078384D1*
X1428705Y3067518D1*
X1465177Y3031046D1*
X1414133D1*
X1368704Y3107527D2*
X1379654Y3103905D1*
X1386982Y3092955D1*
X1390604Y3074762D1*
Y3063812D1*
X1386982Y3045618D1*
X1379654Y3034668D1*
X1368704Y3031046D1*
X1361460D1*
X1350510Y3034668D1*
X1343266Y3045618D1*
X1339560Y3063812D1*
Y3074762D1*
X1343266Y3092955D1*
X1350510Y3103905D1*
X1361460Y3107527D1*
X1368704D1*
X1343266Y3092955D2*
X1386982Y3045618D1*
X1316031Y3092955D2*
X1308703Y3096662D1*
X1297753Y3107527D1*
Y3031046D1*
X1230507Y3096662D2*
X1234129Y3103905D1*
X1245079Y3107527D1*
X1252323D1*
X1263273Y3103905D1*
X1270601Y3092955D1*
X1274223Y3074762D1*
Y3056568D1*
X1270601Y3041996D1*
X1263273Y3034668D1*
X1252323Y3031046D1*
X1248701D1*
X1237835Y3034668D1*
X1230507Y3041996D1*
X1226885Y3052946D1*
Y3056568D1*
X1230507Y3067518D1*
X1237835Y3074762D1*
X1248701Y3078384D1*
X1252323D1*
X1263273Y3074762D1*
X1270601Y3067518D1*
X1274223Y3056568D1*
X1203356Y3127574D2*
X1196028Y3120330D1*
X1188784Y3109380D1*
X1181456Y3094809D1*
X1177834Y3076530D1*
Y3061959D1*
X1181456Y3043765D1*
X1188784Y3029193D1*
X1196028Y3018243D1*
X1203356Y3010999D1*
M02*
