M48
METRIC,0000.00
T01C0.559
T02C0.7
T03C0.9
T04C1.0
T05C1.1
T06C1.168
T07C1.168
T08C1.3
%
T01
X+001413Y+005524
X+002175Y+005524
T02
X+004271Y+005495
X+004271Y+005622
X+004271Y+005749
T03
X+003287Y+003622
X+003541Y+003622
X+003604Y+004476
X+003858Y+004476
X+004112Y+004476
X+004366Y+004476
X+004620Y+004476
X+004620Y+005238
X+004366Y+005238
X+004112Y+005238
X+003858Y+005238
X+003604Y+005238
X+003350Y+005238
X+003096Y+005238
X+002842Y+005238
X+002588Y+005238
X+002334Y+005238
X+002080Y+005238
X+001826Y+005238
X+001572Y+005238
X+001318Y+005238
X+001255Y+005730
X+001318Y+004476
X+001572Y+004476
X+001826Y+004476
X+002080Y+004476
X+002334Y+004476
X+002588Y+004476
X+002842Y+004476
X+003096Y+004476
X+003350Y+004476
X+002779Y+005730
X+004684Y+005749
X+004684Y+005495
X+005065Y+005622
X+005065Y+005368
X+005319Y+005368
X+005319Y+005622
X+005573Y+005622
X+005573Y+005368
X+005827Y+005368
X+005827Y+005622
X+002271Y+002809
X+001763Y+002809
T04
X+003541Y+004098
X+003287Y+004098
X+003414Y+004797
X+003668Y+004797
X+004493Y+003841
X+004493Y+003587
X+004017Y+003397
X+004017Y+003143
X+004493Y+002571
X+004017Y+002127
X+004493Y+001809
X+004017Y+001365
T05
X+003525Y+001428
X+003025Y+001428
X+005184Y+001476
X+005684Y+001476
X+003779Y+005730
X+003525Y+005730
X+003271Y+005730
X+002366Y+005825
X+002112Y+005825
X+001858Y+005825
X+001604Y+005825
T06
X+002779Y+001984
X+002779Y+002365
T07
X+001255Y+001984
X+001255Y+002365
T08
X+002207Y+001286
X+001457Y+001466
T00
M30
