G04 DipTrace 3.0.0.2*
G04 Top.gbr*
%MOMM*%
G04 #@! TF.FileFunction,Copper,L1,Top*
G04 #@! TF.Part,Single*
%AMOUTLINE0*
4,1,8,
0.75,-0.5,
1.0,-0.25,
1.0,0.25,
0.75,0.5,
-0.75,0.5,
-1.0,0.25,
-1.0,-0.25,
-0.75,-0.5,
0.75,-0.5,
0*%
G04 #@! TA.AperFunction,CopperBalancing*
%ADD13C,0.5*%
G04 #@! TA.AperFunction,Conductor*
%ADD14C,0.33*%
%ADD16C,2.0*%
G04 #@! TA.AperFunction,CopperBalancing*
%ADD17C,0.635*%
G04 #@! TA.AperFunction,ComponentPad*
%ADD18R,1.6X1.6*%
%ADD19C,1.6*%
%ADD20R,1.5X1.5*%
%ADD21C,1.5*%
%ADD22C,2.3*%
%ADD23R,2.3X2.3*%
%ADD24R,1.7X1.7*%
%ADD25C,1.7*%
%ADD26C,1.27*%
%ADD27C,1.27*%
%ADD28C,1.778*%
%ADD29C,1.778*%
%ADD30O,2.0X1.0*%
%ADD31C,1.9*%
%ADD67OUTLINE0*%
%FSLAX35Y35*%
G04*
G71*
G90*
G75*
G01*
G04 Top*
%LPD*%
X4016642Y3142773D2*
D13*
X3810315D1*
X3541058Y3412030D1*
Y3621850D1*
X4016642Y3142773D2*
X4175982D1*
X4493208Y3460000D1*
Y3587000D1*
X3524595Y5730153D2*
D14*
X3257792Y5463350D1*
X2493308D1*
X2334558Y5304600D1*
Y5238350D1*
X2334208Y5238000D1*
X2080208D2*
Y5269940D1*
X2337118Y5526850D1*
X3067292D1*
X3270595Y5730153D1*
X2778682Y2365007D2*
D16*
X1905488D1*
X1762522Y2507973D1*
Y2809153D1*
X5827058Y5622100D2*
D14*
X5700058Y5495100D1*
Y4923600D1*
X5421858Y4645400D1*
X4027608D1*
X3858208Y4476000D1*
X3604208D2*
X4051808Y4923600D1*
X5255558D1*
X5446058Y5114100D1*
Y5495100D1*
X5573058Y5622100D1*
X3350208Y4476000D2*
X3287058Y4412850D1*
Y3971100D1*
Y3621850D1*
X3350208Y4476000D2*
D13*
Y4579923D1*
X2842208Y5087923D1*
Y5238000D1*
X3287058Y4098100D2*
D14*
Y3971100D1*
X1387995Y5793957D2*
D17*
X1448469D1*
X2524422D2*
X2629916D1*
X2927126D2*
X3111995D1*
X3923282D2*
X4106539D1*
X4435995D2*
X4537396D1*
X4830761D2*
X5883919D1*
X1403126Y5730790D2*
X1478110D1*
X2524422D2*
X2629916D1*
X2927126D2*
X3111995D1*
X3937173D2*
X4099098D1*
X4443560D2*
X4531567D1*
X4836590D2*
X4916412D1*
X5417268D2*
X5474889D1*
X5671268D2*
X5728889D1*
X1388739Y5667623D2*
X2629916D1*
X2927126D2*
X3083222D1*
X3923778D2*
X4106911D1*
X4435747D2*
X4555008D1*
X4813150D2*
X4916412D1*
X1118182Y5604457D2*
X1181446D1*
X1522684D2*
X2066105D1*
X3616944D2*
X3686223D1*
X3870944D2*
X4098973D1*
X4443560D2*
X4530451D1*
X4837707D2*
X4916412D1*
X1118182Y5541290D2*
X1277440D1*
X1549349D2*
X2039440D1*
X3460550D2*
X4101082D1*
X4441452D2*
X4530451D1*
X4837707D2*
X4916412D1*
X1118182Y5478123D2*
X1284510D1*
X1542280D2*
X2046510D1*
X3397423D2*
X4097733D1*
X4444924D2*
X4530451D1*
X4837707D2*
X4968502D1*
X1118182Y5414957D2*
X1334491D1*
X1492298D2*
X2096491D1*
X3334171D2*
X4125018D1*
X4417639D2*
X4530451D1*
X4837707D2*
X4924349D1*
X1118182Y5351790D2*
X1164579D1*
X1672132D2*
X1726281D1*
X1926132D2*
X1980281D1*
X2688132D2*
X2742281D1*
X2942132D2*
X2996281D1*
X3196132D2*
X3250281D1*
X3450132D2*
X3504281D1*
X3704132D2*
X3758281D1*
X3958132D2*
X4012281D1*
X4212132D2*
X4266281D1*
X4466132D2*
X4520281D1*
X4837707D2*
X4917404D1*
X1118182Y5288623D2*
X1164579D1*
X4764905D2*
X4940721D1*
X1118182Y5225457D2*
X1164579D1*
X4773339D2*
X5355951D1*
X5536207D2*
X5609951D1*
X5790207D2*
X5883919D1*
X1118182Y5162290D2*
X1164579D1*
X4752875D2*
X5355951D1*
X5536207D2*
X5609951D1*
X5790207D2*
X5883919D1*
X1118182Y5099123D2*
X1164579D1*
X1471835D2*
X1516731D1*
X1627608D2*
X1770806D1*
X1881608D2*
X2024806D1*
X2135608D2*
X2278806D1*
X2389608D2*
X2532806D1*
X2643608D2*
X2743645D1*
X2967805D2*
X3040806D1*
X3151608D2*
X3294806D1*
X3405608D2*
X3548806D1*
X3659608D2*
X3802806D1*
X3913608D2*
X4056806D1*
X4167608D2*
X4310806D1*
X4421608D2*
X4564806D1*
X4675608D2*
X5306342D1*
X5534842D2*
X5609951D1*
X5790207D2*
X5883919D1*
X1118182Y5035957D2*
X2759644D1*
X3031057D2*
X5243090D1*
X5492674D2*
X5609951D1*
X5790207D2*
X5884043D1*
X1118182Y4972790D2*
X2820540D1*
X3094185D2*
X3976190D1*
X5429547D2*
X5609951D1*
X5790207D2*
X5884043D1*
X1118182Y4909623D2*
X2883668D1*
X3157313D2*
X3260451D1*
X3768873D2*
X3913062D1*
X5366419D2*
X5561334D1*
X5788966D2*
X5884043D1*
X1118182Y4846457D2*
X2946796D1*
X3220441D2*
X3260381D1*
X3813025D2*
X3849810D1*
X5294485D2*
X5498082D1*
X5747667D2*
X5884043D1*
X1118182Y4783290D2*
X3010048D1*
X4036267D2*
X5434954D1*
X5684539D2*
X5884043D1*
X1118182Y4720123D2*
X3073176D1*
X5621411D2*
X5884043D1*
X1118182Y4656957D2*
X3136304D1*
X3567707D2*
X3614910D1*
X5558159D2*
X5884043D1*
X1118182Y4593790D2*
X1223490D1*
X1413048D2*
X1477490D1*
X1667048D2*
X1731490D1*
X1921048D2*
X1985490D1*
X2175048D2*
X2239490D1*
X2429048D2*
X2493490D1*
X2683048D2*
X2747490D1*
X2937048D2*
X3001490D1*
X3447776D2*
X3509490D1*
X5495031D2*
X5884043D1*
X1118182Y4530623D2*
X1175121D1*
X4763293D2*
X5884043D1*
X1118182Y4467457D2*
X1164827D1*
X4773587D2*
X5884043D1*
X1118182Y4404290D2*
X1183182D1*
X4755231D2*
X5884043D1*
X1118182Y4341123D2*
X1252636D1*
X1383778D2*
X1506636D1*
X1637778D2*
X1760636D1*
X1891778D2*
X2014636D1*
X2145778D2*
X2268636D1*
X2399778D2*
X2522636D1*
X2653778D2*
X2776636D1*
X2907778D2*
X3030636D1*
X3161778D2*
X3197028D1*
X3415778D2*
X3538636D1*
X3669778D2*
X3792636D1*
X3923778D2*
X4046636D1*
X4177778D2*
X4300636D1*
X4431778D2*
X4554636D1*
X4685778D2*
X5884043D1*
X1118182Y4277957D2*
X3196951D1*
X3377207D2*
X5884043D1*
X1118182Y4214790D2*
X3133451D1*
X3637284D2*
X5884043D1*
X1118182Y4151623D2*
X3133451D1*
X3684661D2*
X5884167D1*
X1118182Y4088457D2*
X3133451D1*
X3694335D2*
X5884167D1*
X1118182Y4025290D2*
X3133451D1*
X3675483D2*
X5884167D1*
X1118182Y3962123D2*
X3133451D1*
X3440707D2*
X3478129D1*
X3604046D2*
X4412133D1*
X4574281D2*
X5884167D1*
X1118182Y3898957D2*
X3196951D1*
X3377207D2*
X4356942D1*
X4629471D2*
X5884167D1*
X1118182Y3835790D2*
X3196951D1*
X3377207D2*
X4344664D1*
X4641750D2*
X5884167D1*
X1118182Y3772623D2*
X3196951D1*
X3377207D2*
X4362027D1*
X4624386D2*
X5884167D1*
X1118182Y3709457D2*
X3133451D1*
X3665809D2*
X4414365D1*
X4572048D2*
X5884167D1*
X1118182Y3646290D2*
X3133451D1*
X3692598D2*
X4357562D1*
X4628851D2*
X5884167D1*
X1118182Y3583123D2*
X3133451D1*
X3689498D2*
X4344664D1*
X4641750D2*
X5884167D1*
X3171518Y3769140D2*
X3203393D1*
X3203268Y3950884D1*
X3139769Y3950810D1*
Y4245390D1*
X3203393D1*
X3203268Y4374796D1*
X3182783Y4356840D1*
X3163077Y4344764D1*
X3141724Y4335919D1*
X3119250Y4330523D1*
X3096208Y4328710D1*
X3073167Y4330523D1*
X3050693Y4335919D1*
X3029340Y4344764D1*
X3009634Y4356840D1*
X2992059Y4371850D1*
X2977048Y4389425D1*
X2969277Y4401446D1*
X2955824Y4382268D1*
X2942786Y4368397D1*
X2928068Y4356323D1*
X2911915Y4346249D1*
X2894598Y4338342D1*
X2876406Y4332735D1*
X2857643Y4329521D1*
X2838621Y4328754D1*
X2819660Y4330446D1*
X2801075Y4334570D1*
X2783178Y4341057D1*
X2766266Y4349797D1*
X2750623Y4360646D1*
X2736510Y4373422D1*
X2724163Y4387911D1*
X2715238Y4401416D1*
X2700209Y4380343D1*
X2683866Y4364000D1*
X2665167Y4350415D1*
X2644574Y4339922D1*
X2622593Y4332780D1*
X2599765Y4329164D1*
X2576652D1*
X2553824Y4332780D1*
X2531843Y4339922D1*
X2511250Y4350415D1*
X2492551Y4364000D1*
X2476208Y4380343D1*
X2461277Y4401446D1*
X2446209Y4380343D1*
X2429866Y4364000D1*
X2411167Y4350415D1*
X2390574Y4339922D1*
X2368593Y4332780D1*
X2345765Y4329164D1*
X2322652D1*
X2299824Y4332780D1*
X2277843Y4339922D1*
X2257250Y4350415D1*
X2238551Y4364000D1*
X2222208Y4380343D1*
X2207277Y4401446D1*
X2192209Y4380343D1*
X2175866Y4364000D1*
X2157167Y4350415D1*
X2136574Y4339922D1*
X2114593Y4332780D1*
X2091765Y4329164D1*
X2068652D1*
X2045824Y4332780D1*
X2023843Y4339922D1*
X2003250Y4350415D1*
X1984551Y4364000D1*
X1968208Y4380343D1*
X1953277Y4401446D1*
X1938209Y4380343D1*
X1921866Y4364000D1*
X1903167Y4350415D1*
X1882574Y4339922D1*
X1860593Y4332780D1*
X1837765Y4329164D1*
X1814652D1*
X1791824Y4332780D1*
X1769843Y4339922D1*
X1749250Y4350415D1*
X1730551Y4364000D1*
X1714208Y4380343D1*
X1699277Y4401446D1*
X1684209Y4380343D1*
X1667866Y4364000D1*
X1649167Y4350415D1*
X1628574Y4339922D1*
X1606593Y4332780D1*
X1583765Y4329164D1*
X1560652D1*
X1537824Y4332780D1*
X1515843Y4339922D1*
X1495250Y4350415D1*
X1476551Y4364000D1*
X1460208Y4380343D1*
X1445277Y4401446D1*
X1430209Y4380343D1*
X1413866Y4364000D1*
X1395167Y4350415D1*
X1374574Y4339922D1*
X1352593Y4332780D1*
X1329765Y4329164D1*
X1306652D1*
X1283824Y4332780D1*
X1261843Y4339922D1*
X1241250Y4350415D1*
X1222551Y4364000D1*
X1206208Y4380343D1*
X1192623Y4399041D1*
X1182130Y4419635D1*
X1174988Y4441616D1*
X1171372Y4464444D1*
Y4487556D1*
X1174988Y4510384D1*
X1182130Y4532365D1*
X1192623Y4552959D1*
X1206208Y4571657D1*
X1222551Y4588000D1*
X1241250Y4601585D1*
X1261843Y4612078D1*
X1283824Y4619220D1*
X1306652Y4622836D1*
X1329765D1*
X1352593Y4619220D1*
X1374574Y4612078D1*
X1395167Y4601585D1*
X1413866Y4588000D1*
X1430209Y4571657D1*
X1445140Y4550554D1*
X1460208Y4571657D1*
X1476551Y4588000D1*
X1495250Y4601585D1*
X1515843Y4612078D1*
X1537824Y4619220D1*
X1560652Y4622836D1*
X1583765D1*
X1606593Y4619220D1*
X1628574Y4612078D1*
X1649167Y4601585D1*
X1667866Y4588000D1*
X1684209Y4571657D1*
X1699140Y4550554D1*
X1714208Y4571657D1*
X1730551Y4588000D1*
X1749250Y4601585D1*
X1769843Y4612078D1*
X1791824Y4619220D1*
X1814652Y4622836D1*
X1837765D1*
X1860593Y4619220D1*
X1882574Y4612078D1*
X1903167Y4601585D1*
X1921866Y4588000D1*
X1938209Y4571657D1*
X1953140Y4550554D1*
X1968208Y4571657D1*
X1984551Y4588000D1*
X2003250Y4601585D1*
X2023843Y4612078D1*
X2045824Y4619220D1*
X2068652Y4622836D1*
X2091765D1*
X2114593Y4619220D1*
X2136574Y4612078D1*
X2157167Y4601585D1*
X2175866Y4588000D1*
X2192209Y4571657D1*
X2207140Y4550554D1*
X2222208Y4571657D1*
X2238551Y4588000D1*
X2257250Y4601585D1*
X2277843Y4612078D1*
X2299824Y4619220D1*
X2322652Y4622836D1*
X2345765D1*
X2368593Y4619220D1*
X2390574Y4612078D1*
X2411167Y4601585D1*
X2429866Y4588000D1*
X2446209Y4571657D1*
X2461140Y4550554D1*
X2476208Y4571657D1*
X2492551Y4588000D1*
X2511250Y4601585D1*
X2531843Y4612078D1*
X2553824Y4619220D1*
X2576652Y4622836D1*
X2599765D1*
X2622593Y4619220D1*
X2644574Y4612078D1*
X2665167Y4601585D1*
X2683866Y4588000D1*
X2700209Y4571657D1*
X2715140Y4550554D1*
X2729119Y4570367D1*
X2742235Y4584165D1*
X2757021Y4596156D1*
X2773229Y4606139D1*
X2790590Y4613949D1*
X2808814Y4619454D1*
X2827595Y4622563D1*
X2846620Y4623224D1*
X2865572Y4621425D1*
X2884133Y4617197D1*
X2901994Y4610611D1*
X2918856Y4601776D1*
X2934438Y4590839D1*
X2948479Y4577985D1*
X2960745Y4563426D1*
X2969195Y4550558D1*
X2984208Y4571657D1*
X3000551Y4588000D1*
X3019250Y4601585D1*
X3039843Y4612078D1*
X3061824Y4619220D1*
X3084652Y4622836D1*
X3107765D1*
X3130593Y4619220D1*
X3152574Y4612078D1*
X3173167Y4601585D1*
X3191866Y4588000D1*
X3208209Y4571657D1*
X3223140Y4550554D1*
X3233705Y4565945D1*
X2772031Y5027986D1*
X2763518Y5039702D1*
X2756944Y5052605D1*
X2752468Y5066379D1*
X2750203Y5080682D1*
X2749918Y5123270D1*
X2738059Y5133850D1*
X2723048Y5151425D1*
X2715277Y5163446D1*
X2700209Y5142343D1*
X2683866Y5126000D1*
X2665167Y5112415D1*
X2644574Y5101922D1*
X2622593Y5094780D1*
X2599765Y5091164D1*
X2576652D1*
X2553824Y5094780D1*
X2531843Y5101922D1*
X2511250Y5112415D1*
X2492551Y5126000D1*
X2476208Y5142343D1*
X2461277Y5163446D1*
X2446209Y5142343D1*
X2429866Y5126000D1*
X2411167Y5112415D1*
X2390574Y5101922D1*
X2368593Y5094780D1*
X2345765Y5091164D1*
X2322652D1*
X2299824Y5094780D1*
X2277843Y5101922D1*
X2257250Y5112415D1*
X2238551Y5126000D1*
X2222208Y5142343D1*
X2207277Y5163446D1*
X2192209Y5142343D1*
X2175866Y5126000D1*
X2157167Y5112415D1*
X2136574Y5101922D1*
X2114593Y5094780D1*
X2091765Y5091164D1*
X2068652D1*
X2045824Y5094780D1*
X2023843Y5101922D1*
X2003250Y5112415D1*
X1984551Y5126000D1*
X1968208Y5142343D1*
X1953277Y5163446D1*
X1938209Y5142343D1*
X1921866Y5126000D1*
X1903167Y5112415D1*
X1882574Y5101922D1*
X1860593Y5094780D1*
X1837765Y5091164D1*
X1814652D1*
X1791824Y5094780D1*
X1769843Y5101922D1*
X1749250Y5112415D1*
X1730551Y5126000D1*
X1714208Y5142343D1*
X1699277Y5163446D1*
X1684209Y5142343D1*
X1667866Y5126000D1*
X1649167Y5112415D1*
X1628574Y5101922D1*
X1606593Y5094780D1*
X1583765Y5091164D1*
X1560652D1*
X1537824Y5094780D1*
X1515843Y5101922D1*
X1495250Y5112415D1*
X1476551Y5126000D1*
X1465513Y5136604D1*
X1465499Y5090710D1*
X1170919D1*
Y5385290D1*
X1465499D1*
Y5339525D1*
X1485634Y5357160D1*
X1505340Y5369236D1*
X1526693Y5378081D1*
X1549167Y5383477D1*
X1572208Y5385290D1*
X1595250Y5383477D1*
X1617724Y5378081D1*
X1639077Y5369236D1*
X1658783Y5357160D1*
X1676358Y5342150D1*
X1691369Y5324575D1*
X1699140Y5312554D1*
X1714208Y5333657D1*
X1730551Y5350000D1*
X1749250Y5363585D1*
X1769843Y5374078D1*
X1791824Y5381220D1*
X1814652Y5384836D1*
X1837765D1*
X1860593Y5381220D1*
X1882574Y5374078D1*
X1903167Y5363585D1*
X1921866Y5350000D1*
X1938209Y5333657D1*
X1953140Y5312554D1*
X1968208Y5333657D1*
X1984551Y5350000D1*
X2003250Y5363585D1*
X2023843Y5374078D1*
X2045824Y5381220D1*
X2068652Y5384836D1*
X2077003Y5385164D1*
X2105237Y5413466D1*
X2090474Y5424347D1*
X2075962Y5438859D1*
X2063898Y5455462D1*
X2054581Y5473749D1*
X2048239Y5493268D1*
X2045028Y5513538D1*
Y5534062D1*
X2048239Y5554332D1*
X2054581Y5573851D1*
X2063898Y5592138D1*
X2075962Y5608741D1*
X2090474Y5623253D1*
X2107078Y5635317D1*
X2125364Y5644634D1*
X2144883Y5650976D1*
X2165153Y5654187D1*
X2185677D1*
X2205947Y5650976D1*
X2225466Y5644634D1*
X2243753Y5635317D1*
X2260356Y5623253D1*
X2274869Y5608741D1*
X2286152Y5593305D1*
X2299079Y5601508D1*
X2317558Y5608325D1*
X2337118Y5610640D1*
X2337966Y5610607D1*
X2636139Y5610640D1*
X2636232Y5857273D1*
X2518135Y5857123D1*
X2518105Y5673103D1*
X2213525D1*
Y5712170D1*
X2201329Y5702188D1*
X2180953Y5689702D1*
X2158875Y5680557D1*
X2135639Y5674978D1*
X2111815Y5673103D1*
X2087992Y5674978D1*
X2064755Y5680557D1*
X2042677Y5689702D1*
X2022301Y5702188D1*
X2004130Y5717708D1*
X1988610Y5735880D1*
X1984899Y5741433D1*
X1973617Y5726489D1*
X1956720Y5709591D1*
X1937386Y5695545D1*
X1916094Y5684696D1*
X1893367Y5677311D1*
X1869764Y5673573D1*
X1845867D1*
X1822264Y5677311D1*
X1799536Y5684696D1*
X1778244Y5695545D1*
X1758911Y5709591D1*
X1742013Y5726489D1*
X1730899Y5741433D1*
X1715188Y5721526D1*
X1701359Y5708442D1*
X1686005Y5697186D1*
X1669367Y5687934D1*
X1651705Y5680829D1*
X1633294Y5675984D1*
X1614423Y5673473D1*
X1595386Y5673337D1*
X1576481Y5675577D1*
X1558002Y5680158D1*
X1540240Y5687008D1*
X1523471Y5696021D1*
X1507958Y5707056D1*
X1493943Y5719940D1*
X1481645Y5734472D1*
X1471255Y5750425D1*
X1462938Y5767550D1*
X1456822Y5785578D1*
X1453003Y5804229D1*
X1451541Y5823210D1*
X1452458Y5842226D1*
X1454910Y5857174D1*
X1318829Y5857123D1*
X1339824Y5844039D1*
X1354262Y5831634D1*
X1366916Y5817412D1*
X1377557Y5801629D1*
X1385997Y5784566D1*
X1392083Y5766529D1*
X1395708Y5747842D1*
X1396670Y5723805D1*
X1394551Y5704888D1*
X1389925Y5686423D1*
X1382876Y5668740D1*
X1373530Y5652157D1*
X1370143Y5647232D1*
X1392955Y5652980D1*
X1413415Y5654590D1*
X1433875Y5652980D1*
X1453831Y5648189D1*
X1472793Y5640335D1*
X1490292Y5629611D1*
X1505898Y5616282D1*
X1519226Y5600676D1*
X1529950Y5583177D1*
X1537804Y5564216D1*
X1542595Y5544260D1*
X1544205Y5523800D1*
X1542595Y5503340D1*
X1537804Y5483384D1*
X1529950Y5464423D1*
X1519226Y5446924D1*
X1505898Y5431318D1*
X1490292Y5417989D1*
X1472793Y5407265D1*
X1453831Y5399411D1*
X1433875Y5394620D1*
X1413415Y5393010D1*
X1392955Y5394620D1*
X1372999Y5399411D1*
X1354038Y5407265D1*
X1336539Y5417989D1*
X1320933Y5431318D1*
X1307604Y5446924D1*
X1296880Y5464423D1*
X1289026Y5483384D1*
X1284235Y5503340D1*
X1282625Y5523800D1*
X1284235Y5544260D1*
X1289026Y5564216D1*
X1296880Y5583177D1*
X1305308Y5597241D1*
X1287235Y5591675D1*
X1268458Y5588547D1*
X1249431Y5587954D1*
X1230496Y5589906D1*
X1211991Y5594368D1*
X1194246Y5601261D1*
X1177581Y5610460D1*
X1162293Y5621801D1*
X1148655Y5635082D1*
X1136912Y5650064D1*
X1127274Y5666479D1*
X1119913Y5684034D1*
X1114962Y5702415D1*
X1112508Y5721292D1*
X1112596Y5740327D1*
X1115224Y5759181D1*
X1120345Y5777515D1*
X1127868Y5795001D1*
X1137657Y5811327D1*
X1149538Y5826200D1*
X1163298Y5839354D1*
X1178691Y5850553D1*
X1190372Y5857146D1*
X1111832Y5857123D1*
X1111811Y3523520D1*
X3139718Y3524819D1*
X3139768Y3769140D1*
X3171518D1*
X3370824D2*
X3434348D1*
Y3723375D1*
X3450771Y3738222D1*
X3466535Y3748895D1*
X3483543Y3757446D1*
X3501512Y3763732D1*
X3520142Y3767647D1*
X3539121Y3769127D1*
X3558132Y3768147D1*
X3576858Y3764723D1*
X3594987Y3758912D1*
X3612214Y3750812D1*
X3628253Y3740558D1*
X3642835Y3728320D1*
X3655717Y3714304D1*
X3666684Y3698744D1*
X3675552Y3681899D1*
X3682173Y3664051D1*
X3686438Y3645498D1*
X3688348Y3621850D1*
X3687118Y3602853D1*
X3683448Y3584173D1*
X3677399Y3566123D1*
X3669073Y3549004D1*
X3658609Y3533101D1*
X3652100Y3525130D1*
X3955792Y3525341D1*
X3972672Y3532099D1*
X3994383Y3537312D1*
X4016642Y3539063D1*
X4038901Y3537312D1*
X4060612Y3532099D1*
X4077237Y3525400D1*
X4364822Y3525603D1*
X4356676Y3546932D1*
X4352550Y3565515D1*
X4350941Y3584483D1*
X4351878Y3603496D1*
X4355344Y3622213D1*
X4361278Y3640300D1*
X4369574Y3657434D1*
X4380082Y3673306D1*
X4392614Y3687634D1*
X4406947Y3700161D1*
X4422824Y3710663D1*
X4428610Y3714219D1*
X4409572Y3725885D1*
X4392594Y3740386D1*
X4378093Y3757364D1*
X4366427Y3776402D1*
X4357883Y3797030D1*
X4352670Y3818741D1*
X4350918Y3841000D1*
X4352670Y3863259D1*
X4357883Y3884970D1*
X4366427Y3905598D1*
X4378093Y3924636D1*
X4392594Y3941614D1*
X4409572Y3956115D1*
X4428610Y3967781D1*
X4449238Y3976326D1*
X4470949Y3981538D1*
X4493208Y3983290D1*
X4515468Y3981538D1*
X4537178Y3976326D1*
X4557807Y3967781D1*
X4576844Y3956115D1*
X4593823Y3941614D1*
X4608323Y3924636D1*
X4619990Y3905598D1*
X4628534Y3884970D1*
X4633747Y3863259D1*
X4635498Y3841000D1*
X4633747Y3818741D1*
X4628534Y3797030D1*
X4619990Y3776402D1*
X4608323Y3757364D1*
X4593823Y3740386D1*
X4576844Y3725885D1*
X4557371Y3714018D1*
X4573345Y3704578D1*
X4588323Y3692829D1*
X4601598Y3679186D1*
X4612933Y3663893D1*
X4622125Y3647224D1*
X4629010Y3629477D1*
X4633465Y3610970D1*
X4635498Y3587000D1*
X4634225Y3568007D1*
X4630428Y3549354D1*
X4624175Y3531374D1*
X4621634Y3525745D1*
X5890554Y3526595D1*
X5890303Y5240723D1*
X5871028Y5232774D1*
X5849318Y5227562D1*
X5827058Y5225810D1*
X5804799Y5227562D1*
X5783802Y5232573D1*
X5783590Y4917026D1*
X5779748Y4897707D1*
X5771501Y4879820D1*
X5759307Y4864351D1*
X5758684Y4863776D1*
X5476276Y4581685D1*
X5459898Y4570742D1*
X5441419Y4563925D1*
X5421858Y4561610D1*
X5421011Y4561643D1*
X4740102Y4561610D1*
X4751445Y4542868D1*
X4760290Y4521515D1*
X4765685Y4499041D1*
X4767498Y4476000D1*
X4765685Y4452959D1*
X4760290Y4430485D1*
X4751445Y4409132D1*
X4739369Y4389425D1*
X4724358Y4371850D1*
X4706783Y4356840D1*
X4687077Y4344764D1*
X4665724Y4335919D1*
X4643250Y4330523D1*
X4620208Y4328710D1*
X4597167Y4330523D1*
X4574693Y4335919D1*
X4553340Y4344764D1*
X4533634Y4356840D1*
X4516059Y4371850D1*
X4501048Y4389425D1*
X4493277Y4401446D1*
X4478209Y4380343D1*
X4461866Y4364000D1*
X4443167Y4350415D1*
X4422574Y4339922D1*
X4400593Y4332780D1*
X4377765Y4329164D1*
X4354652D1*
X4331824Y4332780D1*
X4309843Y4339922D1*
X4289250Y4350415D1*
X4270551Y4364000D1*
X4254208Y4380343D1*
X4239277Y4401446D1*
X4224209Y4380343D1*
X4207866Y4364000D1*
X4189167Y4350415D1*
X4168574Y4339922D1*
X4146593Y4332780D1*
X4123765Y4329164D1*
X4100652D1*
X4077824Y4332780D1*
X4055843Y4339922D1*
X4035250Y4350415D1*
X4016551Y4364000D1*
X4000208Y4380343D1*
X3985277Y4401446D1*
X3970209Y4380343D1*
X3953866Y4364000D1*
X3935167Y4350415D1*
X3914574Y4339922D1*
X3892593Y4332780D1*
X3869765Y4329164D1*
X3846652D1*
X3823824Y4332780D1*
X3801843Y4339922D1*
X3781250Y4350415D1*
X3762551Y4364000D1*
X3746208Y4380343D1*
X3731277Y4401446D1*
X3716209Y4380343D1*
X3699866Y4364000D1*
X3681167Y4350415D1*
X3660574Y4339922D1*
X3638593Y4332780D1*
X3615765Y4329164D1*
X3592652D1*
X3569824Y4332780D1*
X3547843Y4339922D1*
X3527250Y4350415D1*
X3508551Y4364000D1*
X3492208Y4380343D1*
X3477277Y4401446D1*
X3462209Y4380343D1*
X3445866Y4364000D1*
X3427167Y4350415D1*
X3406574Y4339922D1*
X3384593Y4332780D1*
X3370782Y4330231D1*
X3370849Y4245294D1*
X3434349Y4245390D1*
Y4199625D1*
X3450771Y4214472D1*
X3466535Y4225145D1*
X3483543Y4233696D1*
X3501512Y4239982D1*
X3520142Y4243897D1*
X3539121Y4245377D1*
X3558132Y4244397D1*
X3576858Y4240973D1*
X3594987Y4235162D1*
X3612214Y4227062D1*
X3628253Y4216808D1*
X3642835Y4204570D1*
X3655717Y4190554D1*
X3666684Y4174994D1*
X3675552Y4158149D1*
X3682173Y4140301D1*
X3686438Y4121748D1*
X3688348Y4098100D1*
X3687118Y4079103D1*
X3683448Y4060423D1*
X3677399Y4042373D1*
X3669073Y4025254D1*
X3658609Y4009351D1*
X3646180Y3994932D1*
X3631996Y3982235D1*
X3616293Y3971474D1*
X3599332Y3962828D1*
X3581399Y3956442D1*
X3562791Y3952422D1*
X3543821Y3950836D1*
X3524804Y3951710D1*
X3506059Y3955029D1*
X3487899Y3960738D1*
X3470626Y3968741D1*
X3454530Y3978906D1*
X3439880Y3991062D1*
X3434364Y3996594D1*
X3434349Y3950810D1*
X3370725D1*
X3370848Y3769066D1*
X3659343Y4649589D2*
X3639258Y4652153D1*
X3620868Y4657074D1*
X3603267Y4664326D1*
X3586748Y4673788D1*
X3571587Y4685300D1*
X3561364Y4695094D1*
X3561349Y4649310D1*
X3411404D1*
X3424873Y4634170D1*
X3432439Y4621822D1*
X3437981Y4608443D1*
X3441479Y4593377D1*
X3462209Y4571657D1*
X3477140Y4550554D1*
X3492208Y4571657D1*
X3508551Y4588000D1*
X3527250Y4601585D1*
X3547843Y4612078D1*
X3569824Y4619220D1*
X3592652Y4622836D1*
X3615765D1*
X3630573Y4620816D1*
X3659230Y4649519D1*
X3561346Y4898072D2*
X3577771Y4912972D1*
X3593535Y4923645D1*
X3610543Y4932196D1*
X3628512Y4938482D1*
X3647142Y4942397D1*
X3666121Y4943877D1*
X3685132Y4942897D1*
X3703858Y4939473D1*
X3721987Y4933662D1*
X3739214Y4925562D1*
X3755253Y4915308D1*
X3769835Y4903070D1*
X3782717Y4889054D1*
X3793684Y4873494D1*
X3802552Y4856649D1*
X3809173Y4838801D1*
X3813438Y4820248D1*
X3815060Y4805287D1*
X3997391Y4987315D1*
X4013768Y4998258D1*
X4032248Y5005075D1*
X4051808Y5007390D1*
X4052656Y5007357D1*
X5220977Y5007390D1*
X5362322Y5148861D1*
X5362268Y5232542D1*
X5341318Y5227562D1*
X5319058Y5225810D1*
X5296799Y5227562D1*
X5275088Y5232774D1*
X5254460Y5241319D1*
X5235422Y5252985D1*
X5218444Y5267486D1*
X5203943Y5284464D1*
X5192076Y5303938D1*
X5180173Y5284464D1*
X5165673Y5267486D1*
X5148694Y5252985D1*
X5129657Y5241319D1*
X5109028Y5232774D1*
X5087318Y5227562D1*
X5065058Y5225810D1*
X5042799Y5227562D1*
X5021088Y5232774D1*
X5000460Y5241319D1*
X4981422Y5252985D1*
X4964444Y5267486D1*
X4949943Y5284464D1*
X4938277Y5303502D1*
X4929733Y5324130D1*
X4924520Y5345841D1*
X4922768Y5368100D1*
X4924520Y5390359D1*
X4929733Y5412070D1*
X4938277Y5432698D1*
X4949943Y5451736D1*
X4964444Y5468714D1*
X4977070Y5479784D1*
X4922769Y5479810D1*
Y5764390D1*
X5207349D1*
Y5710241D1*
X5218444Y5722714D1*
X5235422Y5737215D1*
X5254460Y5748881D1*
X5275088Y5757426D1*
X5296799Y5762638D1*
X5319058Y5764390D1*
X5341318Y5762638D1*
X5363028Y5757426D1*
X5383657Y5748881D1*
X5402694Y5737215D1*
X5419673Y5722714D1*
X5434173Y5705736D1*
X5446041Y5686262D1*
X5457943Y5705736D1*
X5472444Y5722714D1*
X5489422Y5737215D1*
X5508460Y5748881D1*
X5529088Y5757426D1*
X5550799Y5762638D1*
X5573058Y5764390D1*
X5595318Y5762638D1*
X5617028Y5757426D1*
X5637657Y5748881D1*
X5656694Y5737215D1*
X5673673Y5722714D1*
X5688173Y5705736D1*
X5700041Y5686262D1*
X5711943Y5705736D1*
X5726444Y5722714D1*
X5743422Y5737215D1*
X5762460Y5748881D1*
X5783088Y5757426D1*
X5804799Y5762638D1*
X5827058Y5764390D1*
X5849318Y5762638D1*
X5871028Y5757426D1*
X5890270Y5749521D1*
X5890208Y5857123D1*
X4784291D1*
X4798717Y5841554D1*
X4809684Y5825994D1*
X4818552Y5809149D1*
X4825173Y5791301D1*
X4829438Y5772748D1*
X4831348Y5749100D1*
X4830118Y5730103D1*
X4826448Y5711423D1*
X4820399Y5693373D1*
X4812073Y5676254D1*
X4801609Y5660351D1*
X4785541Y5642380D1*
X4831349Y5642390D1*
Y5347810D1*
X4718363D1*
X4732209Y5333657D1*
X4745794Y5314959D1*
X4756287Y5294365D1*
X4763429Y5272384D1*
X4767044Y5249556D1*
Y5226444D1*
X4763429Y5203616D1*
X4756287Y5181635D1*
X4745794Y5161041D1*
X4732209Y5142343D1*
X4715866Y5126000D1*
X4697167Y5112415D1*
X4676574Y5101922D1*
X4654593Y5094780D1*
X4631765Y5091164D1*
X4608652D1*
X4585824Y5094780D1*
X4563843Y5101922D1*
X4543250Y5112415D1*
X4524551Y5126000D1*
X4508208Y5142343D1*
X4493277Y5163446D1*
X4478209Y5142343D1*
X4461866Y5126000D1*
X4443167Y5112415D1*
X4422574Y5101922D1*
X4400593Y5094780D1*
X4377765Y5091164D1*
X4354652D1*
X4331824Y5094780D1*
X4309843Y5101922D1*
X4289250Y5112415D1*
X4270551Y5126000D1*
X4254208Y5142343D1*
X4239277Y5163446D1*
X4224209Y5142343D1*
X4207866Y5126000D1*
X4189167Y5112415D1*
X4168574Y5101922D1*
X4146593Y5094780D1*
X4123765Y5091164D1*
X4100652D1*
X4077824Y5094780D1*
X4055843Y5101922D1*
X4035250Y5112415D1*
X4016551Y5126000D1*
X4000208Y5142343D1*
X3985277Y5163446D1*
X3970209Y5142343D1*
X3953866Y5126000D1*
X3935167Y5112415D1*
X3914574Y5101922D1*
X3892593Y5094780D1*
X3869765Y5091164D1*
X3846652D1*
X3823824Y5094780D1*
X3801843Y5101922D1*
X3781250Y5112415D1*
X3762551Y5126000D1*
X3746208Y5142343D1*
X3731277Y5163446D1*
X3716209Y5142343D1*
X3699866Y5126000D1*
X3681167Y5112415D1*
X3660574Y5101922D1*
X3638593Y5094780D1*
X3615765Y5091164D1*
X3592652D1*
X3569824Y5094780D1*
X3547843Y5101922D1*
X3527250Y5112415D1*
X3508551Y5126000D1*
X3492208Y5142343D1*
X3477277Y5163446D1*
X3462209Y5142343D1*
X3445866Y5126000D1*
X3427167Y5112415D1*
X3406574Y5101922D1*
X3384593Y5094780D1*
X3361765Y5091164D1*
X3338652D1*
X3315824Y5094780D1*
X3293843Y5101922D1*
X3273250Y5112415D1*
X3254551Y5126000D1*
X3238208Y5142343D1*
X3223277Y5163446D1*
X3209824Y5144268D1*
X3196786Y5130397D1*
X3182068Y5118323D1*
X3165915Y5108249D1*
X3148598Y5100342D1*
X3130406Y5094735D1*
X3111643Y5091521D1*
X3092621Y5090754D1*
X3073660Y5092446D1*
X3055075Y5096570D1*
X3037178Y5103057D1*
X3020266Y5111797D1*
X3004623Y5122646D1*
X2990510Y5135422D1*
X2978163Y5149911D1*
X2969238Y5163416D1*
X2954209Y5142343D1*
X2936056Y5124573D1*
X3266765Y4793884D1*
X3266769Y4943890D1*
X3561349D1*
Y4898125D1*
X4568519Y5642390D2*
X4582533D1*
X4566013Y5661011D1*
X4555638Y5676972D1*
X4547407Y5694138D1*
X4541460Y5712221D1*
X4537895Y5730921D1*
X4536771Y5749925D1*
X4538107Y5768915D1*
X4541882Y5787573D1*
X4548032Y5805589D1*
X4556454Y5822662D1*
X4567007Y5838505D1*
X4579516Y5852856D1*
X4583960Y5857144D1*
X4367077Y5857123D1*
X4382592Y5849106D1*
X4397482Y5838288D1*
X4410496Y5825274D1*
X4421315Y5810384D1*
X4429670Y5793985D1*
X4435358Y5776481D1*
X4438237Y5758302D1*
Y5739898D1*
X4435358Y5721719D1*
X4429670Y5704215D1*
X4419896Y5685692D1*
X4430144Y5665823D1*
X4435782Y5647648D1*
X4438407Y5628801D1*
X4437912Y5609425D1*
X4434327Y5590736D1*
X4427768Y5572873D1*
X4422789Y5563363D1*
X4431264Y5550649D1*
X4436739Y5535809D1*
X4438599Y5520100D1*
X4437770Y5459573D1*
X4433477Y5444349D1*
X4425747Y5430548D1*
X4418890Y5422519D1*
X4385861Y5390661D1*
X4376389Y5384928D1*
X4400593Y5381220D1*
X4422574Y5374078D1*
X4443167Y5363585D1*
X4461866Y5350000D1*
X4478209Y5333657D1*
X4493140Y5312554D1*
X4508208Y5333657D1*
X4524551Y5350000D1*
X4536751Y5359243D1*
X4536769Y5642390D1*
X4568519D1*
X2920812Y5857188D2*
Y5610679D1*
X3032518Y5610640D1*
X3118279Y5696335D1*
X3118305Y5857040D1*
X2920715Y5857123D1*
X3651511Y5646193D2*
X3640397Y5631249D1*
X3623500Y5614351D1*
X3604166Y5600305D1*
X3582874Y5589456D1*
X3560147Y5582071D1*
X3536544Y5578333D1*
X3512647D1*
X3493946Y5581096D1*
X3312209Y5399636D1*
X3295832Y5388693D1*
X3277352Y5381875D1*
X3257792Y5379560D1*
X3256944Y5379593D1*
X3138133Y5379197D1*
X3155994Y5372611D1*
X3172856Y5363776D1*
X3188438Y5352839D1*
X3202479Y5339985D1*
X3214745Y5325426D1*
X3223195Y5312558D1*
X3238208Y5333657D1*
X3254551Y5350000D1*
X3273250Y5363585D1*
X3293843Y5374078D1*
X3315824Y5381220D1*
X3338652Y5384836D1*
X3361765D1*
X3384593Y5381220D1*
X3406574Y5374078D1*
X3427167Y5363585D1*
X3445866Y5350000D1*
X3462209Y5333657D1*
X3477140Y5312554D1*
X3492208Y5333657D1*
X3508551Y5350000D1*
X3527250Y5363585D1*
X3547843Y5374078D1*
X3569824Y5381220D1*
X3592652Y5384836D1*
X3615765D1*
X3638593Y5381220D1*
X3660574Y5374078D1*
X3681167Y5363585D1*
X3699866Y5350000D1*
X3716209Y5333657D1*
X3731140Y5312554D1*
X3746208Y5333657D1*
X3762551Y5350000D1*
X3781250Y5363585D1*
X3801843Y5374078D1*
X3823824Y5381220D1*
X3846652Y5384836D1*
X3869765D1*
X3892593Y5381220D1*
X3914574Y5374078D1*
X3935167Y5363585D1*
X3953866Y5350000D1*
X3970209Y5333657D1*
X3985140Y5312554D1*
X4000208Y5333657D1*
X4016551Y5350000D1*
X4035250Y5363585D1*
X4055843Y5374078D1*
X4077824Y5381220D1*
X4100652Y5384836D1*
X4123765D1*
X4146593Y5381220D1*
X4168574Y5374078D1*
X4189167Y5363585D1*
X4207866Y5350000D1*
X4224209Y5333657D1*
X4239140Y5312554D1*
X4254208Y5333657D1*
X4270551Y5350000D1*
X4289250Y5363585D1*
X4309843Y5374078D1*
X4320058Y5377847D1*
X4191029Y5378017D1*
X4175515Y5381103D1*
X4161149Y5387726D1*
X4148153Y5398140D1*
X4116869Y5430548D1*
X4109140Y5444349D1*
X4104847Y5459573D1*
X4104018Y5470100D1*
X4104847Y5530627D1*
X4109140Y5545851D1*
X4117521Y5560479D1*
X4116869Y5559652D1*
X4117752Y5567028D1*
X4110209Y5584498D1*
X4105591Y5602959D1*
X4104019Y5621923D1*
X4105534Y5640891D1*
X4110096Y5659365D1*
X4117585Y5676858D1*
X4122712Y5685550D1*
X4112947Y5704215D1*
X4107259Y5721719D1*
X4104380Y5739898D1*
Y5758302D1*
X4107259Y5776481D1*
X4112947Y5793985D1*
X4121302Y5810384D1*
X4132120Y5825274D1*
X4145135Y5838288D1*
X4160025Y5849106D1*
X4175737Y5857146D1*
X3862797Y5857123D1*
X3882389Y5841594D1*
X3895482Y5827773D1*
X3906748Y5812427D1*
X3916012Y5795796D1*
X3923128Y5778138D1*
X3927985Y5759730D1*
X3930508Y5740861D1*
X3930356Y5717468D1*
X3927587Y5698633D1*
X3922491Y5680290D1*
X3915145Y5662727D1*
X3905666Y5646217D1*
X3894201Y5631019D1*
X3880929Y5617370D1*
X3866058Y5605484D1*
X3849820Y5595546D1*
X3832470Y5587711D1*
X3814277Y5582102D1*
X3795527Y5578807D1*
X3776512Y5577878D1*
X3757529Y5579327D1*
X3738876Y5583134D1*
X3720844Y5589238D1*
X3703714Y5597545D1*
X3687754Y5607923D1*
X3673214Y5620212D1*
X3660321Y5634219D1*
X3651617Y5646129D1*
X5616314Y5232573D2*
X5595318Y5227562D1*
X5573058Y5225810D1*
X5550799Y5227562D1*
X5529802Y5232573D1*
X5529590Y5107526D1*
X5525748Y5088207D1*
X5517501Y5070320D1*
X5505307Y5054851D1*
X5504684Y5054276D1*
X5309976Y4859885D1*
X5293598Y4848942D1*
X5275119Y4842125D1*
X5255558Y4839810D1*
X5254711Y4839843D1*
X4086390Y4839810D1*
X3869765Y4622836D1*
X3884573Y4620816D1*
X3973191Y4709115D1*
X3989568Y4720058D1*
X4008048Y4726875D1*
X4027608Y4729190D1*
X4028456Y4729157D1*
X5387277Y4729190D1*
X5616320Y4958358D1*
X5616268Y5232542D1*
X2628375Y5379589D2*
X2644574Y5374078D1*
X2665167Y5363585D1*
X2683866Y5350000D1*
X2700209Y5333657D1*
X2715140Y5312554D1*
X2730208Y5333657D1*
X2746551Y5350000D1*
X2765250Y5363585D1*
X2785843Y5374078D1*
X2802041Y5379589D1*
X2628869Y5379560D1*
X2882375Y5379589D2*
X2898574Y5374078D1*
X2919167Y5363585D1*
X2937866Y5350000D1*
X2954209Y5333657D1*
X2969140Y5312554D1*
X2983119Y5332367D1*
X2996235Y5346165D1*
X3011021Y5358156D1*
X3027229Y5368139D1*
X3044590Y5375949D1*
X3055688Y5379588D1*
X2882869Y5379560D1*
X3541058Y3769016D2*
D13*
Y3621850D1*
X3688224D1*
X3541058Y4245266D2*
Y3950934D1*
Y4098100D2*
X3688224D1*
X3668058Y4943766D2*
Y4649434D1*
Y4796600D2*
X3815224D1*
X4536892Y5749100D2*
X4831224D1*
X1254522Y5730153D2*
Y5587987D1*
X1112356Y5730153D2*
X1396688D1*
X3778595D2*
Y5577987D1*
Y5730153D2*
X3930761D1*
X1603815Y5825393D2*
Y5673227D1*
X1451649Y5825393D2*
X1603815D1*
X4351042Y3587000D2*
X4635374D1*
X5065058Y5764266D2*
Y5622100D1*
X4922893D2*
X5065058D1*
X3096208Y5238000D2*
Y5090834D1*
X2842208Y4623166D2*
Y4328834D1*
X4104142Y5622100D2*
X4438474D1*
D18*
X3287058Y3621850D3*
D19*
X3541058D3*
Y4098100D3*
D18*
X3287058D3*
D19*
X3668058Y4796600D3*
D18*
X3414058D3*
X4684058Y5495100D3*
D19*
Y5749100D3*
D20*
X2778522Y5730153D3*
D21*
X1762522Y2809153D3*
X2270522D3*
X1254522Y5730153D3*
D22*
X3524568Y1428480D3*
D23*
X3024568D3*
D22*
X5683835Y1475623D3*
D23*
X5183835D3*
D24*
X3270595Y5730153D3*
D25*
X3524595D3*
X3778595D3*
D24*
X2365815Y5825393D3*
D25*
X2111815D3*
X1857815D3*
X1603815D3*
D21*
X4016642Y3396773D3*
Y3142773D3*
Y2126773D3*
Y1364773D3*
X4493208Y3841000D3*
Y3587000D3*
Y2571000D3*
Y1809000D3*
D20*
X5065058Y5622100D3*
D21*
Y5368100D3*
X5319058Y5622100D3*
Y5368100D3*
X5573058Y5622100D3*
Y5368100D3*
X5827058Y5622100D3*
Y5368100D3*
D26*
X1413415Y5523800D3*
D27*
X2175415D3*
D28*
X1254682Y1984047D3*
D29*
X2778682D3*
D28*
X1254682Y2365007D3*
D29*
X2778682D3*
D18*
X1318208Y5238000D3*
D19*
X1572208D3*
X1826208D3*
X2080208D3*
X2334208D3*
X2588208D3*
X2842208D3*
X3096208D3*
X3350208D3*
X3604208D3*
X3858208D3*
X4112208D3*
X4366208D3*
X4620208D3*
Y4476000D3*
X4366208D3*
X4112208D3*
X3858208D3*
X3604208D3*
X3350208D3*
X3096208D3*
X2842208D3*
X2588208D3*
X2334208D3*
X2080208D3*
X1826208D3*
X1572208D3*
X1318208D3*
D67*
X4271308Y5495100D3*
D30*
Y5622100D3*
Y5749100D3*
D31*
X2207082Y1285620D3*
X1457082Y1465620D3*
M02*
