G04 DipTrace 3.0.0.2*
G04 BottomSilk.gbr*
%MOIN*%
G04 #@! TF.FileFunction,Legend,Bot*
G04 #@! TF.Part,Single*
%ADD10C,0.009843*%
%ADD12C,0.002992*%
%ADD32C,0.015431*%
%ADD81C,0.00772*%
%ADD82C,0.004632*%
%ADD83C,0.009264*%
%FSLAX26Y26*%
G04*
G70*
G90*
G75*
G01*
G04 BotSilk*
%LPD*%
X873582Y1581881D2*
D10*
Y1605521D1*
X885401Y1593701D2*
X861787D1*
X643707D2*
G02X643707Y1593701I99965J0D01*
G01*
X1113641Y1533701D2*
X973761D1*
X1113641Y1653701D2*
X973761D1*
Y1533701D2*
G02X973761Y1653701I-60J60000D01*
G01*
X1113641D2*
G02X1113641Y1533701I60J-60000D01*
G01*
X2343701Y2293701D2*
Y1893701D1*
X2143701Y2293701D2*
Y1893701D1*
X2343701Y2293701D2*
X2143701D1*
X2343701Y1893701D2*
X2143701D1*
X713551Y2163701D2*
Y2223701D1*
X873851Y2163701D2*
X713551D1*
X873851D2*
Y2223701D1*
X713551D1*
X485039Y1996065D2*
X1902362D1*
X485039Y1791337D2*
X1902362D1*
Y1996065D2*
Y1791337D1*
X485039Y1996065D2*
Y1917332D1*
Y1791337D2*
Y1870070D1*
Y1917332D2*
G02X485039Y1870070I-103J-23631D01*
G01*
D32*
X1948895Y2344530D3*
X1859645Y2345569D2*
D10*
Y2085740D1*
X1749410Y2345569D2*
Y2085740D1*
X1859645D2*
X1749410D1*
X1859645Y2345569D2*
X1749410D1*
X1524685Y753209D2*
D12*
X1898701D1*
X1523635Y750217D2*
X1899751D1*
X1522618Y747224D2*
X1524685D1*
X1898701D2*
X1900768D1*
X1521693Y744232D2*
D3*
X1901693D2*
D3*
X1530669Y738248D2*
X1892717D1*
X1530669Y735256D2*
X1892717D1*
X1530669Y732264D2*
X1892717D1*
X1530669Y729272D2*
X1892717D1*
X1530669Y726280D2*
X1650354D1*
X1770039D2*
X1892717D1*
X1530669Y723287D2*
X1626417D1*
X1689252D2*
X1737126D1*
X1796969D2*
X1892717D1*
X1530669Y720295D2*
X1626417D1*
X1689252D2*
X1737126D1*
X1796969D2*
X1892717D1*
X1530669Y717303D2*
X1611173D1*
X1644370D2*
X1776024D1*
X1812457D2*
X1892717D1*
X1530669Y714311D2*
X1597769D1*
X1626680D2*
X1795095D1*
X1825446D2*
X1892717D1*
X1530669Y711319D2*
X1586792D1*
X1611991D2*
X1810643D1*
X1835574D2*
X1892717D1*
X1530669Y708327D2*
X1578162D1*
X1600857D2*
X1822212D1*
X1843348D2*
X1892717D1*
X1530669Y705335D2*
X1571082D1*
X1591743D2*
X1831518D1*
X1849957D2*
X1892717D1*
X1530669Y702343D2*
X1564922D1*
X1583151D2*
X1840189D1*
X1856197D2*
X1892717D1*
X1530669Y699350D2*
X1559879D1*
X1575269D2*
X1602606D1*
X1632402D2*
X1635982D1*
X1665315D2*
X1668307D1*
X1691542D2*
X1707793D1*
X1722165D2*
X1728726D1*
X1746102D2*
X1757608D1*
X1778428D2*
X1800663D1*
X1826290D2*
X1848101D1*
X1861819D2*
X1892717D1*
X1530669Y696358D2*
X1556072D1*
X1568856D2*
X1600114D1*
X1632402D2*
X1634232D1*
X1665315D2*
X1668307D1*
X1695889D2*
X1706043D1*
X1722165D2*
X1726871D1*
X1749094D2*
X1756867D1*
X1780189D2*
X1796316D1*
X1828278D2*
X1854525D1*
X1866337D2*
X1892717D1*
X1530669Y693366D2*
X1553238D1*
X1564137D2*
X1598337D1*
X1632402D2*
X1633227D1*
X1665315D2*
X1668307D1*
X1699061D2*
X1705041D1*
X1722165D2*
X1725485D1*
X1747713D2*
X1756092D1*
X1781297D2*
X1793156D1*
X1828859D2*
X1859247D1*
X1869672D2*
X1892717D1*
X1530669Y690374D2*
X1550873D1*
X1560616D2*
X1597339D1*
X1632402D2*
X1632717D1*
X1665315D2*
X1668307D1*
X1701388D2*
X1704554D1*
X1722165D2*
X1724257D1*
X1746866D2*
X1755556D1*
X1782164D2*
X1790943D1*
X1828053D2*
X1862769D1*
X1872294D2*
X1892717D1*
X1530669Y687382D2*
X1548699D1*
X1557653D2*
X1596956D1*
X1611457D2*
X1617441D1*
X1632402D2*
X1647362D1*
X1665315D2*
X1668307D1*
X1674291D2*
X1680276D1*
X1703325D2*
X1704336D1*
X1722165D2*
X1723148D1*
X1746536D2*
X1755173D1*
X1783091D2*
X1789477D1*
X1805945D2*
X1811929D1*
X1826890D2*
X1865732D1*
X1874487D2*
X1892717D1*
X1530669Y684390D2*
X1546794D1*
X1555180D2*
X1597127D1*
X1611457D2*
X1617441D1*
X1632402D2*
X1647362D1*
X1665315D2*
X1683268D1*
X1705219D2*
X1704213D1*
X1722165D2*
D3*
X1746713D2*
X1754665D1*
X1783953D2*
X1788661D1*
X1804934D2*
X1811929D1*
X1829882D2*
X1868194D1*
X1876075D2*
X1892717D1*
X1530669Y681398D2*
X1545286D1*
X1553441D2*
X1597748D1*
X1632402D2*
X1635394D1*
X1665315D2*
X1675339D1*
X1686260D2*
D3*
X1707205D2*
D3*
X1747238D2*
X1753895D1*
X1784612D2*
X1788268D1*
X1804148D2*
X1811929D1*
X1826890D2*
X1870187D1*
X1876991D2*
X1892717D1*
X1530669Y678406D2*
X1544147D1*
X1552279D2*
X1598378D1*
X1632402D2*
X1635394D1*
X1665315D2*
X1669225D1*
X1686260D2*
D3*
X1747774D2*
X1753096D1*
X1767047D2*
D3*
X1785282D2*
X1788099D1*
X1803722D2*
X1811929D1*
X1828067D2*
X1870791D1*
X1877426D2*
X1892717D1*
X1530669Y675413D2*
X1544510D1*
X1552251D2*
X1598507D1*
X1632402D2*
X1635394D1*
X1665315D2*
X1666818D1*
X1686260D2*
D3*
X1747117D2*
X1752462D1*
X1767047D2*
D3*
X1786141D2*
X1788031D1*
X1804449D2*
X1811929D1*
X1828115D2*
X1870165D1*
X1877504D2*
X1892717D1*
X1530669Y672421D2*
X1545470D1*
X1553607D2*
X1598064D1*
X1632402D2*
X1635394D1*
X1665315D2*
X1666005D1*
X1686260D2*
D3*
X1704213D2*
X1707205D1*
X1746102D2*
X1751801D1*
X1767047D2*
D3*
X1787067D2*
X1788006D1*
X1805601D2*
X1811929D1*
X1828227D2*
X1868949D1*
X1877096D2*
X1892717D1*
X1530669Y669429D2*
X1546961D1*
X1555846D2*
X1597423D1*
X1614449D2*
X1617441D1*
X1632402D2*
X1647362D1*
X1665315D2*
X1665593D1*
X1683268D2*
D3*
X1703750D2*
X1705824D1*
X1728150D2*
D3*
X1749094D2*
X1750956D1*
X1787991D2*
X1787997D1*
X1807147D2*
X1811929D1*
X1828410D2*
X1867003D1*
X1876015D2*
X1892717D1*
X1530669Y666437D2*
X1548792D1*
X1558681D2*
X1596953D1*
X1613068D2*
X1617441D1*
X1632402D2*
X1647362D1*
X1665315D2*
X1665430D1*
X1702973D2*
X1704976D1*
X1727115D2*
X1728150D1*
X1746102D2*
X1750124D1*
X1788992D2*
X1787992D1*
X1808937D2*
X1811929D1*
X1828280D2*
X1864423D1*
X1874413D2*
X1892717D1*
X1530669Y663445D2*
X1550800D1*
X1561646D2*
X1596696D1*
X1612208D2*
X1617441D1*
X1632402D2*
D3*
X1665315D2*
X1665477D1*
X1701857D2*
X1704655D1*
X1726110D2*
X1728150D1*
X1747312D2*
X1749468D1*
X1789889D2*
X1790984D1*
X1828249D2*
X1861612D1*
X1872513D2*
X1892717D1*
X1530669Y660453D2*
X1553356D1*
X1565038D2*
X1596576D1*
X1611773D2*
X1617441D1*
X1632402D2*
X1632952D1*
X1665315D2*
X1665916D1*
X1700424D2*
X1704924D1*
X1725079D2*
X1728150D1*
X1747188D2*
X1748720D1*
X1790466D2*
X1790984D1*
X1828848D2*
X1858295D1*
X1869990D2*
X1892717D1*
X1530669Y657461D2*
X1556951D1*
X1569918D2*
X1596524D1*
X1611572D2*
X1617441D1*
X1632402D2*
X1634002D1*
X1665315D2*
X1666930D1*
X1696701D2*
X1705867D1*
X1723747D2*
X1728150D1*
X1746692D2*
X1747563D1*
X1764055D2*
X1776024D1*
X1790781D2*
X1793976D1*
X1829882D2*
X1853447D1*
X1866308D2*
X1892717D1*
X1530669Y654469D2*
X1561436D1*
X1576739D2*
X1596496D1*
X1611457D2*
X1617441D1*
X1632402D2*
X1635394D1*
X1665315D2*
X1668307D1*
X1692244D2*
X1707205D1*
X1722165D2*
X1728150D1*
X1746102D2*
D3*
X1764055D2*
X1776024D1*
X1790984D2*
X1799961D1*
X1826890D2*
X1846639D1*
X1861460D2*
X1892717D1*
X1530669Y651476D2*
X1566267D1*
X1584619D2*
X1838765D1*
X1856031D2*
X1892717D1*
X1530669Y648484D2*
X1571548D1*
X1592745D2*
X1830640D1*
X1850459D2*
X1892717D1*
X1530669Y645492D2*
X1578358D1*
X1602234D2*
X1821151D1*
X1844120D2*
X1892717D1*
X1530669Y642500D2*
X1587565D1*
X1614773D2*
X1808612D1*
X1835737D2*
X1892717D1*
X1530669Y639508D2*
X1599372D1*
X1630342D2*
X1793044D1*
X1824359D2*
X1892717D1*
X1530669Y636516D2*
X1613704D1*
X1647362D2*
X1776024D1*
X1809944D2*
X1892717D1*
X1530669Y633524D2*
X1629409D1*
X1692244D2*
X1725157D1*
X1793976D2*
X1892717D1*
X1530669Y630531D2*
X1629409D1*
X1692244D2*
X1725157D1*
X1793976D2*
X1892717D1*
X1530669Y627539D2*
X1656339D1*
X1767047D2*
X1892717D1*
X1530669Y624547D2*
X1892717D1*
X1530669Y621555D2*
X1892717D1*
X1722165Y591634D2*
X1728150D1*
X1743110D2*
X1746102D1*
X1761063D2*
X1773031D1*
X1787992D2*
X1793976D1*
X1799961D2*
X1805945D1*
X1820906D2*
X1823898D1*
X1722165Y588642D2*
X1728150D1*
X1743110D2*
X1746102D1*
X1759217D2*
X1774875D1*
X1787992D2*
X1793976D1*
X1799961D2*
X1805945D1*
X1820906D2*
X1823898D1*
X1722165Y585650D2*
X1728150D1*
X1743110D2*
X1746102D1*
X1757588D2*
X1776476D1*
X1787992D2*
X1793976D1*
X1799961D2*
X1805945D1*
X1820906D2*
X1823898D1*
X1722165Y582657D2*
X1728150D1*
X1743110D2*
X1746102D1*
X1756232D2*
X1777698D1*
X1787992D2*
X1793976D1*
X1799961D2*
X1805945D1*
X1820906D2*
X1823898D1*
X1722165Y579665D2*
X1728150D1*
X1743110D2*
X1746102D1*
X1755079D2*
X1761063D1*
X1768863D2*
X1778520D1*
X1787992D2*
X1793976D1*
X1799961D2*
X1805945D1*
X1820906D2*
X1823898D1*
X1596496Y576673D2*
X1602480D1*
X1722165D2*
X1746102D1*
X1772909D2*
X1779257D1*
X1787992D2*
X1793976D1*
X1799961D2*
X1823898D1*
X1595359Y573681D2*
X1603617D1*
X1722165D2*
X1746102D1*
X1774504D2*
X1780119D1*
X1787992D2*
X1793976D1*
X1799961D2*
X1823898D1*
X1594085Y570689D2*
X1604891D1*
X1722165D2*
X1746102D1*
X1775373D2*
X1780844D1*
X1787992D2*
X1793976D1*
X1799961D2*
X1823898D1*
X1592789Y567697D2*
X1606187D1*
X1722165D2*
X1746102D1*
X1755079D2*
X1764055D1*
X1775745D2*
X1781008D1*
X1787992D2*
X1793976D1*
X1799961D2*
X1823898D1*
X1591623Y564705D2*
X1597072D1*
X1602606D2*
X1607353D1*
X1722165D2*
X1746102D1*
X1755079D2*
X1763032D1*
X1775678D2*
X1780578D1*
X1787992D2*
X1793976D1*
X1799961D2*
X1823898D1*
X1590577Y561713D2*
X1595217D1*
X1603095D2*
X1608388D1*
X1722165D2*
X1728150D1*
X1743110D2*
X1746102D1*
X1755079D2*
X1762134D1*
X1775212D2*
X1779929D1*
X1787992D2*
X1793976D1*
X1799961D2*
X1805945D1*
X1820906D2*
X1823898D1*
X1589423Y558720D2*
X1593822D1*
X1604205D2*
X1609437D1*
X1722177D2*
X1728150D1*
X1743110D2*
X1746102D1*
X1755079D2*
X1761520D1*
X1772890D2*
X1779344D1*
X1787992D2*
X1793965D1*
X1799972D2*
X1805933D1*
X1820906D2*
X1823898D1*
X1588127Y555728D2*
X1592514D1*
X1605794D2*
X1610359D1*
X1722282D2*
X1728150D1*
X1743110D2*
X1746102D1*
X1755079D2*
X1761063D1*
X1770039D2*
X1778600D1*
X1787992D2*
X1793859D1*
X1800078D2*
X1805828D1*
X1820906D2*
X1823898D1*
X1586817Y552736D2*
X1591156D1*
X1607464D2*
X1610988D1*
X1722666D2*
X1728150D1*
X1743110D2*
X1746102D1*
X1755079D2*
X1777380D1*
X1787992D2*
X1793476D1*
X1800461D2*
X1805444D1*
X1820906D2*
X1823898D1*
X1585644Y549744D2*
X1589822D1*
X1608992D2*
X1617441D1*
X1723408D2*
X1728150D1*
X1743110D2*
X1746102D1*
X1755079D2*
X1775814D1*
X1787992D2*
X1792734D1*
X1801203D2*
X1804703D1*
X1820906D2*
X1823898D1*
X1584582Y546752D2*
X1588641D1*
X1610269D2*
X1617915D1*
X1724298D2*
X1728150D1*
X1743110D2*
X1746102D1*
X1755079D2*
D3*
X1764055D2*
X1774336D1*
X1787992D2*
X1791844D1*
X1802093D2*
X1803812D1*
X1820906D2*
X1823898D1*
X1583311Y543760D2*
X1587588D1*
X1611375D2*
X1618762D1*
X1725157D2*
X1728150D1*
X1743110D2*
X1746102D1*
X1755079D2*
D3*
X1764055D2*
X1773031D1*
X1787992D2*
X1790984D1*
X1802953D2*
D3*
X1820906D2*
X1823898D1*
X1581528Y540768D2*
X1586432D1*
X1612652D2*
X1619918D1*
X1579131Y537776D2*
X1585135D1*
X1596496D2*
X1605472D1*
X1614336D2*
X1621170D1*
X1576568Y534783D2*
X1583825D1*
X1597519D2*
X1605472D1*
X1616365D2*
X1622321D1*
X1574517Y531791D2*
X1582629D1*
X1598421D2*
X1605484D1*
X1618306D2*
X1623363D1*
X1572992Y528799D2*
X1581380D1*
X1599102D2*
X1605589D1*
X1619878D2*
X1624515D1*
X1571618Y525807D2*
X1579568D1*
X1599859D2*
X1605971D1*
X1621310D2*
X1625810D1*
X1570230Y522815D2*
X1577208D1*
X1601019D2*
X1606687D1*
X1622734D2*
X1627120D1*
X1568884Y519823D2*
X1574986D1*
X1590512D2*
X1593504D1*
X1602480D2*
X1607454D1*
X1624097D2*
X1628293D1*
X1567698Y516831D2*
X1573249D1*
X1591905D2*
X1607976D1*
X1625289D2*
X1629343D1*
X1680276D2*
X1701220D1*
X1716181D2*
X1725157D1*
X1749094D2*
X1752087D1*
X1764055D2*
X1787992D1*
X1802953D2*
X1805945D1*
X1823898D2*
X1832874D1*
X1844843D2*
X1853819D1*
X1865787D2*
X1871772D1*
X1566644Y513839D2*
X1571737D1*
X1592869D2*
X1608254D1*
X1626347D2*
X1630497D1*
X1679252D2*
X1701220D1*
X1714696D2*
X1726408D1*
X1748072D2*
X1753121D1*
X1764306D2*
X1787764D1*
X1802953D2*
X1805945D1*
X1822412D2*
X1834371D1*
X1845305D2*
X1853933D1*
X1865325D2*
X1870749D1*
X1565488Y510846D2*
X1570280D1*
X1593685D2*
X1608386D1*
X1627504D2*
X1631794D1*
X1678354D2*
X1701220D1*
X1713063D2*
X1728066D1*
X1747181D2*
X1754117D1*
X1764873D2*
X1787267D1*
X1802953D2*
X1805945D1*
X1820780D2*
X1836109D1*
X1846047D2*
X1854316D1*
X1864583D2*
X1869858D1*
X1564190Y507854D2*
X1568903D1*
X1594607D2*
X1595908D1*
X1608465D2*
D3*
X1628801D2*
X1633104D1*
X1677741D2*
X1701220D1*
X1711721D2*
X1730067D1*
X1746602D2*
X1755065D1*
X1767378D2*
X1785619D1*
X1802953D2*
X1805945D1*
X1819438D2*
X1837832D1*
X1846821D2*
X1855034D1*
X1863808D2*
X1869291D1*
X1562880Y504862D2*
X1567705D1*
X1595557D2*
X1597658D1*
X1630112D2*
X1634277D1*
X1692244D2*
X1701220D1*
X1710901D2*
X1716731D1*
X1725157D2*
X1731895D1*
X1746204D2*
X1756075D1*
X1770423D2*
X1783919D1*
X1802953D2*
X1805945D1*
X1818621D2*
X1823898D1*
X1832286D2*
X1839366D1*
X1847369D2*
X1855801D1*
X1863284D2*
X1868986D1*
X1561707Y501870D2*
X1566646D1*
X1596490D2*
X1598672D1*
X1631285D2*
X1635327D1*
X1692244D2*
X1701220D1*
X1710470D2*
X1714789D1*
X1725157D2*
X1733071D1*
X1745690D2*
X1756974D1*
X1773020D2*
X1782396D1*
X1802953D2*
X1805945D1*
X1818211D2*
X1823886D1*
X1834036D2*
X1840543D1*
X1847857D2*
X1856323D1*
X1863006D2*
X1868749D1*
X1560657Y498878D2*
X1565488D1*
X1597506D2*
X1599275D1*
X1632335D2*
X1636482D1*
X1692244D2*
X1701220D1*
X1710197D2*
X1713189D1*
X1725157D2*
X1733680D1*
X1744920D2*
X1757562D1*
X1774930D2*
X1780784D1*
X1802953D2*
X1805945D1*
X1818030D2*
X1823772D1*
X1835038D2*
X1841246D1*
X1848747D2*
X1856601D1*
X1862879D2*
X1868313D1*
X1559503Y495886D2*
X1564191D1*
X1598509D2*
X1599971D1*
X1633490D2*
X1637778D1*
X1680276D2*
X1701220D1*
X1725157D2*
X1733955D1*
X1744132D2*
X1757965D1*
X1775510D2*
X1779016D1*
X1802953D2*
X1805945D1*
X1817956D2*
X1823310D1*
X1835524D2*
X1841597D1*
X1850233D2*
X1856733D1*
X1862825D2*
X1867576D1*
X1558206Y492894D2*
X1562880D1*
X1599468D2*
X1601156D1*
X1634786D2*
X1639089D1*
X1680276D2*
X1701220D1*
X1707205D2*
X1716181D1*
X1725157D2*
X1734067D1*
X1743591D2*
X1749094D1*
X1755079D2*
X1758481D1*
X1775812D2*
X1780397D1*
X1802941D2*
X1805945D1*
X1817929D2*
X1822287D1*
X1835722D2*
X1841740D1*
X1851787D2*
X1856811D1*
X1862795D2*
X1866801D1*
X1556896Y489902D2*
X1561707D1*
X1600509D2*
X1602704D1*
X1636096D2*
X1640261D1*
X1680276D2*
X1701220D1*
X1707205D2*
X1716058D1*
X1725157D2*
X1734087D1*
X1743205D2*
X1746102D1*
X1755079D2*
X1759253D1*
X1775943D2*
X1781256D1*
X1802827D2*
X1805945D1*
X1817919D2*
X1820906D1*
X1835692D2*
X1841697D1*
X1852838D2*
X1866277D1*
X1555723Y486909D2*
X1560657D1*
X1601539D2*
X1604173D1*
X1637269D2*
X1641311D1*
X1692244D2*
X1701220D1*
X1707205D2*
X1715594D1*
X1725157D2*
X1733892D1*
X1742696D2*
X1760053D1*
X1775995D2*
X1781691D1*
X1802365D2*
X1805945D1*
X1817927D2*
X1822298D1*
X1835261D2*
X1841328D1*
X1853408D2*
X1865987D1*
X1554685Y483917D2*
X1559491D1*
X1602480D2*
X1605472D1*
X1638308D2*
X1642466D1*
X1692244D2*
X1701220D1*
X1707216D2*
X1714570D1*
X1725157D2*
X1733408D1*
X1741927D2*
X1760688D1*
X1776014D2*
X1781872D1*
X1801342D2*
X1805945D1*
X1818043D2*
X1823223D1*
X1834250D2*
X1840503D1*
X1853768D2*
X1865755D1*
X1553635Y480925D2*
X1558078D1*
X1639358D2*
X1643763D1*
X1692244D2*
X1701220D1*
X1707322D2*
X1713189D1*
X1725157D2*
X1731658D1*
X1741140D2*
X1761349D1*
X1776020D2*
X1781845D1*
X1790984D2*
X1793976D1*
X1799961D2*
X1805945D1*
X1818529D2*
X1823898D1*
X1832874D2*
X1839252D1*
X1854254D2*
X1865321D1*
X1552720Y477933D2*
X1556290D1*
X1640280D2*
X1645049D1*
X1677283D2*
X1701220D1*
X1707705D2*
X1729687D1*
X1740610D2*
X1762194D1*
X1776023D2*
X1781491D1*
X1790984D2*
X1805945D1*
X1819629D2*
X1837630D1*
X1855012D2*
X1864583D1*
X1552138Y474941D2*
X1554060D1*
X1640910D2*
X1646003D1*
X1678333D2*
X1701220D1*
X1708447D2*
X1727884D1*
X1740330D2*
X1746652D1*
X1758071D2*
X1763022D1*
X1776023D2*
X1780760D1*
X1790984D2*
X1805945D1*
X1821146D2*
X1835836D1*
X1855801D2*
X1863801D1*
X1551837Y471949D2*
X1646514D1*
X1679351D2*
X1701220D1*
X1709338D2*
X1710197D1*
X1716181D2*
X1726404D1*
X1740197D2*
X1744710D1*
X1758071D2*
X1763610D1*
X1776024D2*
X1779873D1*
X1790984D2*
X1805945D1*
X1822603D2*
X1834246D1*
X1856374D2*
X1863231D1*
X1551696Y468957D2*
X1645606D1*
X1680276D2*
X1701220D1*
X1710197D2*
D3*
X1716181D2*
X1725157D1*
X1740118D2*
X1743110D1*
X1758071D2*
X1764055D1*
X1776024D2*
X1779016D1*
X1790984D2*
X1805945D1*
X1823898D2*
X1832874D1*
X1856811D2*
X1862795D1*
X1551614Y465965D2*
X1644370D1*
X1521693Y433051D2*
D3*
Y430059D2*
D3*
X1901693D2*
D3*
X1521693Y427067D2*
X1524685D1*
X1900103D2*
X1901693D1*
X1521693Y424075D2*
X1524685D1*
X1898701D2*
X1901693D1*
X1524685Y753209D2*
X1523635Y750217D1*
X1522618Y747224D1*
X1521693Y744232D1*
X1898701Y753209D2*
X1899751Y750217D1*
X1900768Y747224D1*
X1901693Y744232D1*
X1524685Y747224D2*
X1521693Y744232D1*
X1898701Y747224D2*
X1901693Y744232D1*
X1530669Y738248D2*
Y735256D1*
Y732264D1*
Y729272D1*
Y726280D1*
Y723287D1*
Y720295D1*
Y717303D1*
Y714311D1*
Y711319D1*
Y708327D1*
Y705335D1*
Y702343D1*
Y699350D1*
Y696358D1*
Y693366D1*
Y690374D1*
Y687382D1*
Y684390D1*
Y681398D1*
Y678406D1*
Y675413D1*
Y672421D1*
Y669429D1*
Y666437D1*
Y663445D1*
Y660453D1*
Y657461D1*
Y654469D1*
Y651476D1*
Y648484D1*
Y645492D1*
Y642500D1*
Y639508D1*
Y636516D1*
Y633524D1*
Y630531D1*
Y627539D1*
Y624547D1*
Y621555D1*
X1892717Y738248D2*
Y735256D1*
Y732264D1*
Y729272D1*
Y726280D1*
Y723287D1*
Y720295D1*
Y717303D1*
Y714311D1*
Y711319D1*
Y708327D1*
Y705335D1*
Y702343D1*
Y699350D1*
Y696358D1*
Y693366D1*
Y690374D1*
Y687382D1*
Y684390D1*
Y681398D1*
Y678406D1*
Y675413D1*
Y672421D1*
Y669429D1*
Y666437D1*
Y663445D1*
Y660453D1*
Y657461D1*
Y654469D1*
Y651476D1*
Y648484D1*
Y645492D1*
Y642500D1*
Y639508D1*
Y636516D1*
Y633524D1*
Y630531D1*
Y627539D1*
Y624547D1*
Y621555D1*
X1674291Y729272D2*
X1650354Y726280D1*
X1626417Y723287D1*
Y720295D1*
X1611173Y717303D1*
X1597769Y714311D1*
X1586792Y711319D1*
X1578162Y708327D1*
X1571082Y705335D1*
X1564922Y702343D1*
X1559879Y699350D1*
X1556072Y696358D1*
X1553238Y693366D1*
X1550873Y690374D1*
X1548699Y687382D1*
X1546794Y684390D1*
X1545286Y681398D1*
X1544147Y678406D1*
X1544510Y675413D1*
X1545470Y672421D1*
X1546961Y669429D1*
X1548792Y666437D1*
X1550800Y663445D1*
X1553356Y660453D1*
X1556951Y657461D1*
X1561436Y654469D1*
X1566267Y651476D1*
X1571548Y648484D1*
X1578358Y645492D1*
X1587565Y642500D1*
X1599372Y639508D1*
X1613704Y636516D1*
X1629409Y633524D1*
Y630531D1*
X1656339Y627539D1*
X1683268Y624547D1*
X1743110Y729272D2*
X1770039Y726280D1*
X1796969Y723287D1*
Y720295D1*
X1812457Y717303D1*
X1825446Y714311D1*
X1835574Y711319D1*
X1843348Y708327D1*
X1849957Y705335D1*
X1856197Y702343D1*
X1861819Y699350D1*
X1866337Y696358D1*
X1869672Y693366D1*
X1872294Y690374D1*
X1874487Y687382D1*
X1876075Y684390D1*
X1876991Y681398D1*
X1877426Y678406D1*
X1877504Y675413D1*
X1877096Y672421D1*
X1876015Y669429D1*
X1874413Y666437D1*
X1872513Y663445D1*
X1869990Y660453D1*
X1866308Y657461D1*
X1861460Y654469D1*
X1856031Y651476D1*
X1850459Y648484D1*
X1844120Y645492D1*
X1835737Y642500D1*
X1824359Y639508D1*
X1809944Y636516D1*
X1793976Y633524D1*
Y630531D1*
X1767047Y627539D1*
X1740118Y624547D1*
X1689252Y723287D2*
Y720295D1*
Y717303D1*
X1737126Y723287D2*
Y720295D1*
Y717303D1*
X1644370D2*
X1626680Y714311D1*
X1611991Y711319D1*
X1600857Y708327D1*
X1591743Y705335D1*
X1583151Y702343D1*
X1575269Y699350D1*
X1568856Y696358D1*
X1564137Y693366D1*
X1560616Y690374D1*
X1557653Y687382D1*
X1555180Y684390D1*
X1553441Y681398D1*
X1552279Y678406D1*
X1552251Y675413D1*
X1553607Y672421D1*
X1555846Y669429D1*
X1558681Y666437D1*
X1561646Y663445D1*
X1565038Y660453D1*
X1569918Y657461D1*
X1576739Y654469D1*
X1584619Y651476D1*
X1592745Y648484D1*
X1602234Y645492D1*
X1614773Y642500D1*
X1630342Y639508D1*
X1647362Y636516D1*
X1776024Y717303D2*
X1795095Y714311D1*
X1810643Y711319D1*
X1822212Y708327D1*
X1831518Y705335D1*
X1840189Y702343D1*
X1848101Y699350D1*
X1854525Y696358D1*
X1859247Y693366D1*
X1862769Y690374D1*
X1865732Y687382D1*
X1868194Y684390D1*
X1870187Y681398D1*
X1870791Y678406D1*
X1870165Y675413D1*
X1868949Y672421D1*
X1867003Y669429D1*
X1864423Y666437D1*
X1861612Y663445D1*
X1858295Y660453D1*
X1853447Y657461D1*
X1846639Y654469D1*
X1838765Y651476D1*
X1830640Y648484D1*
X1821151Y645492D1*
X1808612Y642500D1*
X1793044Y639508D1*
X1776024Y636516D1*
X1605472Y702343D2*
X1602606Y699350D1*
X1600114Y696358D1*
X1598337Y693366D1*
X1597339Y690374D1*
X1596956Y687382D1*
X1597127Y684390D1*
X1597748Y681398D1*
X1598378Y678406D1*
X1598507Y675413D1*
X1598064Y672421D1*
X1597423Y669429D1*
X1596953Y666437D1*
X1596696Y663445D1*
X1596576Y660453D1*
X1596524Y657461D1*
X1596496Y654469D1*
X1632402Y702343D2*
Y699350D1*
Y696358D1*
Y693366D1*
Y690374D1*
Y687382D1*
Y684390D1*
Y681398D1*
Y678406D1*
Y675413D1*
Y672421D1*
Y669429D1*
Y666437D1*
Y663445D1*
Y660453D1*
Y657461D1*
Y654469D1*
X1638386Y702343D2*
X1635982Y699350D1*
X1634232Y696358D1*
X1633227Y693366D1*
X1632717Y690374D1*
X1632402Y687382D1*
X1647362D1*
Y684390D1*
Y681398D1*
X1635394D1*
Y678406D1*
Y675413D1*
Y672421D1*
Y669429D1*
X1647362D1*
Y666437D1*
Y663445D1*
X1632402D1*
X1632952Y660453D1*
X1634002Y657461D1*
X1635394Y654469D1*
X1665315Y702343D2*
Y699350D1*
Y696358D1*
Y693366D1*
Y690374D1*
Y687382D1*
Y684390D1*
Y681398D1*
Y678406D1*
Y675413D1*
Y672421D1*
Y669429D1*
Y666437D1*
Y663445D1*
Y660453D1*
Y657461D1*
Y654469D1*
X1668307Y702343D2*
Y699350D1*
Y696358D1*
Y693366D1*
Y690374D1*
Y687382D1*
X1686260Y702343D2*
X1691542Y699350D1*
X1695889Y696358D1*
X1699061Y693366D1*
X1701388Y690374D1*
X1703325Y687382D1*
X1705219Y684390D1*
X1707205Y681398D1*
X1710197Y702343D2*
X1707793Y699350D1*
X1706043Y696358D1*
X1705041Y693366D1*
X1704554Y690374D1*
X1704336Y687382D1*
X1704213Y684390D1*
X1722165Y702343D2*
Y699350D1*
Y696358D1*
Y693366D1*
Y690374D1*
Y687382D1*
Y684390D1*
X1731142Y702343D2*
X1728726Y699350D1*
X1726871Y696358D1*
X1725485Y693366D1*
X1724257Y690374D1*
X1723148Y687382D1*
X1722165Y684390D1*
X1743110Y702343D2*
X1746102Y699350D1*
X1749094Y696358D1*
X1747713Y693366D1*
X1746866Y690374D1*
X1746536Y687382D1*
X1746713Y684390D1*
X1747238Y681398D1*
X1747774Y678406D1*
X1747117Y675413D1*
X1746102Y672421D1*
X1749094Y669429D1*
X1746102Y666437D1*
X1747312Y663445D1*
X1747188Y660453D1*
X1746692Y657461D1*
X1746102Y654469D1*
X1758071Y702343D2*
X1757608Y699350D1*
X1756867Y696358D1*
X1756092Y693366D1*
X1755556Y690374D1*
X1755173Y687382D1*
X1754665Y684390D1*
X1753895Y681398D1*
X1753096Y678406D1*
X1752462Y675413D1*
X1751801Y672421D1*
X1750956Y669429D1*
X1750124Y666437D1*
X1749468Y663445D1*
X1748720Y660453D1*
X1747563Y657461D1*
X1746102Y654469D1*
X1776024Y702343D2*
X1778428Y699350D1*
X1780189Y696358D1*
X1781297Y693366D1*
X1782164Y690374D1*
X1783091Y687382D1*
X1783953Y684390D1*
X1784612Y681398D1*
X1785282Y678406D1*
X1786141Y675413D1*
X1787067Y672421D1*
X1787991Y669429D1*
X1788992Y666437D1*
X1789889Y663445D1*
X1790466Y660453D1*
X1790781Y657461D1*
X1790984Y654469D1*
X1805945Y702343D2*
X1800663Y699350D1*
X1796316Y696358D1*
X1793156Y693366D1*
X1790943Y690374D1*
X1789477Y687382D1*
X1788661Y684390D1*
X1788268Y681398D1*
X1788099Y678406D1*
X1788031Y675413D1*
X1788006Y672421D1*
X1787997Y669429D1*
X1787992Y666437D1*
X1823898Y702343D2*
X1826290Y699350D1*
X1828278Y696358D1*
X1828859Y693366D1*
X1828053Y690374D1*
X1826890Y687382D1*
X1829882Y684390D1*
X1826890Y681398D1*
X1828067Y678406D1*
X1828115Y675413D1*
X1828227Y672421D1*
X1828410Y669429D1*
X1828280Y666437D1*
X1828249Y663445D1*
X1828848Y660453D1*
X1829882Y657461D1*
X1826890Y654469D1*
X1611457Y687382D2*
Y684390D1*
X1617441Y687382D2*
Y684390D1*
X1674291Y687382D2*
X1680276D2*
X1683268Y684390D1*
X1675339Y681398D1*
X1669225Y678406D1*
X1666818Y675413D1*
X1666005Y672421D1*
X1665593Y669429D1*
X1665430Y666437D1*
X1665477Y663445D1*
X1665916Y660453D1*
X1666930Y657461D1*
X1668307Y654469D1*
X1805945Y687382D2*
X1804934Y684390D1*
X1804148Y681398D1*
X1803722Y678406D1*
X1804449Y675413D1*
X1805601Y672421D1*
X1807147Y669429D1*
X1808937Y666437D1*
X1811929Y687382D2*
Y684390D1*
Y681398D1*
Y678406D1*
Y675413D1*
Y672421D1*
Y669429D1*
Y666437D1*
X1686260Y681398D2*
Y678406D1*
Y675413D1*
Y672421D1*
X1767047Y678406D2*
Y675413D1*
Y672421D1*
X1704213D2*
X1703750Y669429D1*
X1702973Y666437D1*
X1701857Y663445D1*
X1700424Y660453D1*
X1696701Y657461D1*
X1692244Y654469D1*
X1707205Y672421D2*
X1705824Y669429D1*
X1704976Y666437D1*
X1704655Y663445D1*
X1704924Y660453D1*
X1705867Y657461D1*
X1707205Y654469D1*
X1614449Y669429D2*
X1613068Y666437D1*
X1612208Y663445D1*
X1611773Y660453D1*
X1611572Y657461D1*
X1611457Y654469D1*
X1617441Y669429D2*
Y666437D1*
Y663445D1*
Y660453D1*
Y657461D1*
Y654469D1*
X1683268Y669429D2*
X1728150D2*
X1727115Y666437D1*
X1726110Y663445D1*
X1725079Y660453D1*
X1723747Y657461D1*
X1722165Y654469D1*
X1728150Y663445D2*
Y660453D1*
Y657461D1*
Y654469D1*
X1764055Y657461D2*
Y654469D1*
X1776024Y657461D2*
Y654469D1*
X1793976Y657461D2*
X1799961Y654469D1*
X1692244Y636516D2*
Y633524D1*
Y630531D1*
X1725157Y636516D2*
Y633524D1*
Y630531D1*
X1722165Y591634D2*
Y588642D1*
Y585650D1*
Y582657D1*
Y579665D1*
Y576673D1*
Y573681D1*
Y570689D1*
Y567697D1*
Y564705D1*
Y561713D1*
X1722177Y558720D1*
X1722282Y555728D1*
X1722666Y552736D1*
X1723408Y549744D1*
X1724298Y546752D1*
X1725157Y543760D1*
X1728150Y591634D2*
Y588642D1*
Y585650D1*
Y582657D1*
Y579665D1*
X1743110Y591634D2*
Y588642D1*
Y585650D1*
Y582657D1*
Y579665D1*
X1746102Y591634D2*
Y588642D1*
Y585650D1*
Y582657D1*
Y579665D1*
Y576673D1*
Y573681D1*
Y570689D1*
Y567697D1*
Y564705D1*
Y561713D1*
Y558720D1*
Y555728D1*
Y552736D1*
Y549744D1*
Y546752D1*
Y543760D1*
X1761063Y591634D2*
X1759217Y588642D1*
X1757588Y585650D1*
X1756232Y582657D1*
X1755079Y579665D1*
X1773031Y591634D2*
X1774875Y588642D1*
X1776476Y585650D1*
X1777698Y582657D1*
X1778520Y579665D1*
X1779257Y576673D1*
X1780119Y573681D1*
X1780844Y570689D1*
X1781008Y567697D1*
X1780578Y564705D1*
X1779929Y561713D1*
X1779344Y558720D1*
X1778600Y555728D1*
X1777380Y552736D1*
X1775814Y549744D1*
X1774336Y546752D1*
X1773031Y543760D1*
X1787992Y591634D2*
Y588642D1*
Y585650D1*
Y582657D1*
Y579665D1*
Y576673D1*
Y573681D1*
Y570689D1*
Y567697D1*
Y564705D1*
Y561713D1*
Y558720D1*
Y555728D1*
Y552736D1*
Y549744D1*
Y546752D1*
Y543760D1*
X1793976Y591634D2*
Y588642D1*
Y585650D1*
Y582657D1*
Y579665D1*
Y576673D1*
Y573681D1*
Y570689D1*
Y567697D1*
Y564705D1*
Y561713D1*
X1793965Y558720D1*
X1793859Y555728D1*
X1793476Y552736D1*
X1792734Y549744D1*
X1791844Y546752D1*
X1790984Y543760D1*
X1799961Y591634D2*
Y588642D1*
Y585650D1*
Y582657D1*
Y579665D1*
Y576673D1*
Y573681D1*
Y570689D1*
Y567697D1*
Y564705D1*
Y561713D1*
X1799972Y558720D1*
X1800078Y555728D1*
X1800461Y552736D1*
X1801203Y549744D1*
X1802093Y546752D1*
X1802953Y543760D1*
X1805945Y591634D2*
Y588642D1*
Y585650D1*
Y582657D1*
Y579665D1*
X1820906Y591634D2*
Y588642D1*
Y585650D1*
Y582657D1*
Y579665D1*
X1823898Y591634D2*
Y588642D1*
Y585650D1*
Y582657D1*
Y579665D1*
Y576673D1*
Y573681D1*
Y570689D1*
Y567697D1*
Y564705D1*
Y561713D1*
Y558720D1*
Y555728D1*
Y552736D1*
Y549744D1*
Y546752D1*
Y543760D1*
X1764055Y582657D2*
X1761063Y579665D1*
X1764055Y582657D2*
X1768863Y579665D1*
X1772909Y576673D1*
X1774504Y573681D1*
X1775373Y570689D1*
X1775745Y567697D1*
X1775678Y564705D1*
X1775212Y561713D1*
X1772890Y558720D1*
X1770039Y555728D1*
X1596496Y576673D2*
X1595359Y573681D1*
X1594085Y570689D1*
X1592789Y567697D1*
X1591623Y564705D1*
X1590577Y561713D1*
X1589423Y558720D1*
X1588127Y555728D1*
X1586817Y552736D1*
X1585644Y549744D1*
X1584582Y546752D1*
X1583311Y543760D1*
X1581528Y540768D1*
X1579131Y537776D1*
X1576568Y534783D1*
X1574517Y531791D1*
X1572992Y528799D1*
X1571618Y525807D1*
X1570230Y522815D1*
X1568884Y519823D1*
X1567698Y516831D1*
X1566644Y513839D1*
X1565488Y510846D1*
X1564190Y507854D1*
X1562880Y504862D1*
X1561707Y501870D1*
X1560657Y498878D1*
X1559503Y495886D1*
X1558206Y492894D1*
X1556896Y489902D1*
X1555723Y486909D1*
X1554685Y483917D1*
X1553635Y480925D1*
X1552720Y477933D1*
X1552138Y474941D1*
X1551837Y471949D1*
X1551696Y468957D1*
X1551614Y465965D1*
X1602480Y576673D2*
X1603617Y573681D1*
X1604891Y570689D1*
X1606187Y567697D1*
X1607353Y564705D1*
X1608388Y561713D1*
X1609437Y558720D1*
X1610359Y555728D1*
X1610988Y552736D1*
X1611457Y549744D1*
X1617441D1*
X1617915Y546752D1*
X1618762Y543760D1*
X1619918Y540768D1*
X1621170Y537776D1*
X1622321Y534783D1*
X1623363Y531791D1*
X1624515Y528799D1*
X1625810Y525807D1*
X1627120Y522815D1*
X1628293Y519823D1*
X1629343Y516831D1*
X1630497Y513839D1*
X1631794Y510846D1*
X1633104Y507854D1*
X1634277Y504862D1*
X1635327Y501870D1*
X1636482Y498878D1*
X1637778Y495886D1*
X1639089Y492894D1*
X1640261Y489902D1*
X1641311Y486909D1*
X1642466Y483917D1*
X1643763Y480925D1*
X1645049Y477933D1*
X1646003Y474941D1*
X1646514Y471949D1*
X1645606Y468957D1*
X1644370Y465965D1*
X1755079Y567697D2*
Y564705D1*
Y561713D1*
Y558720D1*
Y555728D1*
Y552736D1*
Y549744D1*
Y546752D1*
Y543760D1*
X1764055Y567697D2*
X1763032Y564705D1*
X1762134Y561713D1*
X1761520Y558720D1*
X1761063Y555728D1*
X1599488Y567697D2*
X1597072Y564705D1*
X1595217Y561713D1*
X1593822Y558720D1*
X1592514Y555728D1*
X1591156Y552736D1*
X1589822Y549744D1*
X1588641Y546752D1*
X1587588Y543760D1*
X1586432Y540768D1*
X1585135Y537776D1*
X1583825Y534783D1*
X1582629Y531791D1*
X1581380Y528799D1*
X1579568Y525807D1*
X1577208Y522815D1*
X1574986Y519823D1*
X1573249Y516831D1*
X1571737Y513839D1*
X1570280Y510846D1*
X1568903Y507854D1*
X1567705Y504862D1*
X1566646Y501870D1*
X1565488Y498878D1*
X1564191Y495886D1*
X1562880Y492894D1*
X1561707Y489902D1*
X1560657Y486909D1*
X1559491Y483917D1*
X1558078Y480925D1*
X1556290Y477933D1*
X1554060Y474941D1*
X1551614Y471949D1*
X1602480Y567697D2*
X1602606Y564705D1*
X1603095Y561713D1*
X1604205Y558720D1*
X1605794Y555728D1*
X1607464Y552736D1*
X1608992Y549744D1*
X1610269Y546752D1*
X1611375Y543760D1*
X1612652Y540768D1*
X1614336Y537776D1*
X1616365Y534783D1*
X1618306Y531791D1*
X1619878Y528799D1*
X1621310Y525807D1*
X1622734Y522815D1*
X1624097Y519823D1*
X1625289Y516831D1*
X1626347Y513839D1*
X1627504Y510846D1*
X1628801Y507854D1*
X1630112Y504862D1*
X1631285Y501870D1*
X1632335Y498878D1*
X1633490Y495886D1*
X1634786Y492894D1*
X1636096Y489902D1*
X1637269Y486909D1*
X1638308Y483917D1*
X1639358Y480925D1*
X1640280Y477933D1*
X1640910Y474941D1*
X1641378Y471949D1*
X1728150Y564705D2*
Y561713D1*
Y558720D1*
Y555728D1*
Y552736D1*
Y549744D1*
Y546752D1*
Y543760D1*
X1743110Y564705D2*
Y561713D1*
Y558720D1*
Y555728D1*
Y552736D1*
Y549744D1*
Y546752D1*
Y543760D1*
X1805945Y564705D2*
Y561713D1*
X1805933Y558720D1*
X1805828Y555728D1*
X1805444Y552736D1*
X1804703Y549744D1*
X1803812Y546752D1*
X1802953Y543760D1*
X1820906Y564705D2*
Y561713D1*
Y558720D1*
Y555728D1*
Y552736D1*
Y549744D1*
Y546752D1*
Y543760D1*
X1764055Y549744D2*
Y546752D1*
Y543760D1*
X1596496Y537776D2*
X1597519Y534783D1*
X1598421Y531791D1*
X1599102Y528799D1*
X1599859Y525807D1*
X1601019Y522815D1*
X1602480Y519823D1*
X1605472Y537776D2*
Y534783D1*
X1605484Y531791D1*
X1605589Y528799D1*
X1605971Y525807D1*
X1606687Y522815D1*
X1607454Y519823D1*
X1607976Y516831D1*
X1608254Y513839D1*
X1608386Y510846D1*
X1608465Y507854D1*
X1590512Y519823D2*
X1591905Y516831D1*
X1592869Y513839D1*
X1593685Y510846D1*
X1594607Y507854D1*
X1595557Y504862D1*
X1596490Y501870D1*
X1597506Y498878D1*
X1598509Y495886D1*
X1599468Y492894D1*
X1600509Y489902D1*
X1601539Y486909D1*
X1602480Y483917D1*
X1593504Y519823D2*
X1680276Y516831D2*
X1679252Y513839D1*
X1678354Y510846D1*
X1677741Y507854D1*
X1677283Y504862D1*
X1692244D1*
Y501870D1*
Y498878D1*
Y495886D1*
X1680276D1*
Y492894D1*
Y489902D1*
Y486909D1*
X1692244D1*
Y483917D1*
Y480925D1*
Y477933D1*
X1677283D1*
X1678333Y474941D1*
X1679351Y471949D1*
X1680276Y468957D1*
X1701220Y516831D2*
Y513839D1*
Y510846D1*
Y507854D1*
Y504862D1*
Y501870D1*
Y498878D1*
Y495886D1*
Y492894D1*
Y489902D1*
Y486909D1*
Y483917D1*
Y480925D1*
Y477933D1*
Y474941D1*
Y471949D1*
Y468957D1*
X1716181Y516831D2*
X1714696Y513839D1*
X1713063Y510846D1*
X1711721Y507854D1*
X1710901Y504862D1*
X1710470Y501870D1*
X1710197Y498878D1*
X1725157Y516831D2*
X1726408Y513839D1*
X1728066Y510846D1*
X1730067Y507854D1*
X1731895Y504862D1*
X1733071Y501870D1*
X1733680Y498878D1*
X1733955Y495886D1*
X1734067Y492894D1*
X1734087Y489902D1*
X1733892Y486909D1*
X1733408Y483917D1*
X1731658Y480925D1*
X1729687Y477933D1*
X1727884Y474941D1*
X1726404Y471949D1*
X1725157Y468957D1*
X1749094Y516831D2*
X1748072Y513839D1*
X1747181Y510846D1*
X1746602Y507854D1*
X1746204Y504862D1*
X1745690Y501870D1*
X1744920Y498878D1*
X1744132Y495886D1*
X1743591Y492894D1*
X1743205Y489902D1*
X1742696Y486909D1*
X1741927Y483917D1*
X1741140Y480925D1*
X1740610Y477933D1*
X1740330Y474941D1*
X1740197Y471949D1*
X1740118Y468957D1*
X1752087Y516831D2*
X1753121Y513839D1*
X1754117Y510846D1*
X1755065Y507854D1*
X1756075Y504862D1*
X1756974Y501870D1*
X1757562Y498878D1*
X1757965Y495886D1*
X1758481Y492894D1*
X1759253Y489902D1*
X1760053Y486909D1*
X1760688Y483917D1*
X1761349Y480925D1*
X1762194Y477933D1*
X1763022Y474941D1*
X1763610Y471949D1*
X1764055Y468957D1*
Y516831D2*
X1764306Y513839D1*
X1764873Y510846D1*
X1767378Y507854D1*
X1770423Y504862D1*
X1773020Y501870D1*
X1774930Y498878D1*
X1775510Y495886D1*
X1775812Y492894D1*
X1775943Y489902D1*
X1775995Y486909D1*
X1776014Y483917D1*
X1776020Y480925D1*
X1776023Y477933D1*
Y474941D1*
X1776024Y471949D1*
Y468957D1*
X1787992Y516831D2*
X1787764Y513839D1*
X1787267Y510846D1*
X1785619Y507854D1*
X1783919Y504862D1*
X1782396Y501870D1*
X1780784Y498878D1*
X1779016Y495886D1*
X1780397Y492894D1*
X1781256Y489902D1*
X1781691Y486909D1*
X1781872Y483917D1*
X1781845Y480925D1*
X1781491Y477933D1*
X1780760Y474941D1*
X1779873Y471949D1*
X1779016Y468957D1*
X1802953Y516831D2*
Y513839D1*
Y510846D1*
Y507854D1*
Y504862D1*
Y501870D1*
Y498878D1*
Y495886D1*
X1802941Y492894D1*
X1802827Y489902D1*
X1802365Y486909D1*
X1801342Y483917D1*
X1799961Y480925D1*
X1805945Y516831D2*
Y513839D1*
Y510846D1*
Y507854D1*
Y504862D1*
Y501870D1*
Y498878D1*
Y495886D1*
Y492894D1*
Y489902D1*
Y486909D1*
Y483917D1*
Y480925D1*
Y477933D1*
Y474941D1*
Y471949D1*
Y468957D1*
X1823898Y516831D2*
X1822412Y513839D1*
X1820780Y510846D1*
X1819438Y507854D1*
X1818621Y504862D1*
X1818211Y501870D1*
X1818030Y498878D1*
X1817956Y495886D1*
X1817929Y492894D1*
X1817919Y489902D1*
X1817927Y486909D1*
X1818043Y483917D1*
X1818529Y480925D1*
X1819629Y477933D1*
X1821146Y474941D1*
X1822603Y471949D1*
X1823898Y468957D1*
X1832874Y516831D2*
X1834371Y513839D1*
X1836109Y510846D1*
X1837832Y507854D1*
X1839366Y504862D1*
X1840543Y501870D1*
X1841246Y498878D1*
X1841597Y495886D1*
X1841740Y492894D1*
X1841697Y489902D1*
X1841328Y486909D1*
X1840503Y483917D1*
X1839252Y480925D1*
X1837630Y477933D1*
X1835836Y474941D1*
X1834246Y471949D1*
X1832874Y468957D1*
X1844843Y516831D2*
X1845305Y513839D1*
X1846047Y510846D1*
X1846821Y507854D1*
X1847369Y504862D1*
X1847857Y501870D1*
X1848747Y498878D1*
X1850233Y495886D1*
X1851787Y492894D1*
X1852838Y489902D1*
X1853408Y486909D1*
X1853768Y483917D1*
X1854254Y480925D1*
X1855012Y477933D1*
X1855801Y474941D1*
X1856374Y471949D1*
X1856811Y468957D1*
X1853819Y516831D2*
X1853933Y513839D1*
X1854316Y510846D1*
X1855034Y507854D1*
X1855801Y504862D1*
X1856323Y501870D1*
X1856601Y498878D1*
X1856733Y495886D1*
X1856811Y492894D1*
X1865787Y516831D2*
X1865325Y513839D1*
X1864583Y510846D1*
X1863808Y507854D1*
X1863284Y504862D1*
X1863006Y501870D1*
X1862879Y498878D1*
X1862825Y495886D1*
X1862795Y492894D1*
X1871772Y516831D2*
X1870749Y513839D1*
X1869858Y510846D1*
X1869291Y507854D1*
X1868986Y504862D1*
X1868749Y501870D1*
X1868313Y498878D1*
X1867576Y495886D1*
X1866801Y492894D1*
X1866277Y489902D1*
X1865987Y486909D1*
X1865755Y483917D1*
X1865321Y480925D1*
X1864583Y477933D1*
X1863801Y474941D1*
X1863231Y471949D1*
X1862795Y468957D1*
X1593504Y510846D2*
X1595908Y507854D1*
X1597658Y504862D1*
X1598672Y501870D1*
X1599275Y498878D1*
X1599971Y495886D1*
X1601156Y492894D1*
X1602704Y489902D1*
X1604173Y486909D1*
X1605472Y483917D1*
X1719173Y507854D2*
X1716731Y504862D1*
X1714789Y501870D1*
X1713189Y498878D1*
X1725157Y507854D2*
Y504862D1*
Y501870D1*
Y498878D1*
Y495886D1*
Y492894D1*
Y489902D1*
Y486909D1*
Y483917D1*
Y480925D1*
X1823898Y507854D2*
Y504862D1*
X1823886Y501870D1*
X1823772Y498878D1*
X1823310Y495886D1*
X1822287Y492894D1*
X1820906Y489902D1*
X1822298Y486909D1*
X1823223Y483917D1*
X1823898Y480925D1*
X1829882Y507854D2*
X1832286Y504862D1*
X1834036Y501870D1*
X1835038Y498878D1*
X1835524Y495886D1*
X1835722Y492894D1*
X1835692Y489902D1*
X1835261Y486909D1*
X1834250Y483917D1*
X1832874Y480925D1*
X1707205Y492894D2*
Y489902D1*
Y486909D1*
X1707216Y483917D1*
X1707322Y480925D1*
X1707705Y477933D1*
X1708447Y474941D1*
X1709338Y471949D1*
X1710197Y468957D1*
X1716181Y492894D2*
X1716058Y489902D1*
X1715594Y486909D1*
X1714570Y483917D1*
X1713189Y480925D1*
X1752087Y495886D2*
X1749094Y492894D1*
X1746102Y489902D1*
X1755079Y495886D2*
Y492894D1*
Y489902D1*
X1790984Y480925D2*
Y477933D1*
Y474941D1*
Y471949D1*
Y468957D1*
X1793976Y480925D2*
X1749094Y477933D2*
X1746652Y474941D1*
X1744710Y471949D1*
X1743110Y468957D1*
X1758071Y477933D2*
Y474941D1*
Y471949D1*
Y468957D1*
X1716181Y474941D2*
Y471949D1*
Y468957D1*
X1521693Y433051D2*
Y430059D1*
Y427067D1*
Y424075D1*
X1901693Y430059D2*
X1900103Y427067D1*
X1898701Y424075D1*
X1524685Y427067D2*
Y424075D1*
X1901693Y427067D2*
Y424075D1*
X585335Y1617486D2*
D81*
X587712Y1622239D1*
X592520Y1627047D1*
X597273Y1629424D1*
X606835D1*
X611644Y1627047D1*
X616397Y1622239D1*
X618829Y1617486D1*
X621205Y1610301D1*
Y1598307D1*
X618829Y1591177D1*
X616397Y1586369D1*
X611644Y1581616D1*
X606835Y1579184D1*
X597273D1*
X592520Y1581616D1*
X587712Y1586369D1*
X585335Y1591177D1*
X569896Y1619807D2*
X565088Y1622239D1*
X557902Y1629369D1*
Y1579184D1*
X1062732Y1502486D2*
X1065109Y1507239D1*
X1069917Y1512047D1*
X1074670Y1514424D1*
X1084232D1*
X1089040Y1512047D1*
X1093794Y1507239D1*
X1096225Y1502486D1*
X1098602Y1495301D1*
Y1483307D1*
X1096225Y1476177D1*
X1093794Y1471369D1*
X1089040Y1466616D1*
X1084232Y1464184D1*
X1074670D1*
X1069917Y1466616D1*
X1065109Y1471369D1*
X1062732Y1476177D1*
X1044861Y1502430D2*
Y1504807D1*
X1042484Y1509615D1*
X1040108Y1511992D1*
X1035299Y1514369D1*
X1025738D1*
X1020985Y1511992D1*
X1018608Y1509615D1*
X1016176Y1504807D1*
Y1500054D1*
X1018608Y1495245D1*
X1023361Y1488116D1*
X1047293Y1464184D1*
X1013800D1*
X2174698Y1866924D2*
Y1816684D1*
X2208192Y1866924D1*
Y1816684D1*
X2159259Y1842992D2*
X2137759D1*
X2130574Y1845424D1*
X2128142Y1847801D1*
X2125766Y1852554D1*
Y1857362D1*
X2128142Y1862115D1*
X2130574Y1864547D1*
X2137759Y1866924D1*
X2159259D1*
Y1816684D1*
X2142512Y1842992D2*
X2125766Y1816684D1*
X2079210Y1866924D2*
X2110327D1*
Y1816684D1*
Y1842992D2*
X2091203D1*
X834914Y2272992D2*
X813414D1*
X806229Y2275424D1*
X803797Y2277801D1*
X801420Y2282554D1*
Y2287362D1*
X803797Y2292115D1*
X806229Y2294547D1*
X813414Y2296924D1*
X834914D1*
Y2246684D1*
X818167Y2272992D2*
X801420Y2246684D1*
X781173Y2296869D2*
X754920D1*
X769234Y2277745D1*
X762049D1*
X757296Y2275369D1*
X754920Y2272992D1*
X752488Y2265807D1*
Y2261054D1*
X754920Y2253869D1*
X759673Y2249060D1*
X766858Y2246684D1*
X774043D1*
X781173Y2249060D1*
X783549Y2251492D1*
X785981Y2256245D1*
X1184914Y1898420D2*
Y1862550D1*
X1182537Y1855365D1*
X1177729Y1850612D1*
X1170544Y1848180D1*
X1165790D1*
X1158605Y1850612D1*
X1153797Y1855365D1*
X1151420Y1862550D1*
Y1898420D1*
X1133549Y1886426D2*
Y1888803D1*
X1131173Y1893611D1*
X1128796Y1895988D1*
X1123988Y1898365D1*
X1114426D1*
X1109673Y1895988D1*
X1107296Y1893611D1*
X1104864Y1888803D1*
Y1884050D1*
X1107296Y1879241D1*
X1112049Y1872112D1*
X1135981Y1848180D1*
X1102488D1*
X1620741Y2212955D2*
Y2177085D1*
X1618364Y2169900D1*
X1613555Y2165147D1*
X1606370Y2162715D1*
X1601617D1*
X1594432Y2165147D1*
X1589624Y2169900D1*
X1587247Y2177085D1*
Y2212955D1*
X1566999Y2212899D2*
X1540746D1*
X1555061Y2193776D1*
X1547876D1*
X1543123Y2191400D1*
X1540746Y2189023D1*
X1538315Y2181838D1*
Y2177085D1*
X1540746Y2169900D1*
X1545500Y2165091D1*
X1552685Y2162715D1*
X1559870D1*
X1566999Y2165091D1*
X1569376Y2167523D1*
X1571808Y2172276D1*
X1115342Y1389386D2*
D82*
X1102442D1*
X1098131Y1390845D1*
X1096672Y1392271D1*
X1095246Y1395123D1*
Y1398008D1*
X1096672Y1400860D1*
X1098131Y1402319D1*
X1102442Y1403745D1*
X1115342D1*
Y1373601D1*
X1105294Y1389386D2*
X1095246Y1373601D1*
X1078820Y1393697D2*
X1081672Y1392271D1*
X1084557Y1389386D1*
X1085983Y1385075D1*
Y1382223D1*
X1084557Y1377912D1*
X1081672Y1375060D1*
X1078820Y1373601D1*
X1074509D1*
X1071624Y1375060D1*
X1068772Y1377912D1*
X1067313Y1382223D1*
Y1385075D1*
X1068772Y1389386D1*
X1071624Y1392271D1*
X1074509Y1393697D1*
X1078820D1*
X1058049Y1403745D2*
Y1373601D1*
X1048785Y1403745D2*
Y1373601D1*
X1039522Y1385075D2*
X1022311D1*
Y1387960D1*
X1023737Y1390845D1*
X1025163Y1392271D1*
X1028048Y1393697D1*
X1032359D1*
X1035211Y1392271D1*
X1038096Y1389386D1*
X1039522Y1385075D1*
Y1382223D1*
X1038096Y1377912D1*
X1035211Y1375060D1*
X1032359Y1373601D1*
X1028048D1*
X1025163Y1375060D1*
X1022311Y1377912D1*
X1013047Y1393697D2*
Y1373601D1*
Y1385075D2*
X1011588Y1389386D1*
X1008736Y1392271D1*
X1005851Y1393697D1*
X1001540D1*
X943020Y1399434D2*
X945872Y1402319D1*
X950183Y1403745D1*
X955920D1*
X960231Y1402319D1*
X963116Y1399434D1*
Y1396582D1*
X961657Y1393697D1*
X960231Y1392271D1*
X957379Y1390845D1*
X948757Y1387960D1*
X945872Y1386534D1*
X944446Y1385075D1*
X943020Y1382223D1*
Y1377912D1*
X945872Y1375060D1*
X950183Y1373601D1*
X955920D1*
X960231Y1375060D1*
X963116Y1377912D1*
X933757Y1403745D2*
Y1373601D1*
Y1387960D2*
X929446Y1392271D1*
X926561Y1393697D1*
X922250D1*
X919398Y1392271D1*
X917972Y1387960D1*
Y1373601D1*
X908708Y1393697D2*
Y1379338D1*
X907282Y1375060D1*
X904397Y1373601D1*
X900086D1*
X897234Y1375060D1*
X892923Y1379338D1*
Y1393697D2*
Y1373601D1*
X879349Y1403745D2*
Y1379338D1*
X877923Y1375060D1*
X875038Y1373601D1*
X872186D1*
X883660Y1393697D2*
X873612D1*
X858611Y1403745D2*
Y1379338D1*
X857185Y1375060D1*
X854300Y1373601D1*
X851448D1*
X862922Y1393697D2*
X852874D1*
X842185Y1385075D2*
X824974D1*
Y1387960D1*
X826400Y1390845D1*
X827826Y1392271D1*
X830711Y1393697D1*
X835022D1*
X837874Y1392271D1*
X840759Y1389386D1*
X842185Y1385075D1*
Y1382223D1*
X840759Y1377912D1*
X837874Y1375060D1*
X835022Y1373601D1*
X830711D1*
X827826Y1375060D1*
X824974Y1377912D1*
X815710Y1393697D2*
Y1373601D1*
Y1385075D2*
X814251Y1389386D1*
X811399Y1392271D1*
X808514Y1393697D1*
X804203D1*
X745683Y1403745D2*
Y1373601D1*
X765779Y1403745D1*
Y1373601D1*
X729256Y1393697D2*
X732108Y1392271D1*
X734993Y1389386D1*
X736419Y1385075D1*
Y1382223D1*
X734993Y1377912D1*
X732108Y1375060D1*
X729256Y1373601D1*
X724945D1*
X722060Y1375060D1*
X719208Y1377912D1*
X717749Y1382223D1*
Y1385075D1*
X719208Y1389386D1*
X722060Y1392271D1*
X724945Y1393697D1*
X729256D1*
X691275Y1403745D2*
Y1373601D1*
Y1389386D2*
X694127Y1392271D1*
X697012Y1393697D1*
X701323D1*
X704175Y1392271D1*
X707060Y1389386D1*
X708486Y1385075D1*
Y1382223D1*
X707060Y1377912D1*
X704175Y1375060D1*
X701323Y1373601D1*
X697012D1*
X694127Y1375060D1*
X691275Y1377912D1*
X682011Y1385075D2*
X664800D1*
Y1387960D1*
X666226Y1390845D1*
X667652Y1392271D1*
X670537Y1393697D1*
X674848D1*
X677700Y1392271D1*
X680585Y1389386D1*
X682011Y1385075D1*
Y1382223D1*
X680585Y1377912D1*
X677700Y1375060D1*
X674848Y1373601D1*
X670537D1*
X667652Y1375060D1*
X664800Y1377912D1*
X626376Y1393697D2*
X617754Y1373601D1*
X609165Y1393697D1*
X598443Y1396549D2*
Y1397975D1*
X597017Y1400860D1*
X595591Y1402286D1*
X592706Y1403712D1*
X586969D1*
X584117Y1402286D1*
X582691Y1400860D1*
X581232Y1397975D1*
Y1395123D1*
X582691Y1392238D1*
X585543Y1387960D1*
X599902Y1373601D1*
X579806D1*
X569116Y1376486D2*
X570542Y1375027D1*
X569116Y1373601D1*
X567657Y1375027D1*
X569116Y1376486D1*
X556934Y1396549D2*
Y1397975D1*
X555508Y1400860D1*
X554082Y1402286D1*
X551197Y1403712D1*
X545460D1*
X542609Y1402286D1*
X541183Y1400860D1*
X539723Y1397975D1*
Y1395123D1*
X541183Y1392238D1*
X544034Y1387960D1*
X558394Y1373601D1*
X538298D1*
X750035Y481070D2*
D83*
Y420782D1*
X715613D1*
X528113Y481070D2*
Y420782D1*
X568305Y481070D1*
Y420782D1*
X2005805Y481070D2*
Y438026D1*
X2002953Y429404D1*
X1997183Y423700D1*
X1988561Y420782D1*
X1982857D1*
X1974235Y423700D1*
X1968465Y429404D1*
X1965613Y438026D1*
Y481070D1*
X2218305D2*
Y420782D1*
X2198209D1*
X2189587Y423700D1*
X2183817Y429404D1*
X2180965Y435174D1*
X2178113Y443729D1*
Y458122D1*
X2180965Y466744D1*
X2183817Y472447D1*
X2189587Y478218D1*
X2198209Y481070D1*
X2218305D1*
X1136253Y1303745D2*
D82*
Y1273601D1*
X1126205D1*
X1121894Y1275060D1*
X1119009Y1277912D1*
X1117583Y1280797D1*
X1116157Y1285075D1*
Y1292271D1*
X1117583Y1296582D1*
X1119009Y1299434D1*
X1121894Y1302319D1*
X1126205Y1303745D1*
X1136253D1*
X1106894Y1285075D2*
X1089683D1*
Y1287960D1*
X1091109Y1290845D1*
X1092535Y1292271D1*
X1095420Y1293697D1*
X1099731D1*
X1102583Y1292271D1*
X1105468Y1289386D1*
X1106894Y1285075D1*
Y1282223D1*
X1105468Y1277912D1*
X1102583Y1275060D1*
X1099731Y1273601D1*
X1095420D1*
X1092535Y1275060D1*
X1089683Y1277912D1*
X1064634Y1289386D2*
X1066060Y1292271D1*
X1070371Y1293697D1*
X1074682D1*
X1078993Y1292271D1*
X1080419Y1289386D1*
X1078993Y1286534D1*
X1076108Y1285075D1*
X1068945Y1283649D1*
X1066060Y1282223D1*
X1064634Y1279338D1*
Y1277912D1*
X1066060Y1275060D1*
X1070371Y1273601D1*
X1074682D1*
X1078993Y1275060D1*
X1080419Y1277912D1*
X1055371Y1303745D2*
X1053945Y1302319D1*
X1052486Y1303745D1*
X1053945Y1305204D1*
X1055371Y1303745D1*
X1053945Y1293697D2*
Y1273601D1*
X1026011Y1292271D2*
Y1269290D1*
X1027437Y1265012D1*
X1028863Y1263553D1*
X1031748Y1262127D1*
X1036059D1*
X1038911Y1263553D1*
X1026011Y1287960D2*
X1028863Y1290812D1*
X1031748Y1292271D1*
X1036059D1*
X1038911Y1290812D1*
X1041796Y1287960D1*
X1043222Y1283649D1*
Y1280764D1*
X1041796Y1276486D1*
X1038911Y1273601D1*
X1036059Y1272175D1*
X1031748D1*
X1028863Y1273601D1*
X1026011Y1276486D1*
X1016748Y1293697D2*
Y1273601D1*
Y1287960D2*
X1012437Y1292271D1*
X1009552Y1293697D1*
X1005274D1*
X1002389Y1292271D1*
X1000963Y1287960D1*
Y1273601D1*
X962539Y1303745D2*
Y1273601D1*
Y1289386D2*
X959654Y1292271D1*
X956802Y1293697D1*
X952491D1*
X949639Y1292271D1*
X946754Y1289386D1*
X945328Y1285075D1*
Y1282223D1*
X946754Y1277912D1*
X949639Y1275060D1*
X952491Y1273601D1*
X956802D1*
X959654Y1275060D1*
X962539Y1277912D1*
X934605Y1293697D2*
X926016Y1273601D1*
X928868Y1267864D1*
X931753Y1264979D1*
X934605Y1263553D1*
X936064D1*
X917394Y1293697D2*
X926016Y1273601D1*
X878970Y1303745D2*
Y1273601D1*
X868922D1*
X864611Y1275060D1*
X861726Y1277912D1*
X860300Y1280797D1*
X858874Y1285075D1*
Y1292271D1*
X860300Y1296582D1*
X861726Y1299434D1*
X864611Y1302319D1*
X868922Y1303745D1*
X878970D1*
X849610Y1287960D2*
X836677D1*
X832399Y1289386D1*
X830940Y1290845D1*
X829514Y1293697D1*
Y1298008D1*
X830940Y1300860D1*
X832399Y1302319D1*
X836677Y1303745D1*
X849610D1*
Y1273601D1*
X820251Y1289386D2*
X807351D1*
X803040Y1290845D1*
X801581Y1292271D1*
X800155Y1295123D1*
Y1298008D1*
X801581Y1300860D1*
X803040Y1302319D1*
X807351Y1303745D1*
X820251D1*
Y1273601D1*
X810203Y1289386D2*
X800155Y1273601D1*
X772254Y1303745D2*
X790891D1*
Y1273601D1*
X772254D1*
X790891Y1289386D2*
X779417D1*
X742895Y1299434D2*
X745747Y1302319D1*
X750058Y1303745D1*
X755795D1*
X760106Y1302319D1*
X762991Y1299434D1*
Y1296582D1*
X761532Y1293697D1*
X760106Y1292271D1*
X757254Y1290845D1*
X748632Y1287960D1*
X745747Y1286534D1*
X744321Y1285075D1*
X742895Y1282223D1*
Y1277912D1*
X745747Y1275060D1*
X750058Y1273601D1*
X755795D1*
X760106Y1275060D1*
X762991Y1277912D1*
X713535Y1299434D2*
X716387Y1302319D1*
X720698Y1303745D1*
X726435D1*
X730746Y1302319D1*
X733631Y1299434D1*
Y1296582D1*
X732172Y1293697D1*
X730746Y1292271D1*
X727894Y1290845D1*
X719272Y1287960D1*
X716387Y1286534D1*
X714961Y1285075D1*
X713535Y1282223D1*
Y1277912D1*
X716387Y1275060D1*
X720698Y1273601D1*
X726435D1*
X730746Y1275060D1*
X733631Y1277912D1*
X704272Y1303745D2*
Y1273601D1*
X687061D1*
X659160Y1303745D2*
X677797D1*
Y1273601D1*
X659160D1*
X677797Y1289386D2*
X666323D1*
X610688Y1311604D2*
X613573Y1308752D1*
X616425Y1304441D1*
X619310Y1298704D1*
X620736Y1291508D1*
Y1285771D1*
X619310Y1278608D1*
X616425Y1272871D1*
X613573Y1268560D1*
X610688Y1265708D1*
X599966Y1296549D2*
Y1297975D1*
X598540Y1300860D1*
X597114Y1302286D1*
X594229Y1303712D1*
X588492D1*
X585640Y1302286D1*
X584214Y1300860D1*
X582755Y1297975D1*
Y1295123D1*
X584214Y1292238D1*
X587066Y1287960D1*
X601425Y1273601D1*
X581329D1*
X563443Y1303712D2*
X567754Y1302286D1*
X570639Y1297975D1*
X572065Y1290812D1*
Y1286501D1*
X570639Y1279338D1*
X567754Y1275027D1*
X563443Y1273601D1*
X560591D1*
X556280Y1275027D1*
X553428Y1279338D1*
X551969Y1286501D1*
Y1290812D1*
X553428Y1297975D1*
X556280Y1302286D1*
X560591Y1303712D1*
X563443D1*
X553428Y1297975D2*
X570639Y1279338D1*
X542706Y1297975D2*
X539821Y1299434D1*
X535509Y1303712D1*
Y1273601D1*
X509035Y1299434D2*
X510461Y1302286D1*
X514772Y1303712D1*
X517624D1*
X521935Y1302286D1*
X524820Y1297975D1*
X526246Y1290812D1*
Y1283649D1*
X524820Y1277912D1*
X521935Y1275027D1*
X517624Y1273601D1*
X516198D1*
X511920Y1275027D1*
X509035Y1277912D1*
X507609Y1282223D1*
Y1283649D1*
X509035Y1287960D1*
X511920Y1290812D1*
X516198Y1292238D1*
X517624D1*
X521935Y1290812D1*
X524820Y1287960D1*
X526246Y1283649D1*
X498346Y1311604D2*
X495460Y1308752D1*
X492609Y1304441D1*
X489723Y1298704D1*
X488298Y1291508D1*
Y1285771D1*
X489723Y1278608D1*
X492609Y1272871D1*
X495460Y1268560D1*
X498346Y1265708D1*
M02*
