G04 DipTrace 3.0.0.2*
G04 Bottom.gbr*
%MOIN*%
G04 #@! TF.FileFunction,Copper,L2,Bot*
G04 #@! TF.Part,Single*
%AMOUTLINE0*
4,1,8,
-0.019685,-0.029528,
-0.009843,-0.03937,
0.009843,-0.03937,
0.019685,-0.029528,
0.019685,0.029528,
0.009843,0.03937,
-0.009843,0.03937,
-0.019685,0.029528,
-0.019685,-0.029528,
0*%
%AMOUTLINE3*
4,1,8,
-0.029528,0.019685,
-0.03937,0.009843,
-0.03937,-0.009843,
-0.029528,-0.019685,
0.029528,-0.019685,
0.03937,-0.009843,
0.03937,0.009843,
0.029528,0.019685,
-0.029528,0.019685,
0*%
G04 #@! TA.AperFunction,CopperBalancing*
%ADD13C,0.019685*%
G04 #@! TA.AperFunction,Conductor*
%ADD14C,0.098425*%
%ADD15C,0.07874*%
%ADD16C,0.012992*%
G04 #@! TA.AperFunction,CopperBalancing*
%ADD17C,0.025*%
G04 #@! TA.AperFunction,ComponentPad*
%ADD18R,0.062992X0.062992*%
%ADD19C,0.062992*%
%ADD20R,0.059055X0.059055*%
%ADD21C,0.059055*%
%ADD22C,0.090551*%
%ADD23R,0.090551X0.090551*%
%ADD24C,0.070866*%
%ADD25C,0.07874*%
%ADD26O,0.03937X0.07874*%
%ADD27O,0.07874X0.03937*%
%ADD28C,0.05*%
%ADD29C,0.05*%
%ADD30C,0.07*%
%ADD31C,0.07*%
%ADD33R,0.084646X0.037402*%
%ADD34R,0.084646X0.127953*%
G04 #@! TA.AperFunction,ComponentPad*
%ADD35C,0.074803*%
%ADD36R,0.066929X0.066929*%
%ADD37C,0.066929*%
G04 #@! TA.AperFunction,ViaPad*
%ADD38C,0.04*%
G04 #@! TA.AperFunction,ComponentPad*
%ADD85OUTLINE0*%
%ADD88OUTLINE3*%
%FSLAX26Y26*%
G04*
G70*
G90*
G75*
G01*
G04 Bottom*
%LPD*%
X1593701Y2293701D2*
D13*
Y2306201D1*
X1918701D1*
X2031201Y2293701D2*
X1993701D1*
X1981201Y2306201D1*
X1918701D1*
X2031201Y2293701D2*
X2243701D1*
X2293701Y2243701D1*
X1996850Y543701D2*
D14*
X1943701Y596850D1*
Y778740D1*
X1931890Y790551D1*
X2243701Y890551D2*
X2193701Y840551D1*
Y543701D1*
X1243701Y818701D2*
D15*
X1143701Y893701D1*
X998425Y689567D2*
X997835D1*
X956201Y731201D1*
Y1031201D1*
X893701Y1093701D1*
X1243701Y1118701D2*
X1193701Y1068701D1*
X918701D1*
X893701Y1093701D1*
X1931890Y1090551D2*
D14*
X1865551D1*
X1765551Y990551D1*
X1481890D1*
X543701Y893701D2*
D15*
X546850Y543701D1*
X1281201Y1543701D2*
D16*
Y1531201D1*
D13*
X1318701Y1493701D1*
X1396063D1*
X1243701Y1743701D2*
D16*
Y1793701D1*
X1343701Y1893701D1*
X1468701Y1593701D2*
X1281201D1*
X1993701Y1693701D2*
X2052559Y1752559D1*
X2143701D1*
Y1693701D1*
X543701Y2043701D2*
Y2093701D1*
X643701Y2193701D1*
X2084173Y2083189D2*
Y1804528D1*
X2058189Y1778543D1*
X1962598D1*
X1790256Y1606201D1*
X1781201D1*
X1768701Y1593701D1*
X743701Y543701D2*
D15*
Y981201D1*
X693701Y1031201D1*
Y1093701D1*
X1481890Y690551D2*
D14*
X1410039Y618701D1*
X1293701D1*
X1168701Y493701D1*
X793701D1*
X743701Y543701D1*
X2242717Y1794685D2*
D16*
Y2092717D1*
X2293701Y2143701D1*
X1743701Y1893701D2*
X1643701Y1793701D1*
Y1743701D1*
X2123661Y2043701D2*
X2193701D1*
Y2143701D2*
X2070669D1*
X2044685Y2117717D1*
Y1858005D1*
X2018698Y1832018D1*
X1832018D1*
X1743701Y1743701D1*
X2243701Y1493701D2*
D13*
Y1546063D1*
X2291339Y1593701D1*
X2219685D1*
X2193701Y1619685D1*
Y1693701D1*
X2031201Y2193701D2*
X2143701D1*
X2193701Y2243701D1*
X1918701Y2215650D2*
Y2218701D1*
X1968701D1*
X1993701Y2193701D1*
X2031201D1*
X1143701Y2043701D2*
Y2193701D1*
X1093701Y2243701D1*
X943701Y2193701D2*
D16*
X1043701D1*
X1093701Y2243701D1*
X1918701Y2125098D2*
D13*
X1212303D1*
X1093701Y2243701D1*
X1343701Y1743701D2*
X1406201Y1681201D1*
X1606201D1*
X1793701Y1493701D1*
D38*
X2084173Y2083189D3*
X2242717Y1794685D3*
X1743701Y1893701D3*
X2123661Y2043701D3*
X446201Y2293832D2*
D17*
X466176D1*
X521226D2*
X1035171D1*
X1152231D2*
X1231264D1*
X1761655D2*
X1847378D1*
X2091684D2*
X2166176D1*
X2221226D2*
X2235201D1*
X546176Y2268963D2*
X1035171D1*
X1152231D2*
X1231264D1*
X1761655D2*
X1847378D1*
X2086167D2*
X2141226D1*
X552231Y2244094D2*
X630630D1*
X656764D2*
X930630D1*
X956764D2*
X1035171D1*
X1152231D2*
X1231264D1*
X1429867D2*
X1457534D1*
X1529867D2*
X1557534D1*
X1761655D2*
X1847378D1*
X2091684D2*
X2135171D1*
X546567Y2219226D2*
X596499D1*
X690903D2*
X896499D1*
X1172055D2*
X1619058D1*
X1761655D2*
X1847378D1*
X446201Y2194357D2*
X464663D1*
X522739D2*
X589711D1*
X697690D2*
X889711D1*
X1196909D2*
X1619058D1*
X1761655D2*
X1847378D1*
X446201Y2169488D2*
X570375D1*
X691635D2*
X895766D1*
X1068588D2*
X1104898D1*
X1221762D2*
X1619058D1*
X1761655D2*
X1847378D1*
X446201Y2144619D2*
X545474D1*
X661752D2*
X925650D1*
X961752D2*
X1104898D1*
X446201Y2119751D2*
X520619D1*
X618882D2*
X1104898D1*
X1990024D2*
X2009291D1*
X446201Y2094882D2*
X483218D1*
X673471D2*
X713930D1*
X773471D2*
X813930D1*
X873471D2*
X913930D1*
X973471D2*
X1013930D1*
X1073471D2*
X1104898D1*
X1990024D2*
X2009194D1*
X446201Y2070013D2*
X483218D1*
X1897886D2*
X2009194D1*
X446201Y2045144D2*
X483218D1*
X1904184D2*
X1988979D1*
X446201Y2020276D2*
X483218D1*
X1899252D2*
X1947084D1*
X446201Y1995407D2*
X483218D1*
X678306D2*
X709096D1*
X778306D2*
X809096D1*
X878306D2*
X909096D1*
X978306D2*
X1009096D1*
X1078306D2*
X1109096D1*
X1178306D2*
X1209096D1*
X1278306D2*
X1309096D1*
X1378306D2*
X1409096D1*
X1478306D2*
X1509096D1*
X1578306D2*
X1609096D1*
X1678306D2*
X1709096D1*
X1778306D2*
X1809096D1*
X1878306D2*
X1939760D1*
X446201Y1970538D2*
X1945230D1*
X446201Y1945669D2*
X1283218D1*
X1471909D2*
X1972622D1*
X446201Y1920801D2*
X1283218D1*
X1497446D2*
X1703432D1*
X1783970D2*
X2009194D1*
X446201Y1895932D2*
X1283218D1*
X1504135D2*
X1694741D1*
X1792660D2*
X2009194D1*
X446201Y1871063D2*
X1271938D1*
X1499594D2*
X1671938D1*
X1786802D2*
X2008608D1*
X446201Y1846194D2*
X1247084D1*
X1479478D2*
X1647084D1*
X1745346D2*
X1797084D1*
X446201Y1821325D2*
X1222182D1*
X1320444D2*
X1622182D1*
X1720444D2*
X1772182D1*
X446201Y1796457D2*
X517154D1*
X570248D2*
X617154D1*
X670248D2*
X717154D1*
X770248D2*
X817154D1*
X870248D2*
X917154D1*
X970248D2*
X1017154D1*
X1070248D2*
X1117154D1*
X1170248D2*
X1208364D1*
X1295591D2*
X1317154D1*
X1370248D2*
X1417154D1*
X1470248D2*
X1517154D1*
X1570248D2*
X1608364D1*
X1695591D2*
X1717154D1*
X446201Y1771588D2*
X490346D1*
X446201Y1746719D2*
X483315D1*
X446201Y1721850D2*
X487466D1*
X446201Y1696982D2*
X506850D1*
X580551D2*
X606850D1*
X680551D2*
X706850D1*
X780551D2*
X806850D1*
X880551D2*
X906850D1*
X980551D2*
X1006850D1*
X1080551D2*
X1106850D1*
X1180551D2*
X1206850D1*
X1280551D2*
X1306850D1*
X446201Y1672113D2*
X1220474D1*
X1341928D2*
X1361440D1*
X1905307D2*
X1944448D1*
X446201Y1647244D2*
X668959D1*
X718442D2*
X733218D1*
X854184D2*
X968959D1*
X1018442D2*
X1033218D1*
X1154184D2*
X1212856D1*
X1349546D2*
X1390786D1*
X1952231D2*
X1969008D1*
X2018394D2*
X2051138D1*
X446201Y1622375D2*
X640786D1*
X854184D2*
X940786D1*
X1154184D2*
X1215492D1*
X1513950D2*
X1611147D1*
X1952231D2*
X2154898D1*
X446201Y1597507D2*
X633315D1*
X854184D2*
X933315D1*
X1154184D2*
X1213003D1*
X1522543D2*
X1636050D1*
X1952231D2*
X2162416D1*
X446201Y1572638D2*
X637172D1*
X854184D2*
X937172D1*
X1154184D2*
X1217934D1*
X1518198D2*
X1660903D1*
X1952231D2*
X2186879D1*
X446201Y1547769D2*
X655825D1*
X854184D2*
X955825D1*
X1154184D2*
X1213003D1*
X1349399D2*
X1378920D1*
X1413218D2*
X1442934D1*
X1494467D2*
X1685756D1*
X1964584D2*
X2204898D1*
X446201Y1522900D2*
X1217787D1*
X1446371D2*
X1710659D1*
X1988999D2*
X2186587D1*
X446201Y1498031D2*
X1252163D1*
X1454428D2*
X1735171D1*
X1996176D2*
X2179409D1*
X748213Y1651689D2*
X851689D1*
Y1535713D1*
X735713D1*
Y1553730D1*
X729503Y1548084D1*
X723320Y1543848D1*
X716643Y1540444D1*
X709583Y1537930D1*
X702257Y1536348D1*
X694789Y1535723D1*
X687302Y1536067D1*
X679921Y1537374D1*
X672772Y1539621D1*
X665971Y1542772D1*
X659635Y1546774D1*
X653866Y1551560D1*
X648764Y1557050D1*
X644412Y1563151D1*
X640883Y1569764D1*
X638238Y1576776D1*
X636518Y1584071D1*
X635753Y1591526D1*
X635957Y1599018D1*
X637125Y1606421D1*
X639238Y1613612D1*
X642261Y1620470D1*
X646143Y1626881D1*
X650820Y1632738D1*
X656213Y1637942D1*
X662232Y1642408D1*
X668777Y1646059D1*
X675739Y1648837D1*
X683000Y1650693D1*
X690440Y1651597D1*
X697934Y1651534D1*
X705358Y1650505D1*
X712587Y1648528D1*
X719500Y1645634D1*
X725983Y1641873D1*
X731927Y1637306D1*
X735718Y1633657D1*
X735713Y1651689D1*
X748213D1*
X1035710Y1553745D2*
X1029503Y1548084D1*
X1023320Y1543848D1*
X1016643Y1540444D1*
X1009583Y1537930D1*
X1002257Y1536348D1*
X994789Y1535723D1*
X987302Y1536067D1*
X979921Y1537374D1*
X972772Y1539621D1*
X965971Y1542772D1*
X959635Y1546774D1*
X953866Y1551560D1*
X948764Y1557050D1*
X944412Y1563151D1*
X940883Y1569764D1*
X938238Y1576776D1*
X936518Y1584071D1*
X935753Y1591526D1*
X935957Y1599018D1*
X937125Y1606421D1*
X939238Y1613612D1*
X942261Y1620470D1*
X946143Y1626881D1*
X950820Y1632738D1*
X956213Y1637942D1*
X962232Y1642408D1*
X968777Y1646059D1*
X975739Y1648837D1*
X983000Y1650693D1*
X990440Y1651597D1*
X997934Y1651534D1*
X1005358Y1650505D1*
X1012587Y1648528D1*
X1019500Y1645634D1*
X1025983Y1641873D1*
X1031927Y1637306D1*
X1035718Y1633657D1*
X1035713Y1651689D1*
X1151689D1*
Y1535713D1*
X1035713D1*
Y1553730D1*
X2071211Y2251689D2*
X2089189D1*
Y2230058D1*
X2128710Y2230035D1*
X2137854Y2239306D1*
Y2248096D1*
X2139228Y2256778D1*
X2141945Y2265139D1*
X2145936Y2272971D1*
X2151104Y2280083D1*
X2157319Y2286298D1*
X2164430Y2291466D1*
X2172262Y2295457D1*
X2180623Y2298173D1*
X2189306Y2299547D1*
X2198096D1*
X2206778Y2298173D1*
X2215139Y2295457D1*
X2222971Y2291466D1*
X2230083Y2286298D1*
X2236298Y2280083D1*
X2237692Y2278315D1*
X2237681Y2299720D1*
X2318706D1*
X2318701Y2318701D1*
X2083496D1*
X2086759Y2310315D1*
X2088437Y2303010D1*
X2089189Y2293701D1*
X2088705Y2286222D1*
X2087260Y2278867D1*
X2084878Y2271761D1*
X2081600Y2265021D1*
X2077480Y2258760D1*
X2071155Y2251685D1*
X1991235Y2251690D2*
X1982516Y2261008D1*
X1849886D1*
Y2318713D1*
X1648241Y2318701D1*
X1651341Y2310203D1*
X1652346Y2306118D1*
X1759169D1*
Y2161440D1*
X1849852Y2161433D1*
X1849886Y2170291D1*
X1912516Y2170457D1*
X1849886D1*
Y2260843D1*
X1983430D1*
X1880406Y1649720D2*
X1949720D1*
Y1552992D1*
X1960003Y1548877D1*
X1968289Y1543799D1*
X1975677Y1537488D1*
X1981988Y1530100D1*
X1987066Y1521814D1*
X1990785Y1512837D1*
X1993052Y1503388D1*
X1993815Y1493701D1*
X1993052Y1484013D1*
X1992493Y1481201D1*
X2183008D1*
X2181966Y1488843D1*
Y1498559D1*
X2183487Y1508157D1*
X2186490Y1517399D1*
X2190900Y1526056D1*
X2196613Y1533919D1*
X2203483Y1540789D1*
X2207381Y1543852D1*
X2207814Y1551747D1*
X2209280Y1557657D1*
X2208457Y1559144D1*
X2203189Y1561327D1*
X2198328Y1564306D1*
X2193992Y1568008D1*
X2166072Y1596088D1*
X2162720Y1600701D1*
X2160133Y1605781D1*
X2158370Y1611203D1*
X2157478Y1616835D1*
X2157366Y1629890D1*
X2150924Y1628407D1*
X2143701Y1627839D1*
X2136478Y1628407D1*
X2129432Y1630098D1*
X2122736Y1632871D1*
X2120598Y1634068D1*
X2115571Y1630726D1*
X2109728Y1628571D1*
X2103543Y1627839D1*
X2079714Y1628164D1*
X2073720Y1629856D1*
X2068286Y1632898D1*
X2063358Y1637366D1*
X2052583Y1648601D1*
X2049541Y1654035D1*
X2047849Y1660029D1*
X2047524Y1666673D1*
Y1700882D1*
X2045034Y1697740D1*
Y1689661D1*
X2043770Y1681680D1*
X2041273Y1673996D1*
X2037605Y1666797D1*
X2032856Y1660260D1*
X2027142Y1654546D1*
X2020605Y1649797D1*
X2013406Y1646129D1*
X2005722Y1643631D1*
X1997740Y1642367D1*
X1989661D1*
X1981680Y1643631D1*
X1973996Y1646129D1*
X1966797Y1649797D1*
X1960260Y1654546D1*
X1954546Y1660260D1*
X1949797Y1666797D1*
X1946129Y1673996D1*
X1943631Y1681680D1*
X1942367Y1689661D1*
Y1697740D1*
X1943631Y1705722D1*
X1946129Y1713406D1*
X1947891Y1717202D1*
X1880446Y1649738D1*
X1737681Y1481186D2*
Y1498374D1*
X1591129Y1644888D1*
X1474512Y1644866D1*
X1480722Y1643770D1*
X1488406Y1641273D1*
X1495605Y1637605D1*
X1502142Y1632856D1*
X1507856Y1627142D1*
X1512605Y1620605D1*
X1516273Y1613406D1*
X1518770Y1605722D1*
X1520034Y1597740D1*
Y1589661D1*
X1518770Y1581680D1*
X1516273Y1573996D1*
X1512605Y1566797D1*
X1507856Y1560260D1*
X1502142Y1554546D1*
X1495605Y1549797D1*
X1488406Y1546129D1*
X1480722Y1543631D1*
X1472740Y1542367D1*
X1464661D1*
X1456680Y1543631D1*
X1448996Y1546129D1*
X1441797Y1549797D1*
X1435260Y1554546D1*
X1429184Y1560718D1*
X1343848Y1560713D1*
X1345787Y1554480D1*
X1346921Y1547324D1*
Y1540077D1*
X1345787Y1532921D1*
X1344969Y1530017D1*
X1353466Y1530083D1*
X1359681Y1536298D1*
X1366793Y1541466D1*
X1374625Y1545457D1*
X1382986Y1548173D1*
X1391668Y1549547D1*
X1400458D1*
X1409140Y1548173D1*
X1417501Y1545457D1*
X1425333Y1541466D1*
X1432445Y1536298D1*
X1438660Y1530083D1*
X1443828Y1522971D1*
X1447819Y1515139D1*
X1450535Y1506778D1*
X1451909Y1498096D1*
Y1489306D1*
X1450646Y1481180D1*
X1737696Y1481201D1*
X1429184Y1626684D2*
X1435260Y1632856D1*
X1441797Y1637605D1*
X1448996Y1641273D1*
X1456680Y1643770D1*
X1463360Y1644881D1*
X1403350Y1644978D1*
X1397719Y1645870D1*
X1392297Y1647633D1*
X1387217Y1650220D1*
X1382604Y1653572D1*
X1349951Y1686064D1*
X1343701Y1685713D1*
X1334630Y1686427D1*
X1325781Y1688551D1*
X1317375Y1692033D1*
X1309617Y1696787D1*
X1302697Y1702697D1*
X1296787Y1709617D1*
X1293727Y1714349D1*
X1287795Y1706041D1*
X1281361Y1699606D1*
X1274000Y1694257D1*
X1265277Y1689878D1*
X1314873Y1689552D1*
X1320866Y1687861D1*
X1326301Y1684819D1*
X1331228Y1680350D1*
X1342004Y1669115D1*
X1345046Y1663681D1*
X1346738Y1657688D1*
X1347063Y1651043D1*
X1346736Y1629714D1*
X1346219Y1627276D1*
X1347050Y1636806D1*
X1346736Y1629714D1*
X1346093Y1626689D1*
X1429199D1*
X2011702Y1945500D2*
X2005722Y1943631D1*
X1997740Y1942367D1*
X1989661D1*
X1981680Y1943631D1*
X1973996Y1946129D1*
X1966797Y1949797D1*
X1960260Y1954546D1*
X1954546Y1960260D1*
X1949797Y1966797D1*
X1946129Y1973996D1*
X1943631Y1981680D1*
X1942367Y1989661D1*
Y1997740D1*
X1943631Y2005722D1*
X1946129Y2013406D1*
X1949797Y2020605D1*
X1954546Y2027142D1*
X1960260Y2032856D1*
X1966797Y2037605D1*
X1973996Y2041273D1*
X1981680Y2043770D1*
X1989661Y2045034D1*
X1997740D1*
X2005722Y2043770D1*
X2011702Y2041902D1*
X2011798Y2120304D1*
X2013311Y2127911D1*
X2016558Y2134953D1*
X2016777Y2135281D1*
X2016558Y2134953D1*
X2017070Y2135713D1*
X1987480D1*
X1987516Y2079906D1*
X1889030D1*
X1893144Y2074000D1*
X1897274Y2065892D1*
X1900087Y2057238D1*
X1901510Y2048251D1*
Y2039151D1*
X1900087Y2030164D1*
X1897274Y2021509D1*
X1893144Y2013402D1*
X1887795Y2006041D1*
X1881361Y1999606D1*
X1874000Y1994257D1*
X1865892Y1990127D1*
X1857238Y1987315D1*
X1848251Y1985891D1*
X1839151D1*
X1830164Y1987315D1*
X1821509Y1990127D1*
X1813402Y1994257D1*
X1806041Y1999606D1*
X1799606Y2006041D1*
X1793727Y2014349D1*
X1787795Y2006041D1*
X1781361Y1999606D1*
X1774000Y1994257D1*
X1765892Y1990127D1*
X1757238Y1987315D1*
X1748251Y1985891D1*
X1739151D1*
X1730164Y1987315D1*
X1721509Y1990127D1*
X1713402Y1994257D1*
X1706041Y1999606D1*
X1699606Y2006041D1*
X1693727Y2014349D1*
X1687795Y2006041D1*
X1681361Y1999606D1*
X1674000Y1994257D1*
X1665892Y1990127D1*
X1657238Y1987315D1*
X1648251Y1985891D1*
X1639151D1*
X1630164Y1987315D1*
X1621509Y1990127D1*
X1613402Y1994257D1*
X1606041Y1999606D1*
X1599606Y2006041D1*
X1593727Y2014349D1*
X1587795Y2006041D1*
X1581361Y1999606D1*
X1574000Y1994257D1*
X1565892Y1990127D1*
X1557238Y1987315D1*
X1548251Y1985891D1*
X1539151D1*
X1530164Y1987315D1*
X1521509Y1990127D1*
X1513402Y1994257D1*
X1506041Y1999606D1*
X1499606Y2006041D1*
X1493727Y2014349D1*
X1487795Y2006041D1*
X1481361Y1999606D1*
X1474000Y1994257D1*
X1465892Y1990127D1*
X1457238Y1987315D1*
X1448251Y1985891D1*
X1439151D1*
X1430164Y1987315D1*
X1421509Y1990127D1*
X1413402Y1994257D1*
X1406041Y1999606D1*
X1399606Y2006041D1*
X1393727Y2014349D1*
X1387795Y2006041D1*
X1381361Y1999606D1*
X1374000Y1994257D1*
X1365892Y1990127D1*
X1357238Y1987315D1*
X1348251Y1985891D1*
X1339151D1*
X1330164Y1987315D1*
X1321509Y1990127D1*
X1313402Y1994257D1*
X1306041Y1999606D1*
X1299606Y2006041D1*
X1293727Y2014349D1*
X1288432Y2006798D1*
X1283298Y2001337D1*
X1277504Y1996584D1*
X1271144Y1992618D1*
X1264327Y1989505D1*
X1257164Y1987297D1*
X1249777Y1986031D1*
X1242289Y1985730D1*
X1234823Y1986396D1*
X1227507Y1988020D1*
X1220461Y1990573D1*
X1213802Y1994014D1*
X1207644Y1998286D1*
X1202088Y2003316D1*
X1197226Y2009020D1*
X1193713Y2014337D1*
X1187795Y2006041D1*
X1181361Y1999606D1*
X1174000Y1994257D1*
X1165892Y1990127D1*
X1157238Y1987315D1*
X1148251Y1985891D1*
X1139151D1*
X1130164Y1987315D1*
X1121509Y1990127D1*
X1113402Y1994257D1*
X1106041Y1999606D1*
X1099606Y2006041D1*
X1093727Y2014349D1*
X1087795Y2006041D1*
X1081361Y1999606D1*
X1074000Y1994257D1*
X1065892Y1990127D1*
X1057238Y1987315D1*
X1048251Y1985891D1*
X1039151D1*
X1030164Y1987315D1*
X1021509Y1990127D1*
X1013402Y1994257D1*
X1006041Y1999606D1*
X999606Y2006041D1*
X993727Y2014349D1*
X987795Y2006041D1*
X981361Y1999606D1*
X974000Y1994257D1*
X965892Y1990127D1*
X957238Y1987315D1*
X948251Y1985891D1*
X939151D1*
X930164Y1987315D1*
X921509Y1990127D1*
X913402Y1994257D1*
X906041Y1999606D1*
X899606Y2006041D1*
X893727Y2014349D1*
X887795Y2006041D1*
X881361Y1999606D1*
X874000Y1994257D1*
X865892Y1990127D1*
X857238Y1987315D1*
X848251Y1985891D1*
X839151D1*
X830164Y1987315D1*
X821509Y1990127D1*
X813402Y1994257D1*
X806041Y1999606D1*
X799606Y2006041D1*
X793727Y2014349D1*
X787795Y2006041D1*
X781361Y1999606D1*
X774000Y1994257D1*
X765892Y1990127D1*
X757238Y1987315D1*
X748251Y1985891D1*
X739151D1*
X730164Y1987315D1*
X721509Y1990127D1*
X713402Y1994257D1*
X706041Y1999606D1*
X699606Y2006041D1*
X693727Y2014349D1*
X687795Y2006041D1*
X681361Y1999606D1*
X674000Y1994257D1*
X665892Y1990127D1*
X657238Y1987315D1*
X648251Y1985891D1*
X639151D1*
X630164Y1987315D1*
X621509Y1990127D1*
X613402Y1994257D1*
X606041Y1999606D1*
X601694Y2003781D1*
X601689Y1985713D1*
X485713D1*
Y2101689D1*
X511738D1*
X513223Y2106325D1*
X517013Y2113091D1*
X520374Y2117028D1*
X592432Y2189084D1*
X592367Y2197740D1*
X593631Y2205722D1*
X596129Y2213406D1*
X599797Y2220605D1*
X604546Y2227142D1*
X610260Y2232856D1*
X616797Y2237605D1*
X623996Y2241273D1*
X631680Y2243770D1*
X639661Y2245034D1*
X647740D1*
X655722Y2243770D1*
X663406Y2241273D1*
X670605Y2237605D1*
X677142Y2232856D1*
X682856Y2227142D1*
X687605Y2220605D1*
X691273Y2213406D1*
X693770Y2205722D1*
X695034Y2197740D1*
Y2189661D1*
X693770Y2181680D1*
X691273Y2173996D1*
X687605Y2166797D1*
X682856Y2160260D1*
X677142Y2154546D1*
X670605Y2149797D1*
X663406Y2146129D1*
X655722Y2143631D1*
X647740Y2142367D1*
X639080Y2142436D1*
X598353Y2101701D1*
X601689Y2101689D1*
Y2083671D1*
X609617Y2090614D1*
X617375Y2095369D1*
X625781Y2098850D1*
X634630Y2100975D1*
X643701Y2101689D1*
X652772Y2100975D1*
X661621Y2098850D1*
X670026Y2095369D1*
X677785Y2090614D1*
X684705Y2084705D1*
X690614Y2077785D1*
X693675Y2073052D1*
X699606Y2081361D1*
X706041Y2087795D1*
X713402Y2093144D1*
X721509Y2097274D1*
X730164Y2100087D1*
X739151Y2101510D1*
X748251D1*
X757238Y2100087D1*
X765892Y2097274D1*
X774000Y2093144D1*
X781361Y2087795D1*
X787795Y2081361D1*
X793675Y2073052D1*
X799606Y2081361D1*
X806041Y2087795D1*
X813402Y2093144D1*
X821509Y2097274D1*
X830164Y2100087D1*
X839151Y2101510D1*
X848251D1*
X857238Y2100087D1*
X865892Y2097274D1*
X874000Y2093144D1*
X881361Y2087795D1*
X887795Y2081361D1*
X893675Y2073052D1*
X899606Y2081361D1*
X906041Y2087795D1*
X913402Y2093144D1*
X921509Y2097274D1*
X930164Y2100087D1*
X939151Y2101510D1*
X948251D1*
X957238Y2100087D1*
X965892Y2097274D1*
X974000Y2093144D1*
X981361Y2087795D1*
X987795Y2081361D1*
X993675Y2073052D1*
X999606Y2081361D1*
X1006041Y2087795D1*
X1013402Y2093144D1*
X1021509Y2097274D1*
X1030164Y2100087D1*
X1039151Y2101510D1*
X1048251D1*
X1057238Y2100087D1*
X1065892Y2097274D1*
X1074000Y2093144D1*
X1081361Y2087795D1*
X1087795Y2081361D1*
X1093675Y2073052D1*
X1099606Y2081361D1*
X1106041Y2087795D1*
X1107367Y2088841D1*
X1107062Y2178955D1*
X1098362Y2187654D1*
X1084340Y2187681D1*
X1065125Y2168617D1*
X1058677Y2164308D1*
X1051402Y2161623D1*
X1043701Y2160713D1*
X1043367Y2160726D1*
X983202Y2160713D1*
X977142Y2154546D1*
X970605Y2149797D1*
X963406Y2146129D1*
X955722Y2143631D1*
X947740Y2142367D1*
X939661D1*
X931680Y2143631D1*
X923996Y2146129D1*
X916797Y2149797D1*
X910260Y2154546D1*
X904546Y2160260D1*
X899797Y2166797D1*
X896129Y2173996D1*
X893631Y2181680D1*
X892367Y2189661D1*
Y2197740D1*
X893631Y2205722D1*
X896129Y2213406D1*
X899797Y2220605D1*
X904546Y2227142D1*
X910260Y2232856D1*
X916797Y2237605D1*
X923996Y2241273D1*
X931680Y2243770D1*
X939661Y2245034D1*
X947740D1*
X955722Y2243770D1*
X963406Y2241273D1*
X970605Y2237605D1*
X977142Y2232856D1*
X983218Y2226684D1*
X1030077Y2226689D1*
X1037681Y2237681D1*
Y2299720D1*
X1149720D1*
Y2239028D1*
X1227358Y2161428D1*
X1621531Y2161433D1*
X1621539Y2240562D1*
X1612555Y2236786D1*
X1605307Y2234878D1*
X1597877Y2233890D1*
X1590382Y2233836D1*
X1582940Y2234718D1*
X1575664Y2236521D1*
X1568672Y2239218D1*
X1562070Y2242766D1*
X1555962Y2247112D1*
X1550444Y2252184D1*
X1545602Y2257906D1*
X1543710Y2260621D1*
X1539293Y2254762D1*
X1532639Y2248109D1*
X1525028Y2242579D1*
X1516646Y2238308D1*
X1507697Y2235400D1*
X1498406Y2233929D1*
X1488996D1*
X1479705Y2235400D1*
X1470756Y2238308D1*
X1462374Y2242579D1*
X1454762Y2248109D1*
X1448109Y2254762D1*
X1443734Y2260646D1*
X1439293Y2254762D1*
X1432639Y2248109D1*
X1425028Y2242579D1*
X1416646Y2238308D1*
X1407697Y2235400D1*
X1398406Y2233929D1*
X1388996D1*
X1379705Y2235400D1*
X1370756Y2238308D1*
X1362374Y2242579D1*
X1354762Y2248109D1*
X1353668Y2249121D1*
X1353657Y2233744D1*
X1233744D1*
Y2318753D1*
X443701Y2318701D1*
X443837Y2269231D1*
X447692Y2275659D1*
X452369Y2281514D1*
X457786Y2286693D1*
X463846Y2291102D1*
X470441Y2294663D1*
X477451Y2297312D1*
X484753Y2299001D1*
X492214Y2299701D1*
X499702Y2299398D1*
X507084Y2298098D1*
X514224Y2295825D1*
X520999Y2292619D1*
X527285Y2288538D1*
X532969Y2283654D1*
X537950Y2278055D1*
X542140Y2271841D1*
X545463Y2265123D1*
X547860Y2258022D1*
X549286Y2250665D1*
X549664Y2241202D1*
X548831Y2233753D1*
X547009Y2226484D1*
X544234Y2219522D1*
X540554Y2212993D1*
X536037Y2207014D1*
X530760Y2201692D1*
X524822Y2197121D1*
X518325Y2193383D1*
X511388Y2190547D1*
X504135Y2188661D1*
X496694Y2187761D1*
X489201Y2187862D1*
X481787Y2188962D1*
X474588Y2191042D1*
X467730Y2194064D1*
X461337Y2197975D1*
X455524Y2202705D1*
X450392Y2208168D1*
X446037Y2214266D1*
X443690Y2218469D1*
X443701Y1481201D1*
X1279882D1*
X1263386Y1497524D1*
X1257892Y1497665D1*
X1250736Y1498799D1*
X1243845Y1501038D1*
X1237388Y1504328D1*
X1231526Y1508588D1*
X1226403Y1513711D1*
X1222143Y1519573D1*
X1218853Y1526030D1*
X1216614Y1532921D1*
X1215480Y1540077D1*
Y1547324D1*
X1216614Y1554480D1*
X1218853Y1561371D1*
X1222702Y1568664D1*
X1218853Y1576030D1*
X1216614Y1582921D1*
X1215480Y1590077D1*
Y1597324D1*
X1216614Y1604480D1*
X1218853Y1611371D1*
X1221568Y1616803D1*
X1218226Y1621831D1*
X1216071Y1627673D1*
X1215339Y1633858D1*
X1215665Y1657688D1*
X1217356Y1663681D1*
X1220398Y1669115D1*
X1224866Y1674043D1*
X1236101Y1684819D1*
X1237881Y1686001D1*
X1230164Y1687315D1*
X1221509Y1690127D1*
X1213402Y1694257D1*
X1206041Y1699606D1*
X1199606Y1706041D1*
X1193727Y1714349D1*
X1188432Y1706798D1*
X1183298Y1701337D1*
X1177504Y1696584D1*
X1171144Y1692618D1*
X1164327Y1689505D1*
X1157164Y1687297D1*
X1149777Y1686031D1*
X1142289Y1685730D1*
X1134823Y1686396D1*
X1127507Y1688020D1*
X1120461Y1690573D1*
X1113802Y1694014D1*
X1107644Y1698286D1*
X1102088Y1703316D1*
X1097226Y1709020D1*
X1093713Y1714337D1*
X1087795Y1706041D1*
X1081361Y1699606D1*
X1074000Y1694257D1*
X1065892Y1690127D1*
X1057238Y1687315D1*
X1048251Y1685891D1*
X1039151D1*
X1030164Y1687315D1*
X1021509Y1690127D1*
X1013402Y1694257D1*
X1006041Y1699606D1*
X999606Y1706041D1*
X993727Y1714349D1*
X987795Y1706041D1*
X981361Y1699606D1*
X974000Y1694257D1*
X965892Y1690127D1*
X957238Y1687315D1*
X948251Y1685891D1*
X939151D1*
X930164Y1687315D1*
X921509Y1690127D1*
X913402Y1694257D1*
X906041Y1699606D1*
X899606Y1706041D1*
X893727Y1714349D1*
X887795Y1706041D1*
X881361Y1699606D1*
X874000Y1694257D1*
X865892Y1690127D1*
X857238Y1687315D1*
X848251Y1685891D1*
X839151D1*
X830164Y1687315D1*
X821509Y1690127D1*
X813402Y1694257D1*
X806041Y1699606D1*
X799606Y1706041D1*
X793727Y1714349D1*
X787795Y1706041D1*
X781361Y1699606D1*
X774000Y1694257D1*
X765892Y1690127D1*
X757238Y1687315D1*
X748251Y1685891D1*
X739151D1*
X730164Y1687315D1*
X721509Y1690127D1*
X713402Y1694257D1*
X706041Y1699606D1*
X699606Y1706041D1*
X693727Y1714349D1*
X687795Y1706041D1*
X681361Y1699606D1*
X674000Y1694257D1*
X665892Y1690127D1*
X657238Y1687315D1*
X648251Y1685891D1*
X639151D1*
X630164Y1687315D1*
X621509Y1690127D1*
X613402Y1694257D1*
X606041Y1699606D1*
X599606Y1706041D1*
X593727Y1714349D1*
X587795Y1706041D1*
X581361Y1699606D1*
X574000Y1694257D1*
X565892Y1690127D1*
X557238Y1687315D1*
X548251Y1685891D1*
X539151D1*
X530164Y1687315D1*
X521509Y1690127D1*
X513402Y1694257D1*
X506041Y1699606D1*
X499606Y1706041D1*
X494257Y1713402D1*
X490127Y1721509D1*
X487315Y1730164D1*
X485891Y1739151D1*
Y1748251D1*
X487315Y1757238D1*
X490127Y1765892D1*
X494257Y1774000D1*
X499606Y1781361D1*
X506041Y1787795D1*
X513402Y1793144D1*
X521509Y1797274D1*
X530164Y1800087D1*
X539151Y1801510D1*
X548251D1*
X557238Y1800087D1*
X565892Y1797274D1*
X574000Y1793144D1*
X581361Y1787795D1*
X587795Y1781361D1*
X593675Y1773052D1*
X599606Y1781361D1*
X606041Y1787795D1*
X613402Y1793144D1*
X621509Y1797274D1*
X630164Y1800087D1*
X639151Y1801510D1*
X648251D1*
X657238Y1800087D1*
X665892Y1797274D1*
X674000Y1793144D1*
X681361Y1787795D1*
X687795Y1781361D1*
X693675Y1773052D1*
X699606Y1781361D1*
X706041Y1787795D1*
X713402Y1793144D1*
X721509Y1797274D1*
X730164Y1800087D1*
X739151Y1801510D1*
X748251D1*
X757238Y1800087D1*
X765892Y1797274D1*
X774000Y1793144D1*
X781361Y1787795D1*
X787795Y1781361D1*
X793675Y1773052D1*
X799606Y1781361D1*
X806041Y1787795D1*
X813402Y1793144D1*
X821509Y1797274D1*
X830164Y1800087D1*
X839151Y1801510D1*
X848251D1*
X857238Y1800087D1*
X865892Y1797274D1*
X874000Y1793144D1*
X881361Y1787795D1*
X887795Y1781361D1*
X893675Y1773052D1*
X899606Y1781361D1*
X906041Y1787795D1*
X913402Y1793144D1*
X921509Y1797274D1*
X930164Y1800087D1*
X939151Y1801510D1*
X948251D1*
X957238Y1800087D1*
X965892Y1797274D1*
X974000Y1793144D1*
X981361Y1787795D1*
X987795Y1781361D1*
X993675Y1773052D1*
X999606Y1781361D1*
X1006041Y1787795D1*
X1013402Y1793144D1*
X1021509Y1797274D1*
X1030164Y1800087D1*
X1039151Y1801510D1*
X1048251D1*
X1057238Y1800087D1*
X1065892Y1797274D1*
X1074000Y1793144D1*
X1081361Y1787795D1*
X1087795Y1781361D1*
X1093675Y1773052D1*
X1099177Y1780853D1*
X1104341Y1786285D1*
X1110163Y1791007D1*
X1116543Y1794937D1*
X1123379Y1798012D1*
X1130554Y1800178D1*
X1137948Y1801403D1*
X1145437Y1801663D1*
X1152899Y1800955D1*
X1160206Y1799290D1*
X1167239Y1796697D1*
X1173877Y1793219D1*
X1180012Y1788913D1*
X1185539Y1783852D1*
X1190369Y1778121D1*
X1193696Y1773054D1*
X1199606Y1781361D1*
X1206041Y1787795D1*
X1210726Y1791356D1*
X1211118Y1798861D1*
X1213223Y1806325D1*
X1217013Y1813091D1*
X1220374Y1817028D1*
X1285713Y1882344D1*
Y1951689D1*
X1401689D1*
X1401688Y1933651D1*
X1408155Y1939517D1*
X1414361Y1943719D1*
X1421056Y1947085D1*
X1428131Y1949560D1*
X1435466Y1951101D1*
X1442938Y1951684D1*
X1450423Y1951298D1*
X1457795Y1949950D1*
X1464932Y1947663D1*
X1471715Y1944474D1*
X1478029Y1940436D1*
X1483770Y1935618D1*
X1488843Y1930100D1*
X1493160Y1923974D1*
X1496651Y1917343D1*
X1499259Y1910315D1*
X1500937Y1903010D1*
X1501689Y1893701D1*
X1501205Y1886222D1*
X1499760Y1878867D1*
X1497378Y1871761D1*
X1494100Y1865021D1*
X1489980Y1858760D1*
X1485088Y1853083D1*
X1479503Y1848084D1*
X1473320Y1843848D1*
X1466643Y1840444D1*
X1459583Y1837930D1*
X1452257Y1836348D1*
X1444789Y1835723D1*
X1437302Y1836067D1*
X1429921Y1837374D1*
X1422772Y1839621D1*
X1415971Y1842772D1*
X1409635Y1846774D1*
X1403866Y1851560D1*
X1401696Y1853738D1*
X1401689Y1835713D1*
X1332304D1*
X1283024Y1786371D1*
X1287795Y1781361D1*
X1293675Y1773052D1*
X1299606Y1781361D1*
X1306041Y1787795D1*
X1313402Y1793144D1*
X1321509Y1797274D1*
X1330164Y1800087D1*
X1339151Y1801510D1*
X1348251D1*
X1357238Y1800087D1*
X1365892Y1797274D1*
X1374000Y1793144D1*
X1381361Y1787795D1*
X1387795Y1781361D1*
X1393675Y1773052D1*
X1399606Y1781361D1*
X1406041Y1787795D1*
X1413402Y1793144D1*
X1421509Y1797274D1*
X1430164Y1800087D1*
X1439151Y1801510D1*
X1448251D1*
X1457238Y1800087D1*
X1465892Y1797274D1*
X1474000Y1793144D1*
X1481361Y1787795D1*
X1487795Y1781361D1*
X1493675Y1773052D1*
X1499606Y1781361D1*
X1506041Y1787795D1*
X1513402Y1793144D1*
X1521509Y1797274D1*
X1530164Y1800087D1*
X1539151Y1801510D1*
X1548251D1*
X1557238Y1800087D1*
X1565892Y1797274D1*
X1574000Y1793144D1*
X1581361Y1787795D1*
X1587795Y1781361D1*
X1593675Y1773052D1*
X1599606Y1781361D1*
X1606041Y1787795D1*
X1610726Y1791356D1*
X1611118Y1798861D1*
X1613223Y1806325D1*
X1617013Y1813091D1*
X1620374Y1817028D1*
X1697197Y1893849D1*
X1697781Y1900974D1*
X1699484Y1908068D1*
X1702276Y1914808D1*
X1706088Y1921028D1*
X1710825Y1926576D1*
X1716374Y1931314D1*
X1722593Y1935126D1*
X1729333Y1937917D1*
X1736428Y1939621D1*
X1743701Y1940193D1*
X1750974Y1939621D1*
X1758068Y1937917D1*
X1764808Y1935126D1*
X1771028Y1931314D1*
X1776576Y1926576D1*
X1781314Y1921028D1*
X1785126Y1914808D1*
X1787917Y1908068D1*
X1789621Y1900974D1*
X1790193Y1893701D1*
X1789621Y1886428D1*
X1787917Y1879333D1*
X1785126Y1872593D1*
X1781314Y1866374D1*
X1776576Y1860825D1*
X1771028Y1856088D1*
X1764808Y1852276D1*
X1758068Y1849484D1*
X1750974Y1847781D1*
X1743857Y1847215D1*
X1683024Y1786371D1*
X1687795Y1781361D1*
X1693675Y1773052D1*
X1699606Y1781361D1*
X1706041Y1787795D1*
X1713402Y1793144D1*
X1721509Y1797274D1*
X1730164Y1800087D1*
X1739151Y1801510D1*
X1748251D1*
X1754080Y1800715D1*
X1810594Y1857102D1*
X1817042Y1861411D1*
X1824318Y1864094D1*
X1832018Y1865007D1*
X1832352Y1864993D1*
X2005017Y1865007D1*
X2011697Y1871629D1*
Y1945457D1*
X693701Y1651640D2*
D13*
Y1535761D1*
X635761Y1593701D2*
X693701D1*
X993701Y1651640D2*
Y1535761D1*
X935761Y1593701D2*
X993701D1*
X1443701Y1951640D2*
Y1835761D1*
Y1893701D2*
X1501640D1*
X2031201Y2293701D2*
X2089140D1*
X493701Y2299672D2*
Y2187730D1*
Y2243701D2*
X549672D1*
X2293701Y2299672D2*
Y2243701D1*
X2093701Y1693701D2*
Y1627860D1*
X2047545Y1693701D2*
X2093701D1*
X1281201Y1689857D2*
Y1643701D1*
X1215360D2*
X1347042D1*
X1243701Y2043701D2*
Y1985761D1*
X1143701Y1801640D2*
Y1685761D1*
X1918701Y2306201D2*
Y2261056D1*
X1849934Y2306201D2*
X1918701D1*
X1593701Y2293701D2*
Y2233793D1*
D18*
X793701Y1593701D3*
D19*
X693701D3*
X993701D3*
D18*
X1093701D3*
D19*
X1443701Y1893701D3*
D18*
X1343701D3*
X2031201Y2193701D3*
D19*
Y2293701D3*
D20*
X1893701Y1593701D3*
D21*
X2291339D3*
D20*
X1793701Y1493701D3*
D21*
X1396063D3*
D20*
X1093701Y2243701D3*
D21*
X693701Y1093701D3*
X893701D3*
X493701Y2243701D3*
D22*
X743701Y543701D3*
D23*
X546850D3*
D22*
X2193701D3*
D23*
X1996850D3*
D24*
X1793701Y1393701D3*
X1481890D3*
D25*
Y990551D3*
Y690551D3*
D24*
X2243701Y1493701D3*
X1931890D3*
D25*
Y1090551D3*
Y790551D3*
X2243701Y890551D3*
D20*
X2293701Y2243701D3*
D21*
X2193701D3*
X2293701Y2143701D3*
X2193701D3*
X2293701Y2043701D3*
X2193701D3*
X2293701Y1943701D3*
X2193701D3*
D85*
X2093701Y1693701D3*
D26*
X2143701D3*
X2193701D3*
D88*
X1281201Y1643701D3*
D27*
Y1593701D3*
Y1543701D3*
D28*
X1468701Y1593701D3*
D29*
X1768701D3*
D28*
X1993701Y1693701D3*
D29*
Y1993701D3*
D28*
X643701Y2193701D3*
D29*
X943701D3*
D30*
X1243701Y1118701D3*
D31*
Y818701D3*
D30*
X543701Y893701D3*
D31*
X1143701D3*
D18*
X543701Y2043701D3*
D19*
X643701D3*
X743701D3*
X843701D3*
X943701D3*
X1043701D3*
X1143701D3*
X1243701D3*
X1343701D3*
X1443701D3*
X1543701D3*
X1643701D3*
X1743701D3*
X1843701D3*
Y1743701D3*
X1743701D3*
X1643701D3*
X1543701D3*
X1443701D3*
X1343701D3*
X1243701D3*
X1143701D3*
X1043701D3*
X943701D3*
X843701D3*
X743701D3*
X643701D3*
X543701D3*
D33*
X1918701Y2306201D3*
Y2215650D3*
Y2125098D3*
D34*
X1690354Y2215650D3*
D35*
X1293701Y618701D3*
X998425Y689567D3*
D36*
X1293701Y2293701D3*
D37*
X1393701D3*
X1493701D3*
X1593701D3*
M02*
