G04 DipTrace 3.0.0.2*
G04 TopMask.gbr*
%MOIN*%
G04 #@! TF.FileFunction,Soldermask,Top*
G04 #@! TF.Part,Single*
%AMOUTLINE1*
4,1,8,
-0.023622,-0.031158,
-0.011473,-0.043307,
0.011473,-0.043307,
0.023622,-0.031158,
0.023622,0.031158,
0.011473,0.043307,
-0.011473,0.043307,
-0.023622,0.031158,
-0.023622,-0.031158,
0*%
%AMOUTLINE4*
4,1,8,
-0.031158,0.023622,
-0.043307,0.011473,
-0.043307,-0.011473,
-0.031158,-0.023622,
0.031158,-0.023622,
0.043307,-0.011473,
0.043307,0.011473,
0.031158,0.023622,
-0.031158,0.023622,
0*%
%ADD25C,0.07874*%
%ADD35C,0.074803*%
%ADD36R,0.066929X0.066929*%
%ADD37C,0.066929*%
%ADD52R,0.074803X0.074803*%
%ADD53C,0.082677*%
%ADD58C,0.077874*%
%ADD60C,0.077874*%
%ADD62C,0.057874*%
%ADD64C,0.057874*%
%ADD66O,0.086614X0.047244*%
%ADD68O,0.047244X0.086614*%
%ADD70C,0.086614*%
%ADD72R,0.098425X0.098425*%
%ADD74C,0.098425*%
%ADD77C,0.070866*%
%ADD79R,0.070866X0.070866*%
%ADD86OUTLINE1*%
%ADD89OUTLINE4*%
%FSLAX26Y26*%
G04*
G70*
G90*
G75*
G01*
G04 TopMask*
%LPD*%
D79*
X793701Y1593701D3*
D77*
X693701D3*
X993701D3*
D79*
X1093701D3*
D77*
X1443701Y1893701D3*
D79*
X1343701D3*
X2031201Y2193701D3*
D77*
Y2293701D3*
D36*
X1893701Y1593701D3*
D37*
X2291339D3*
D36*
X1793701Y1493701D3*
D37*
X1396063D3*
D36*
X1093701Y2243701D3*
D37*
X693701Y1093701D3*
X893701D3*
X493701Y2243701D3*
D74*
X743701Y543701D3*
D72*
X546850D3*
D74*
X2193701D3*
D72*
X1996850D3*
D25*
X1793701Y1393701D3*
X1481890D3*
D70*
Y990551D3*
Y690551D3*
D25*
X2243701Y1493701D3*
X1931890D3*
D70*
Y1090551D3*
Y790551D3*
X2243701Y890551D3*
D36*
X2293701Y2243701D3*
D37*
X2193701D3*
X2293701Y2143701D3*
X2193701D3*
X2293701Y2043701D3*
X2193701D3*
X2293701Y1943701D3*
X2193701D3*
D86*
X2093701Y1693701D3*
D68*
X2143701D3*
X2193701D3*
D89*
X1281201Y1643701D3*
D66*
Y1593701D3*
Y1543701D3*
D64*
X1468701Y1593701D3*
D62*
X1768701D3*
D64*
X1993701Y1693701D3*
D62*
Y1993701D3*
D64*
X643701Y2193701D3*
D62*
X943701D3*
D60*
X1243701Y1118701D3*
D58*
Y818701D3*
D60*
X543701Y893701D3*
D58*
X1143701D3*
D79*
X543701Y2043701D3*
D77*
X643701D3*
X743701D3*
X843701D3*
X943701D3*
X1043701D3*
X1143701D3*
X1243701D3*
X1343701D3*
X1443701D3*
X1543701D3*
X1643701D3*
X1743701D3*
X1843701D3*
Y1743701D3*
X1743701D3*
X1643701D3*
X1543701D3*
X1443701D3*
X1343701D3*
X1243701D3*
X1143701D3*
X1043701D3*
X943701D3*
X843701D3*
X743701D3*
X643701D3*
X543701D3*
D53*
X1293701Y618701D3*
X998425Y689567D3*
D52*
X1293701Y2293701D3*
D35*
X1393701D3*
X1493701D3*
X1593701D3*
M02*
