G04 DipTrace 3.0.0.2*
G04 TopSilk.gbr*
%MOIN*%
G04 #@! TF.FileFunction,Legend,Top*
G04 #@! TF.Part,Single*
%ADD10C,0.009843*%
%ADD81C,0.00772*%
%ADD82C,0.004632*%
%FSLAX26Y26*%
G04*
G70*
G90*
G75*
G01*
G04 TopSilk*
%LPD*%
X1323761Y1833701D2*
D10*
X1463641D1*
X1323761Y1953701D2*
X1463641D1*
Y1833701D2*
G03X1463641Y1953701I60J60000D01*
G01*
X1323761D2*
G03X1323761Y1833701I-60J-60000D01*
G01*
X2043021Y2113820D2*
X2019381D1*
X2031201Y2102001D2*
Y2125614D1*
X1931201Y2243730D2*
G02X1931201Y2243730I100000J0D01*
G01*
X1992047Y1548425D2*
Y1638976D1*
X2192992D1*
X2025431Y1548425D2*
Y1638976D1*
X2192992Y1548425D2*
Y1638976D1*
X1992047Y1548425D2*
X2192992D1*
X1695354Y1538976D2*
Y1448425D1*
X1494409D1*
X1661970Y1538976D2*
Y1448425D1*
X1494409Y1538976D2*
Y1448425D1*
X1695354Y1538976D2*
X1494409D1*
X1193701Y2343701D2*
Y993701D1*
X393701D1*
Y2343701D1*
X1193701D1*
X810535Y382265D2*
X424803D1*
Y705119D1*
X842126D1*
Y382265D1*
G36*
X727905Y409150D2*
X759580D1*
Y377648D1*
X727905D1*
Y409150D1*
G37*
G36*
X531137D2*
X562770D1*
Y377648D1*
X531137D1*
Y409150D1*
G37*
X802689Y382265D2*
D10*
X842126D1*
X2260535D2*
X1874803D1*
Y705119D1*
X2292126D1*
Y382265D1*
G36*
X2177905Y409150D2*
X2209580D1*
Y377648D1*
X2177905D1*
Y409150D1*
G37*
G36*
X1981137D2*
X2012770D1*
Y377648D1*
X1981137D1*
Y409150D1*
G37*
X2252689Y382265D2*
D10*
X2292126D1*
X1840551Y1437008D2*
X1435039D1*
Y637795D1*
X1840551D1*
Y1437008D1*
X1685037Y837758D2*
Y937740D1*
X1684997Y837838D2*
X1735078Y787807D1*
X1585038Y937820D2*
X1685037D1*
X1660017Y1412792D2*
X1610058D1*
Y1312730D1*
X1660017D1*
Y1412792D1*
X1435039Y1187813D2*
Y1037881D1*
X2290551Y1537008D2*
X1885039D1*
Y737795D1*
X2290551D1*
Y1537008D1*
X2085038Y937758D2*
Y1037740D1*
X2084997Y937758D2*
X2135078Y887807D1*
X1985039Y1037820D2*
X2085038D1*
X2110017Y1512792D2*
X2060058D1*
Y1412730D1*
X2110017D1*
Y1512792D1*
X1885039Y1287813D2*
Y1137881D1*
X2068080Y1640558D2*
G02X2219321Y1640558I75620J66569D01*
G01*
X2068080D1*
X1228058Y1669321D2*
G02X1228058Y1518080I66569J-75620D01*
G01*
Y1669321D1*
X1538551Y1623701D2*
Y1563701D1*
X1698851Y1623701D2*
X1538551D1*
X1698851D2*
Y1563701D1*
X1538551D1*
X1963701Y1763551D2*
X2023701D1*
X1963701Y1923851D2*
Y1763551D1*
Y1923851D2*
X2023701D1*
Y1763551D1*
X1273703Y1048843D2*
X1213699D1*
X1273703Y888559D2*
Y1048843D1*
Y888559D2*
X1213699D1*
Y1048843D1*
X1044031Y818701D2*
X643371D1*
Y968701D2*
Y818701D1*
X1044031Y968701D2*
X643371D1*
X1044031D2*
Y818701D1*
X987908Y571457D2*
X1264691D1*
X1027435Y736811D2*
X1304218D1*
X1331929Y579328D2*
G03X1304218Y736811I-30275J75853D01*
G01*
X960197Y728940D2*
G03X987908Y571457I30275J-75853D01*
G01*
X1243683Y2343706D2*
X1643718D1*
Y2243701D1*
X1243683D1*
Y2343706D1*
X1587169Y1914986D2*
D81*
X1584793Y1919739D1*
X1579984Y1924547D1*
X1575231Y1926924D1*
X1565670D1*
X1560861Y1924547D1*
X1556108Y1919739D1*
X1553676Y1914986D1*
X1551300Y1907801D1*
Y1895807D1*
X1553676Y1888677D1*
X1556108Y1883869D1*
X1560861Y1879116D1*
X1565670Y1876684D1*
X1575231D1*
X1579984Y1879116D1*
X1584793Y1883869D1*
X1587169Y1888677D1*
X1607417Y1926869D2*
X1633670D1*
X1619355Y1907745D1*
X1626540D1*
X1631294Y1905369D1*
X1633670Y1902992D1*
X1636102Y1895807D1*
Y1891054D1*
X1633670Y1883869D1*
X1628917Y1879060D1*
X1621732Y1876684D1*
X1614547D1*
X1607417Y1879060D1*
X1605041Y1881492D1*
X1602609Y1886246D1*
X1885981Y2167480D2*
X1883605Y2172233D1*
X1878796Y2177041D1*
X1874043Y2179418D1*
X1864481D1*
X1859673Y2177041D1*
X1854920Y2172233D1*
X1852488Y2167480D1*
X1850111Y2160295D1*
Y2148301D1*
X1852488Y2141171D1*
X1854920Y2136363D1*
X1859673Y2131610D1*
X1864481Y2129178D1*
X1874043D1*
X1878796Y2131610D1*
X1883605Y2136363D1*
X1885981Y2141171D1*
X1925352Y2129178D2*
Y2179363D1*
X1901420Y2145925D1*
X1937290D1*
X2062057Y1612199D2*
Y1561959D1*
X2078803D1*
X2085988Y1564391D1*
X2090797Y1569144D1*
X2093173Y1573953D1*
X2095550Y1581083D1*
Y1593076D1*
X2093173Y1600261D1*
X2090797Y1605014D1*
X2085988Y1609823D1*
X2078803Y1612199D1*
X2062057D1*
X2110989Y1602583D2*
X2115798Y1605014D1*
X2122983Y1612144D1*
Y1561959D1*
X1553669Y1512199D2*
Y1461959D1*
X1570416D1*
X1577601Y1464391D1*
X1582409Y1469144D1*
X1584786Y1473953D1*
X1587162Y1481083D1*
Y1493076D1*
X1584786Y1500261D1*
X1582409Y1505014D1*
X1577601Y1509823D1*
X1570416Y1512199D1*
X1553669D1*
X1605033Y1500206D2*
Y1502583D1*
X1607410Y1507391D1*
X1609787Y1509768D1*
X1614595Y1512144D1*
X1624157D1*
X1628910Y1509768D1*
X1631286Y1507391D1*
X1633718Y1502583D1*
Y1497829D1*
X1631286Y1493021D1*
X1626533Y1485891D1*
X1602602Y1461959D1*
X1636095D1*
X619397Y1416924D2*
Y1366684D1*
X652890Y1416924D2*
Y1366684D1*
X619397Y1392992D2*
X652890D1*
X668330Y1416924D2*
Y1366684D1*
X697014D1*
X712454Y1416924D2*
Y1366684D1*
X745947Y1416924D2*
X712454Y1383431D1*
X724392Y1395424D2*
X745947Y1366684D1*
X761386Y1391776D2*
X789021D1*
X804460Y1390616D2*
X826015D1*
X833145Y1392992D1*
X835577Y1395424D1*
X837954Y1400177D1*
Y1407362D1*
X835577Y1412115D1*
X833145Y1414547D1*
X826015Y1416924D1*
X804460D1*
Y1366684D1*
X891639D2*
Y1416924D1*
X872516Y1366684D1*
X853393Y1416924D1*
Y1366684D1*
X921449Y1416869D2*
X914264Y1414492D1*
X909455Y1407307D1*
X907079Y1395369D1*
Y1388184D1*
X909455Y1376245D1*
X914264Y1369060D1*
X921449Y1366684D1*
X926202D1*
X933387Y1369060D1*
X938140Y1376245D1*
X940572Y1388184D1*
Y1395369D1*
X938140Y1407307D1*
X933387Y1414492D1*
X926202Y1416869D1*
X921449D1*
X938140Y1407307D2*
X909455Y1376245D1*
X956011Y1407307D2*
X960820Y1409739D1*
X968005Y1416869D1*
Y1366684D1*
X631714Y678342D2*
Y640095D1*
X629337Y632910D1*
X626906Y630534D1*
X622152Y628102D1*
X617344D1*
X612591Y630534D1*
X610214Y632910D1*
X607782Y640095D1*
Y644849D1*
X647153Y668725D2*
X651962Y671157D1*
X659147Y678287D1*
Y628102D1*
X2070964Y678342D2*
Y640095D1*
X2068588Y632910D1*
X2066156Y630534D1*
X2061402Y628102D1*
X2056594D1*
X2051841Y630534D1*
X2049464Y632910D1*
X2047032Y640095D1*
Y644849D1*
X2088835Y666348D2*
Y668725D1*
X2091212Y673533D1*
X2093588Y675910D1*
X2098397Y678287D1*
X2107958D1*
X2112712Y675910D1*
X2115088Y673533D1*
X2117520Y668725D1*
Y663972D1*
X2115088Y659163D1*
X2110335Y652034D1*
X2086403Y628102D1*
X2119897D1*
X1607332Y1260231D2*
Y1209991D1*
X1640826Y1260231D2*
X1607332Y1226738D1*
X1619270Y1238731D2*
X1640826Y1209991D1*
X1656265Y1250614D2*
X1661073Y1253046D1*
X1668258Y1260176D1*
Y1209991D1*
X2046582Y1360231D2*
Y1309991D1*
X2080076Y1360231D2*
X2046582Y1326738D1*
X2058521Y1338731D2*
X2080076Y1309991D1*
X2097947Y1348237D2*
Y1350614D1*
X2100323Y1355423D1*
X2102700Y1357799D1*
X2107508Y1360176D1*
X2117070D1*
X2121823Y1357799D1*
X2124200Y1355423D1*
X2126632Y1350614D1*
Y1345861D1*
X2124200Y1341052D1*
X2119447Y1333923D1*
X2095515Y1309991D1*
X2129008D1*
X2275204Y1731098D2*
X2270450Y1728776D1*
X2265642Y1723968D1*
X2263265Y1719160D1*
X2260834Y1711974D1*
Y1700036D1*
X2263265Y1692851D1*
X2265642Y1688098D1*
X2270450Y1683290D1*
X2275204Y1680913D1*
X2284765D1*
X2289574Y1683290D1*
X2294327Y1688098D1*
X2296703Y1692851D1*
X2299135Y1700036D1*
Y1711974D1*
X2296703Y1719160D1*
X2294327Y1723968D1*
X2289574Y1728776D1*
X2284765Y1731098D1*
X2275204D1*
X2282389Y1690475D2*
X2296703Y1676105D1*
X2314575Y1721481D2*
X2319383Y1723913D1*
X2326568Y1731042D1*
Y1680858D1*
X1269969Y1430171D2*
X1265216Y1427849D1*
X1260408Y1423041D1*
X1258031Y1418233D1*
X1255599Y1411048D1*
Y1399109D1*
X1258031Y1391924D1*
X1260408Y1387171D1*
X1265216Y1382363D1*
X1269969Y1379986D1*
X1279531D1*
X1284340Y1382363D1*
X1289093Y1387171D1*
X1291469Y1391924D1*
X1293901Y1399109D1*
Y1411048D1*
X1291469Y1418233D1*
X1289093Y1423041D1*
X1284340Y1427849D1*
X1279531Y1430171D1*
X1269969D1*
X1277154Y1389548D2*
X1291469Y1375178D1*
X1311772Y1418177D2*
Y1420554D1*
X1314149Y1425362D1*
X1316525Y1427739D1*
X1321334Y1430115D1*
X1330896D1*
X1335649Y1427739D1*
X1338025Y1425362D1*
X1340457Y1420554D1*
Y1415801D1*
X1338025Y1410992D1*
X1333272Y1403862D1*
X1309340Y1379931D1*
X1342834D1*
X1588238Y1672992D2*
X1609738D1*
X1616923Y1675424D1*
X1619354Y1677801D1*
X1621731Y1682554D1*
Y1687362D1*
X1619354Y1692115D1*
X1616923Y1694547D1*
X1609738Y1696924D1*
X1588238D1*
Y1646684D1*
X1604984Y1672992D2*
X1621731Y1646684D1*
X1637170Y1687307D2*
X1641979Y1689739D1*
X1649164Y1696869D1*
Y1646684D1*
X1914409Y1802488D2*
Y1823988D1*
X1911978Y1831173D1*
X1909601Y1833605D1*
X1904848Y1835981D1*
X1900039D1*
X1895286Y1833605D1*
X1892854Y1831173D1*
X1890478Y1823988D1*
Y1802488D1*
X1940718D1*
X1914409Y1819235D2*
X1940718Y1835981D1*
X1902471Y1853852D2*
X1900095D1*
X1895286Y1856229D1*
X1892910Y1858606D1*
X1890533Y1863414D1*
Y1872976D1*
X1892910Y1877729D1*
X1895286Y1880105D1*
X1900095Y1882537D1*
X1904848D1*
X1909656Y1880105D1*
X1916786Y1875352D1*
X1940718Y1851420D1*
Y1884914D1*
X1292663Y937703D2*
X1287854Y932950D1*
X1285478Y925765D1*
Y916203D1*
X1287854Y909018D1*
X1292663Y904210D1*
X1297416D1*
X1302224Y906642D1*
X1304601Y909018D1*
X1306978Y913772D1*
X1311786Y928142D1*
X1314163Y932950D1*
X1316595Y935327D1*
X1321348Y937703D1*
X1328533D1*
X1333286Y932950D1*
X1335718Y925765D1*
Y916203D1*
X1333286Y909018D1*
X1328533Y904210D1*
X1285478Y953143D2*
X1335718Y953142D1*
Y974698D1*
X1333286Y981883D1*
X1330909Y984259D1*
X1326156Y986636D1*
X1318971D1*
X1314163Y984259D1*
X1311786Y981883D1*
X1309409Y974698D1*
X1306978Y981883D1*
X1304601Y984259D1*
X1299848Y986636D1*
X1295039D1*
X1290286Y984259D1*
X1287854Y981883D1*
X1285478Y974698D1*
Y953143D1*
X1309409Y953142D2*
Y974698D1*
X1285478Y1033192D2*
Y1002075D1*
X1335718D1*
X1309409D2*
Y1021198D1*
X678406Y891924D2*
Y841684D1*
X661659Y891924D2*
X695153D1*
X710592Y860807D2*
X739277D1*
Y865616D1*
X736900Y870424D1*
X734523Y872801D1*
X729715Y875177D1*
X722530D1*
X717777Y872801D1*
X712968Y867992D1*
X710592Y860807D1*
Y856054D1*
X712968Y848869D1*
X717777Y844116D1*
X722530Y841684D1*
X729715D1*
X734523Y844116D1*
X739277Y848869D1*
X754716Y875177D2*
Y841684D1*
Y865616D2*
X761901Y872801D1*
X766709Y875177D1*
X773839D1*
X778648Y872801D1*
X781024Y865616D1*
Y841684D1*
Y865616D2*
X788209Y872801D1*
X793018Y875177D1*
X800147D1*
X804956Y872801D1*
X807388Y865616D1*
Y841684D1*
X822827Y875177D2*
Y824937D1*
Y867992D2*
X827635Y872745D1*
X832389Y875177D1*
X839574D1*
X844382Y872745D1*
X849135Y867992D1*
X851567Y860807D1*
Y855999D1*
X849135Y848869D1*
X844382Y844060D1*
X839574Y841684D1*
X832389D1*
X827635Y844060D1*
X822827Y848869D1*
X898123Y891924D2*
X867006D1*
Y841684D1*
Y867992D2*
X886130D1*
X913562Y875177D2*
Y851245D1*
X915939Y844116D1*
X920747Y841684D1*
X927932D1*
X932686Y844116D1*
X939871Y851245D1*
Y875177D2*
Y841684D1*
X981618Y867992D2*
X979242Y872801D1*
X972057Y875177D1*
X964872D1*
X957687Y872801D1*
X955310Y867992D1*
X957687Y863239D1*
X962495Y860807D1*
X974433Y858431D1*
X979242Y856054D1*
X981618Y851245D1*
Y848869D1*
X979242Y844116D1*
X972057Y841684D1*
X964872D1*
X957687Y844116D1*
X955310Y848869D1*
X997058Y860807D2*
X1025742D1*
Y865616D1*
X1023366Y870424D1*
X1020989Y872801D1*
X1016181Y875177D1*
X1008996D1*
X1004243Y872801D1*
X999434Y867992D1*
X997058Y860807D1*
Y856054D1*
X999434Y848869D1*
X1004243Y844116D1*
X1008996Y841684D1*
X1016181D1*
X1020989Y844116D1*
X1025742Y848869D1*
X998703Y560034D2*
X1017826Y509794D1*
X1036950Y560034D1*
X1081074Y543287D2*
Y509794D1*
Y536102D2*
X1076320Y540911D1*
X1071512Y543287D1*
X1064382D1*
X1059574Y540911D1*
X1054821Y536102D1*
X1052389Y528917D1*
Y524164D1*
X1054821Y516979D1*
X1059574Y512226D1*
X1064382Y509794D1*
X1071512D1*
X1076320Y512226D1*
X1081074Y516979D1*
X1096513Y543287D2*
Y509794D1*
Y528917D2*
X1098945Y536102D1*
X1103698Y540911D1*
X1108506Y543287D1*
X1115691D1*
X1131131Y560034D2*
X1133507Y557658D1*
X1135939Y560034D1*
X1133507Y562466D1*
X1131131Y560034D1*
X1133507Y543287D2*
Y509794D1*
X1177687Y536102D2*
X1175310Y540911D1*
X1168125Y543287D1*
X1160940D1*
X1153755Y540911D1*
X1151378Y536102D1*
X1153755Y531349D1*
X1158563Y528917D1*
X1170502Y526541D1*
X1175310Y524164D1*
X1177687Y519356D1*
Y516979D1*
X1175310Y512226D1*
X1168125Y509794D1*
X1160940D1*
X1153755Y512226D1*
X1151378Y516979D1*
X1200311Y560034D2*
Y519356D1*
X1202688Y512226D1*
X1207496Y509794D1*
X1212249D1*
X1193126Y543287D2*
X1209873D1*
X1239627D2*
X1234873Y540911D1*
X1230065Y536102D1*
X1227688Y528917D1*
Y524164D1*
X1230065Y516979D1*
X1234873Y512226D1*
X1239627Y509794D1*
X1246812D1*
X1251620Y512226D1*
X1256373Y516979D1*
X1258805Y524164D1*
Y528917D1*
X1256373Y536102D1*
X1251620Y540911D1*
X1246812Y543287D1*
X1239627D1*
X1274244D2*
Y509794D1*
Y528917D2*
X1276676Y536102D1*
X1281429Y540911D1*
X1286238Y543287D1*
X1293423D1*
X478143Y726502D2*
X458965Y776742D1*
X439841Y726502D1*
X447026Y743249D2*
X470958D1*
X529452Y764804D2*
X527076Y769557D1*
X522267Y774366D1*
X517514Y776742D1*
X507953D1*
X503144Y774366D1*
X498391Y769557D1*
X495959Y764804D1*
X493582Y757619D1*
Y745625D1*
X495959Y738496D1*
X498391Y733687D1*
X503144Y728934D1*
X507953Y726502D1*
X517514D1*
X522267Y728934D1*
X527076Y733687D1*
X529452Y738496D1*
X595924Y764749D2*
Y767125D1*
X598301Y771934D1*
X600678Y774310D1*
X605486Y776687D1*
X615048D1*
X619801Y774310D1*
X622178Y771934D1*
X624609Y767125D1*
Y762372D1*
X622178Y757564D1*
X617424Y750434D1*
X593493Y726502D1*
X626986D1*
X644857Y764749D2*
Y767125D1*
X647234Y771934D1*
X649610Y774310D1*
X654419Y776687D1*
X663980D1*
X668733Y774310D1*
X671110Y771934D1*
X673542Y767125D1*
Y762372D1*
X671110Y757564D1*
X666357Y750434D1*
X642425Y726502D1*
X675919D1*
X705728Y776687D2*
X698543Y774310D1*
X693734Y767125D1*
X691358Y755187D1*
Y748002D1*
X693734Y736064D1*
X698543Y728879D1*
X705728Y726502D1*
X710481D1*
X717666Y728879D1*
X722419Y736064D1*
X724851Y748002D1*
Y755187D1*
X722419Y767125D1*
X717666Y774310D1*
X710481Y776687D1*
X705728D1*
X722419Y767125D2*
X693734Y736064D1*
X788891Y776742D2*
Y726502D1*
X837824Y776742D2*
Y726502D1*
X804331Y776742D1*
Y726502D1*
X1238298Y2191245D2*
D82*
Y2161101D1*
X1248346D1*
X1252657Y2162560D1*
X1255542Y2165412D1*
X1256968Y2168297D1*
X1258394Y2172575D1*
Y2179771D1*
X1256968Y2184082D1*
X1255542Y2186934D1*
X1252657Y2189819D1*
X1248346Y2191245D1*
X1238298D1*
X1269116Y2184049D2*
Y2185475D1*
X1270542Y2188360D1*
X1271968Y2189786D1*
X1274853Y2191212D1*
X1280590D1*
X1283442Y2189786D1*
X1284868Y2188360D1*
X1286327Y2185475D1*
Y2182623D1*
X1284868Y2179738D1*
X1282016Y2175460D1*
X1267657Y2161101D1*
X1287753D1*
X1338298Y2191245D2*
Y2161101D1*
X1348346D1*
X1352657Y2162560D1*
X1355542Y2165412D1*
X1356968Y2168297D1*
X1358394Y2172575D1*
Y2179771D1*
X1356968Y2184082D1*
X1355542Y2186934D1*
X1352657Y2189819D1*
X1348346Y2191245D1*
X1338298D1*
X1370542Y2191212D2*
X1386294D1*
X1377705Y2179738D1*
X1382016D1*
X1384868Y2178312D1*
X1386294Y2176886D1*
X1387753Y2172575D1*
Y2169723D1*
X1386294Y2165412D1*
X1383442Y2162527D1*
X1379131Y2161101D1*
X1374820D1*
X1370542Y2162527D1*
X1369116Y2163986D1*
X1367657Y2166838D1*
X1438298Y2191245D2*
Y2161101D1*
X1448346D1*
X1452657Y2162560D1*
X1455542Y2165412D1*
X1456968Y2168297D1*
X1458394Y2172575D1*
Y2179771D1*
X1456968Y2184082D1*
X1455542Y2186934D1*
X1452657Y2189819D1*
X1448346Y2191245D1*
X1438298D1*
X1482016Y2161101D2*
Y2191212D1*
X1467657Y2171149D1*
X1489179D1*
X1559819Y2184082D2*
X1558394Y2186934D1*
X1555508Y2189819D1*
X1552657Y2191245D1*
X1546920D1*
X1544034Y2189819D1*
X1541183Y2186934D1*
X1539723Y2184082D1*
X1538298Y2179771D1*
Y2172575D1*
X1539723Y2168297D1*
X1541183Y2165412D1*
X1544034Y2162560D1*
X1546920Y2161101D1*
X1552657D1*
X1555508Y2162560D1*
X1558394Y2165412D1*
X1559819Y2168297D1*
Y2172575D1*
X1552657D1*
X1589179Y2191245D2*
Y2161101D1*
X1569083Y2191245D1*
Y2161101D1*
X1598443Y2191245D2*
Y2161101D1*
X1608491D1*
X1612802Y2162560D1*
X1615687Y2165412D1*
X1617113Y2168297D1*
X1618539Y2172575D1*
Y2179771D1*
X1617113Y2184082D1*
X1615687Y2186934D1*
X1612802Y2189819D1*
X1608491Y2191245D1*
X1598443D1*
M02*
